<svg width="272" height="272" viewBox="0 0 272 272" fill="none" xmlns="http://www.w3.org/2000/svg">
<path d="M2.98492 127.847V105.243C59.6982 105.243 105.964 59.2916 105.964 2.9646H128.724C128.724 71.891 72.3841 127.847 2.98492 127.847Z" fill="#D44D60"/>
<path d="M2.98489 130.812H0V102.278H2.98489C58.2057 102.278 102.979 57.8093 102.979 2.96458V0H131.709V2.96458C131.709 73.3733 73.8765 130.812 2.98489 130.812ZM5.96982 108.207V125.253C71.6379 123.771 124.62 71.1499 126.112 5.92915H108.949C107.084 61.515 61.9369 106.725 5.96982 108.207Z" fill="white"/>
<path d="M269.015 127.847V105.243C212.302 105.243 166.036 59.2916 166.036 2.9646H143.276C143.276 71.891 199.616 127.847 269.015 127.847Z" fill="#D44D60"/>
<path d="M271.627 130.812H268.642C197.75 130.812 139.918 73.3733 139.918 2.96458V0H168.647V2.96458C168.647 57.8093 213.421 102.278 268.642 102.278H271.627V130.812ZM145.888 5.92915C147.38 71.1499 200.362 123.771 266.03 125.253V108.207C210.063 106.725 164.543 61.515 163.051 5.92915H145.888Z" fill="white"/>
<path d="M2.98492 144.153V166.757C59.6982 166.757 105.964 212.708 105.964 269.035H128.724C128.724 200.109 72.3841 144.153 2.98492 144.153Z" fill="#D44D60"/>
<path d="M131.709 272H102.979V269.035C102.979 214.191 58.2057 169.722 2.98489 169.722H0V141.188H2.98489C73.8765 141.188 131.709 198.627 131.709 269.035V272ZM108.576 266.071H125.739C124.247 200.85 71.2647 148.229 5.59671 146.747V163.793C61.9369 165.275 107.084 210.485 108.576 266.071Z" fill="white"/>
<path d="M269.015 144.153V166.757C212.302 166.757 166.036 212.708 166.036 269.035H143.276C143.276 200.109 199.616 144.153 269.015 144.153Z" fill="#D44D60"/>
<path d="M169.021 272H140.291V269.035C140.291 198.627 198.123 141.188 269.015 141.188H272V169.722H269.015C213.794 169.722 169.021 214.191 169.021 269.035V272ZM145.888 266.071H163.051C164.543 210.485 210.063 165.275 266.03 163.793V146.747C200.362 148.229 147.38 201.221 145.888 266.071Z" fill="white"/>
<path d="M148.126 37.4276C146.634 31.869 145.141 25.9399 144.395 20.0107C141.783 19.6401 138.798 19.6401 135.813 19.6401C132.829 19.6401 130.217 20.0107 127.232 20.0107C126.486 25.9399 125.366 31.869 123.501 37.4276C127.605 37.057 131.336 36.6865 135.44 36.6865C139.918 36.6865 144.022 37.057 148.126 37.4276Z" fill="#D44D60"/>
<path d="M119.77 40.7629L120.889 36.6866C122.381 31.128 123.501 25.5694 124.62 19.6402L124.993 17.4168L127.978 17.0462C133.202 16.6757 138.425 16.6757 143.649 17.0462L146.634 17.4168L147.007 19.6402C147.753 25.5694 148.872 31.128 150.738 36.6866L151.857 40.7629L147.753 40.3923C138.798 39.2806 132.829 39.2806 124.247 40.3923L119.77 40.7629ZM130.217 22.6048C129.47 26.6811 128.724 30.3868 127.978 34.0926C133.948 33.722 138.798 33.722 144.395 34.0926C143.276 30.3868 142.529 26.3105 142.156 22.6048C138.052 22.2343 133.948 22.2343 130.217 22.6048Z" fill="white"/>
<path d="M36.9383 148.599C36.5651 144.523 36.192 140.076 36.192 136C36.192 94.8665 61.5638 59.6621 97.3827 44.4686C100.368 38.1689 102.606 31.128 104.099 24.0872C55.2208 38.1689 19.0288 83.0081 19.0288 136C19.0288 138.965 19.4019 141.929 19.4019 145.264C25.3717 146.005 30.9684 147.117 36.9383 148.599Z" fill="#D44D60"/>
<path d="M40.2963 152.676L36.192 151.564C30.5953 150.082 24.6255 148.97 19.0288 148.229L16.417 147.488V145.264C16.0439 142.3 16.0439 138.964 16.0439 136C16.0439 83.008 51.8628 35.9454 102.979 21.493L107.457 20.0107L106.337 24.4576C104.845 31.8691 102.606 38.5394 99.6214 45.2097L99.2483 46.3214L98.1289 46.692C61.9369 61.8854 38.8038 96.7192 38.8038 135.629C38.8038 139.335 39.177 143.411 39.5501 147.858L40.2963 152.676ZM22.0137 142.67C25.7448 143.411 29.8491 144.152 33.5803 144.894C33.2071 141.558 33.2071 138.964 33.2071 136C33.2071 95.2369 57.4595 58.5503 95.1441 42.2451C97.0096 37.7982 98.8752 32.9808 99.9945 28.1633C53.7284 43.7274 22.0137 87.0844 22.0137 135.629C21.6406 138.223 21.6406 140.447 22.0137 142.67Z" fill="white"/>
<path d="M236.181 136C236.181 140.447 235.808 144.523 235.435 148.599C241.032 147.117 247.001 146.005 252.971 145.264C253.344 142.3 253.344 139.335 253.344 136C253.344 83.0081 217.525 38.1689 168.274 24.0872C169.767 31.128 172.006 37.7983 174.617 44.4686C210.809 59.6621 236.181 94.8665 236.181 136Z" fill="#D44D60"/>
<path d="M231.704 152.676L232.077 148.599C232.823 143.782 232.823 140.076 232.823 136.37C232.823 97.4604 209.317 62.6266 173.498 47.4332L172.379 47.0626L172.005 45.9509C169.021 39.6511 166.782 32.6103 165.289 25.1988L164.17 20.752L168.647 22.2342C219.764 36.6866 255.583 84.1198 255.583 136.741C255.583 140.076 255.21 143.041 255.21 146.005V148.229L252.971 148.599C247.001 149.341 241.405 150.452 235.808 151.935L231.704 152.676ZM176.856 42.2451C214.54 58.5503 238.793 95.237 238.793 136C238.793 138.965 238.793 141.559 238.42 144.894C242.151 144.153 246.255 143.411 249.986 142.67C249.986 140.447 250.359 138.223 250.359 136C250.359 87.455 218.645 43.7274 172.379 28.534C173.498 33.3514 174.99 37.7983 176.856 42.2451Z" fill="white"/>
<path d="M227.973 175.281C212.675 210.485 177.229 235.313 136.187 235.313C95.1441 235.313 59.6982 210.485 44.4005 175.281C38.0576 172.316 30.9684 170.463 23.8793 168.981C38.0576 217.155 83.2044 252.73 136.187 252.73C189.169 252.73 234.316 217.526 248.494 168.981C241.032 170.093 234.316 172.316 227.973 175.281Z" fill="#D44D60"/>
<path d="M135.813 255.324C82.8313 255.324 35.8189 220.12 20.5213 169.722L19.4019 165.275L23.8793 166.387C31.3416 167.869 38.4307 170.093 44.7737 173.057L45.893 173.428L46.2661 174.539C61.5638 210.114 96.6365 233.09 135.44 233.09C174.244 233.09 209.317 210.114 224.615 174.91L224.988 173.798L226.107 173.428C233.196 170.463 240.285 168.24 247.375 166.757L251.852 165.646L250.359 170.093C236.181 220.12 188.796 255.324 135.813 255.324ZM27.9835 172.687C43.6543 218.267 87.3087 249.395 136.187 249.395C184.691 249.395 228.719 217.896 244.39 172.687C239.539 173.798 235.062 175.651 230.211 177.504C213.794 214.561 176.856 238.278 136.187 238.278C95.5172 238.278 58.5789 214.561 42.1619 177.504C37.3114 175.651 32.834 173.798 27.9835 172.687Z" fill="white"/>
</svg>
