<svg width="64" height="64" viewBox="0 0 64 64" fill="none" xmlns="http://www.w3.org/2000/svg">
<g clip-path="url(#clip0_877_1843)">
<path d="M38.3666 2.55182e-07C39.4833 0.35 40.35 0.983334 40.65 2.16667C40.75 2.6 40.7333 3.06667 40.7666 3.53333C40.7833 3.83333 40.7666 4.15 40.7666 4.53333C41.95 4.53333 43.0666 4.51667 44.2 4.53333C46.8166 4.58333 48.7333 6.53333 48.75 9.16667C48.75 10.0333 48.75 10.9167 48.75 11.7833C48.75 11.9833 48.75 12.2 48.75 12.5C49.5833 12.5 50.3833 12.4833 51.1833 12.5C52.6 12.55 53.8 13.6167 54 14.9833C54.2 16.5 53.3666 17.85 51.9333 18.2667C51.6 18.3667 51.2333 18.3833 50.8833 18.3833C50.2 18.4 49.5166 18.3833 48.7666 18.3833C48.7666 19.45 48.75 20.4667 48.7833 21.4833C48.7833 21.6333 49.0833 21.8333 49.2833 21.9C52.1666 22.9 55.0666 23.8833 57.9666 24.8667C60.9166 25.8667 62.0833 28.2167 61.0666 31.1833C60.5333 32.7333 60.0166 34.3 59.4833 35.85C59.25 36.5333 58.8333 36.8 58.2833 36.65C57.6833 36.4833 57.4666 35.9667 57.7 35.2333C58.2333 33.6333 58.7833 32.05 59.3166 30.45C59.9166 28.6667 59.2666 27.3167 57.5 26.7C49.6166 24 41.7166 21.3167 33.8166 18.6333C33.75 18.6167 33.7 18.6 33.6333 18.5833C32.95 18.35 32.6166 17.8833 32.7833 17.35C32.9666 16.7667 33.4833 16.55 34.2166 16.7833C34.9666 17.0333 35.7166 17.3 36.4666 17.55C39.75 18.6667 43.05 19.7833 46.3333 20.9C46.4833 20.95 46.65 21 46.85 21.05C46.85 20.1667 46.85 19.3167 46.85 18.3833C45.6333 18.4833 44.5 18.2167 43.8333 17.1167C43.5 16.5833 43.3 15.8667 43.3 15.25C43.3166 13.5833 44.4333 12.75 46.8666 12.4333C46.8666 11.1667 46.95 9.9 46.85 8.65C46.7666 7.46667 45.7833 6.53333 44.5666 6.45C43.35 6.36667 42.1166 6.43333 40.8 6.43333C40.8 6.88333 40.8 7.31667 40.8 7.75C40.7666 9.51667 39.5333 10.7833 37.8333 10.7833C36.1833 10.7667 34.9333 9.48333 34.9166 7.76667C34.9166 7.35 34.9166 6.93333 34.9166 6.41667C34.2833 6.41667 33.7 6.41667 33.1 6.41667C32.5166 6.41667 31.95 6.41667 31.2833 6.41667C31.2833 6.93333 31.2833 7.38333 31.2833 7.83333C31.25 9.53333 29.9666 10.8 28.3 10.7833C26.6666 10.7667 25.4333 9.5 25.4 7.81667C25.4 7.38333 25.4 6.95 25.4 6.46667C24.1833 6.46667 23 6.46667 21.7666 6.46667C21.7666 6.93333 21.7833 7.36667 21.7666 7.8C21.7166 9.53333 20.4666 10.7833 18.8 10.7833C17.1666 10.7833 15.9333 9.55 15.8666 7.85C15.85 7.4 15.8666 6.95 15.8666 6.48333C14.4833 6.48333 13.1666 6.4 11.8833 6.51667C10.8 6.61667 9.88329 7.6 9.83329 8.65C9.69995 9.9 9.74995 11.1667 9.74995 12.5C10.8833 12.45 11.95 12.6167 12.6 13.5833C12.9666 14.1167 13.2333 14.8167 13.3 15.4667C13.35 16 13.1166 16.6333 12.8 17.0833C12.5 17.5333 11.9833 17.9333 11.4833 18.1667C10.9833 18.4 10.3666 18.4 9.74995 18.5C9.74995 19.6333 9.74995 20.7833 9.74995 22.0167C10.9333 21.9833 12.0833 22.2 12.7333 23.2833C13.0666 23.8167 13.3 24.5167 13.2833 25.15C13.25 26.8667 12.1333 27.7333 9.69995 28C9.69995 28.5667 9.69995 29.1333 9.69995 29.7167C9.69995 30.3 9.69995 30.8833 9.69995 31.55C10.95 31.5333 12.1333 31.75 12.8 32.9167C13.1 33.45 13.3166 34.1333 13.2833 34.7333C13.2 36.45 12.0333 37.3333 9.88329 37.5167C9.68329 37.95 9.51662 38.3667 9.28329 38.7167C9.19995 38.85 8.89995 38.8833 8.71662 38.8833C8.13329 38.8833 7.91662 38.55 7.78329 37.4833C7.03329 37.4833 6.26662 37.5 5.51662 37.4833C4.26662 37.4333 3.31662 36.8667 2.79995 35.7C2.33329 34.6167 2.48329 33.5833 3.23329 32.65C3.76662 31.9833 4.48329 31.6167 5.34995 31.6C6.14995 31.5833 6.96662 31.6 7.81662 31.6C7.81662 30.35 7.81662 29.2 7.81662 27.95C7.03329 27.95 6.26662 27.9833 5.49995 27.95C3.56662 27.8667 2.29995 26.3 2.61662 24.45C2.84995 23.0667 4.04995 22.0833 5.56662 22.05C6.29995 22.0333 7.01662 22.05 7.79995 22.05C7.79995 20.8333 7.79995 19.6667 7.79995 18.4167C7.08329 18.4167 6.38329 18.4167 5.68329 18.4167C3.86662 18.4 2.54995 17.1667 2.56662 15.4667C2.56662 13.7833 3.89995 12.5333 5.69995 12.5167C6.38329 12.5167 7.06662 12.5167 7.81662 12.5167C7.83329 12.3167 7.84995 12.1333 7.84995 11.95C7.84995 10.9667 7.83329 9.98333 7.86662 9.01667C7.91662 6.48333 9.83329 4.58333 12.3666 4.53333C13.4833 4.51667 14.6166 4.53333 15.85 4.53333C15.6166 2.48333 15.95 0.75 18.1166 2.55182e-07C18.5333 2.55182e-07 18.95 2.55182e-07 19.3666 2.55182e-07C21.5833 0.733334 21.9166 2.48333 21.7 4.48333C22.9833 4.48333 24.1333 4.48333 25.35 4.48333C25.35 4.13333 25.3333 3.83333 25.35 3.53333C25.3666 3.08333 25.35 2.61667 25.4666 2.16667C25.7666 0.983334 26.6333 0.35 27.75 2.55182e-07C28.1333 2.55182e-07 28.5 2.55182e-07 28.8833 2.55182e-07C31.1333 0.7 31.45 2.46667 31.2333 4.46667C32.5166 4.46667 33.6833 4.46667 34.8833 4.46667C34.8833 3.95 34.8666 3.46667 34.8833 2.98333C34.9166 1.38333 35.8333 0.483334 37.25 -0.0166664C37.6166 2.55182e-07 38 2.55182e-07 38.3666 2.55182e-07ZM27.2333 5.35C27.2333 6.13333 27.2166 6.93333 27.2333 7.71667C27.25 8.46667 27.65 8.9 28.3 8.9C28.9166 8.9 29.35 8.45 29.35 7.75C29.3666 6.16667 29.3666 4.6 29.35 3.01667C29.35 2.35 28.8666 1.88333 28.2666 1.88333C27.6666 1.88333 27.2333 2.35 27.2166 3.03333C27.2333 3.8 27.2333 4.58333 27.2333 5.35ZM38.8833 5.41667C38.8833 4.63333 38.9 3.83333 38.8833 3.05C38.8666 2.35 38.45 1.9 37.85 1.88333C37.2333 1.86667 36.7666 2.35 36.75 3.06667C36.7333 4.61667 36.7333 6.18333 36.75 7.73333C36.75 8.45 37.2166 8.9 37.85 8.88333C38.4666 8.86667 38.8666 8.43333 38.8666 7.71667C38.9 6.95 38.8833 6.18333 38.8833 5.41667ZM48.6 16.5167C49.4166 16.5167 50.2166 16.5333 51.0333 16.5167C51.7 16.5 52.1166 16.1167 52.1333 15.5C52.15 14.8833 51.7333 14.4 51.05 14.3833C49.45 14.3667 47.85 14.3667 46.25 14.3833C45.5833 14.3833 45.1166 14.8833 45.1333 15.4667C45.15 16.0667 45.6 16.5 46.3 16.5C47.0666 16.5167 47.8333 16.5167 48.6 16.5167ZM17.7 5.4C17.7 6.16667 17.6833 6.93333 17.7 7.7C17.7166 8.46667 18.1166 8.88333 18.7666 8.88333C19.4 8.88333 19.8333 8.43333 19.8333 7.68333C19.85 6.15 19.85 4.61667 19.8333 3.06667C19.8333 2.33333 19.3833 1.86667 18.75 1.86667C18.1333 1.86667 17.7 2.33333 17.6833 3.06667C17.6833 3.85 17.7 4.61667 17.7 5.4ZM7.89995 16.5167C8.71662 16.5167 9.51662 16.5333 10.3333 16.5167C10.9833 16.5 11.4333 16.0833 11.45 15.5C11.4833 14.9 11.0166 14.4 10.35 14.4C8.74995 14.3833 7.14995 14.3833 5.54995 14.4C4.86662 14.4167 4.43329 14.8667 4.43329 15.4833C4.44995 16.1 4.88329 16.5167 5.58329 16.5167C6.36662 16.5167 7.13329 16.5167 7.89995 16.5167ZM7.91662 26.05C8.69995 26.05 9.49995 26.0667 10.2833 26.05C10.9833 26.0333 11.4333 25.6 11.45 25C11.45 24.4 11 23.9333 10.3166 23.9167C8.73329 23.8833 7.14995 23.8833 5.56662 23.9167C4.86662 23.9333 4.43329 24.3833 4.44995 25C4.46662 25.6167 4.89995 26.0167 5.59995 26.0333C6.38329 26.0667 7.14995 26.05 7.91662 26.05ZM7.96662 33.4667C7.18329 33.4667 6.38329 33.45 5.59995 33.4667C4.89995 33.4833 4.46662 33.9 4.44995 34.5167C4.44995 35.1333 4.88329 35.5833 5.56662 35.6C7.14995 35.6167 8.71662 35.6167 10.3 35.6C10.9833 35.6 11.45 35.1333 11.4666 34.55C11.4833 33.9333 11 33.4833 10.2833 33.4667C9.49995 33.45 8.73329 33.4667 7.96662 33.4667Z" fill="#4C70B5"/>
<path d="M45.8833 64C42.8333 62.9667 39.8 61.9167 36.75 60.8833C29.6 58.45 22.4667 56.0167 15.3167 53.6C12.5833 52.6667 11.3833 50.2333 12.3 47.4833C12.5167 46.8333 12.7333 46.2 12.9667 45.5C12.5167 45.4667 12.15 45.45 11.7833 45.4C10.1667 45.1833 9.01666 44.3167 8.3 42.8833C8 42.2833 8.13333 41.75 8.65 41.4833C9.15 41.2167 9.63333 41.4167 9.98333 42.0167C10.7 43.2833 12.0167 43.9 13.4167 43.55C13.6 43.5 13.7667 43.1833 13.85 42.95C15.45 38.2667 17.05 33.5833 18.6333 28.9C19.8833 25.2167 21.1333 21.5333 22.3833 17.85C23.3167 15.1 25.7167 13.9167 28.4833 14.85C28.8833 14.9833 29.2667 15.1 29.6667 15.25C30.3167 15.4833 30.5833 15.9333 30.4 16.4833C30.2167 17.0333 29.7333 17.2333 29.0833 17.0333C28.6667 16.9 28.25 16.75 27.8333 16.6167C26.1 16.05 24.7333 16.7167 24.15 18.45C21.55 26.0667 18.9667 33.6833 16.3833 41.3C15.6167 43.5667 14.8333 45.8333 14.0667 48.1C13.4833 49.85 14.1333 51.1833 15.8833 51.7833C25.75 55.15 35.6 58.5 45.4667 61.85C47.3167 62.4833 48.6333 61.8167 49.2667 59.95C51.5167 53.35 53.75 46.7667 56 40.1667C56.0667 39.95 56.1333 39.7333 56.25 39.5333C56.4833 39.1 56.85 38.9 57.35 39.05C57.8333 39.2 58.05 39.55 58 40.05C57.9833 40.2333 57.9167 40.4167 57.85 40.5833C55.6 47.2167 53.3167 53.85 51.1 60.4833C50.4667 62.35 49.25 63.4667 47.3833 63.9667C46.8833 64 46.3833 64 45.8833 64Z" fill="#4C70B5"/>
<path d="M44.5167 59.1C43.4667 58.75 42.3834 58.4333 41.3667 58.0333C40.95 57.8667 40.8167 57.4333 40.9834 56.9667C41.1334 56.5167 41.4834 56.3 41.95 56.35C42.3 56.4 42.6167 56.55 42.9667 56.6333C43.65 56.7833 44.3334 56.9167 45.0167 57.0333C45.5334 57.1167 45.8667 57.35 45.9334 57.8833C46 58.4 45.6834 58.7833 45.1334 58.9C44.95 58.9333 44.7667 58.95 44.5834 58.9667C44.55 59 44.5334 59.05 44.5167 59.1Z" fill="#4C70B5"/>
<path d="M56.5334 31.3833C56.3168 31.7667 56.1834 32.2167 55.8834 32.4333C55.3334 32.8667 54.6001 32.4 54.4834 31.6833C54.4168 31.25 54.3334 30.8 54.1668 30.3833C53.9501 29.8 54.0501 29.3 54.5334 29.05C55.0168 28.8 55.5668 28.95 55.8334 29.5167C56.1168 30.0667 56.2834 30.6833 56.5334 31.3833Z" fill="#4C70B5"/>
<path d="M20.6998 40.1667C19.8831 40.1833 19.3998 39.65 19.5664 39.0667C19.7498 38.3833 19.9831 37.7167 20.2498 37.0667C20.4498 36.5833 20.8664 36.4167 21.3831 36.6C21.8831 36.7833 22.1164 37.1833 21.9831 37.6833C21.8164 38.35 21.5998 39 21.3164 39.6167C21.1831 39.8833 20.8331 40.05 20.6998 40.1667Z" fill="#4C70B5"/>
<path d="M18.6833 46C17.8833 46 17.4333 45.4667 17.5833 44.8667C17.75 44.2167 17.9833 43.5667 18.2333 42.9333C18.4333 42.4333 18.8667 42.2667 19.35 42.4C19.85 42.55 20.1167 42.95 19.9833 43.45C19.8 44.15 19.5667 44.8333 19.2833 45.5C19.1667 45.75 18.8167 45.9 18.6833 46Z" fill="#4C70B5"/>
<path d="M27.1165 51.7C27.0832 52.55 26.5332 52.9833 25.9332 52.8167C25.2998 52.6333 24.6665 52.4167 24.0498 52.1833C23.5165 51.9667 23.3165 51.45 23.5165 50.95C23.6998 50.5 24.1832 50.2833 24.6998 50.4333C25.2665 50.6167 25.8665 50.7667 26.3998 51.0333C26.7498 51.2 26.9665 51.55 27.1165 51.7Z" fill="#4C70B5"/>
<path d="M32.9333 53.7167C32.9166 54.5333 32.3666 54.9667 31.7666 54.8C31.1333 54.6167 30.5 54.4 29.8833 54.1667C29.3666 53.9667 29.1666 53.4833 29.3333 53.0167C29.5333 52.4833 29.95 52.2833 30.4666 52.4167C31.1 52.5833 31.75 52.7833 32.3333 53.0667C32.6333 53.2 32.8 53.5667 32.9333 53.7167Z" fill="#4C70B5"/>
<path d="M26.6502 22.75C25.8002 22.7667 25.3168 22.0333 25.6502 21.4167C26.0835 20.6 26.8002 20.05 27.6835 19.7833C28.1835 19.6333 28.5835 19.85 28.7835 20.35C28.9835 20.8333 28.8002 21.1833 28.4002 21.4833C27.9835 21.8 27.5668 22.15 27.1502 22.4667C26.9668 22.5833 26.7502 22.6833 26.6502 22.75Z" fill="#4C70B5"/>
<path d="M51.1168 47.5667C50.9001 48.15 50.6501 48.95 50.3001 49.6833C50.1001 50.1 49.5835 50.2 49.2168 49.95C48.9501 49.7667 48.6335 49.3 48.6835 49.0167C48.8168 48.2667 49.0835 47.5333 49.4335 46.8667C49.5668 46.6167 50.0835 46.4667 50.4168 46.4667C50.8668 46.4667 51.1335 46.9167 51.1168 47.5667Z" fill="#4C70B5"/>
<path d="M38.7501 55.6833C38.7668 56.4667 38.2502 56.9333 37.6335 56.7833C36.9502 56.6167 36.2835 56.3833 35.6335 56.1167C35.1668 55.9333 35.0168 55.5 35.1501 55.0333C35.2835 54.55 35.6502 54.2667 36.1335 54.3833C36.8668 54.5667 37.6002 54.8167 38.3002 55.1167C38.5335 55.2 38.6501 55.55 38.7501 55.6833Z" fill="#4C70B5"/>
<path d="M22.6666 34.3667C21.8499 34.3833 21.3666 33.8 21.5332 33.1833C21.7166 32.55 21.9332 31.9167 22.1832 31.3C22.3832 30.8 22.8832 30.6 23.3666 30.7667C23.8166 30.9167 24.0832 31.4167 23.9332 31.9333C23.7499 32.55 23.5832 33.1667 23.2999 33.75C23.1666 34.0333 22.8166 34.2333 22.6666 34.3667Z" fill="#4C70B5"/>
<path d="M51.7664 44.25C50.9664 44.2333 50.4998 43.6833 50.6664 43.1C50.8498 42.45 51.0664 41.8 51.3331 41.1667C51.5331 40.6667 52.0664 40.4667 52.5164 40.6833C52.9831 40.9 53.2164 41.2833 53.0664 41.8C52.8831 42.4333 52.6998 43.0833 52.4164 43.6667C52.2664 43.9333 51.9164 44.1167 51.7664 44.25Z" fill="#4C70B5"/>
<path d="M49.1498 53.35C48.9332 53.95 48.6832 54.75 48.3332 55.4833C48.1332 55.8833 47.6832 55.9833 47.2498 55.7833C46.8165 55.6 46.5832 55.2333 46.6998 54.7833C46.8832 54.0833 47.1165 53.4 47.3998 52.7333C47.5832 52.3 47.9832 52.15 48.4332 52.25C48.8832 52.3667 49.1165 52.6833 49.1498 53.35Z" fill="#4C70B5"/>
<path d="M24.6499 28.5333C23.7999 28.5167 23.3666 27.9833 23.5333 27.3667C23.7166 26.7167 23.9333 26.0667 24.1999 25.4333C24.3999 24.9667 24.8166 24.7667 25.3333 24.9333C25.8166 25.0833 26.0833 25.55 25.9333 26.0667C25.7499 26.6833 25.5833 27.3167 25.2999 27.8833C25.1499 28.2 24.7833 28.4 24.6499 28.5333Z" fill="#4C70B5"/>
<path d="M21.2831 49.9333C21.2831 50.5333 20.7165 51.05 20.1498 50.8333C19.4498 50.5667 18.7665 50.1833 18.1498 49.75C17.6665 49.4167 17.6831 48.8167 18.0331 48.4333C18.3831 48.05 18.8998 48.05 19.3831 48.3667C19.7498 48.6167 20.1665 48.8333 20.5665 49.0167C20.9831 49.2 21.2831 49.45 21.2831 49.9333Z" fill="#4C70B5"/>
<path d="M55.1998 35.6C54.8665 36.5167 54.6331 37.2833 54.2831 38.0167C54.0831 38.4333 53.6165 38.5 53.1998 38.35C52.7665 38.1833 52.5165 37.8167 52.6331 37.3667C52.8165 36.65 53.0665 35.9333 53.3498 35.2667C53.5331 34.85 53.9665 34.6333 54.3831 34.85C54.7165 35 54.9498 35.35 55.1998 35.6Z" fill="#4C70B5"/>
<path d="M31.9167 20.3667C32.8333 20.7167 33.65 20.9667 34.3833 21.35C34.6 21.4667 34.7333 22.0833 34.6167 22.3667C34.5 22.65 34 22.9833 33.7333 22.9333C32.9667 22.7833 32.2167 22.5333 31.5167 22.1667C31.2833 22.05 31.1 21.4833 31.1667 21.1667C31.2333 20.8667 31.6333 20.6333 31.9167 20.3667Z" fill="#4C70B5"/>
<path d="M38.0665 22.4833C38.6499 22.7 39.4499 22.95 40.1832 23.3C40.5999 23.5 40.6832 24.0333 40.4332 24.3833C40.2499 24.65 39.7832 24.95 39.4999 24.9C38.7832 24.7667 38.0665 24.5 37.3832 24.2167C36.9665 24.0333 36.7999 23.6333 36.9332 23.1833C37.0665 22.7167 37.3832 22.4833 38.0665 22.4833Z" fill="#4C70B5"/>
<path d="M48.5332 27.5167C48.5665 26.7667 49.0999 26.3167 49.6665 26.4667C50.3499 26.65 51.0165 26.8667 51.6665 27.1333C52.1499 27.3333 52.3165 27.7667 52.1499 28.2667C51.9832 28.75 51.5999 28.9833 51.1332 28.8667C50.4165 28.6833 49.6999 28.4333 49.0332 28.1333C48.7499 28.0167 48.6332 27.65 48.5332 27.5167Z" fill="#4C70B5"/>
<path d="M45.5666 27.0333C44.6499 26.7 43.8499 26.4667 43.1166 26.0833C42.8832 25.9667 42.7332 25.35 42.8332 25.0667C42.9332 24.7833 43.4499 24.45 43.7166 24.5C44.4832 24.6333 45.2499 24.9 45.9499 25.25C46.1832 25.3667 46.3666 25.9333 46.3166 26.25C46.2332 26.55 45.8332 26.7667 45.5666 27.0333Z" fill="#4C70B5"/>
</g>
<defs>
<clipPath id="clip0_877_1843">
<rect width="64" height="64" fill="white"/>
</clipPath>
</defs>
</svg>
