<svg width="64" height="64" viewBox="0 0 64 64" fill="none" xmlns="http://www.w3.org/2000/svg">
<g clip-path="url(#clip0_877_1868)">
<path d="M16.0938 64C16.0938 62.9393 16.1094 61.8786 16.1094 60.8179C16.1406 58.5562 17.5597 57.1367 19.8365 57.1367C20.6474 57.1367 21.4583 57.1367 22.316 57.1367C22.316 54.8438 22.316 52.5976 22.316 50.2579C22.0665 50.2579 21.817 50.2579 21.5831 50.2579C16.1094 50.2579 10.6513 50.2579 5.17763 50.2579C3.52461 50.2579 2.1211 49.7119 1.09186 48.3861C0.358918 47.4346 0.125 46.3427 0.125 45.1728C0.125 33.7548 0.125 22.3368 0.140595 10.9188C0.140595 10.4509 0.171784 9.95174 0.280945 9.49939C0.655214 7.93956 1.60648 6.86327 3.13475 6.19254C3.35307 6.78528 3.57139 7.33122 3.78972 7.90836C2.38621 8.62588 1.98075 9.79576 1.98075 11.2776C2.01194 20.0283 1.99635 28.7945 1.99635 37.5452C1.99635 37.7948 1.99635 38.0444 1.99635 38.3407C3.19712 38.3407 4.36672 38.3407 5.61428 38.3407C5.61428 25.6125 5.61428 12.8998 5.61428 0.155983C9.16983 0.155983 12.6474 0.155983 16.2186 0.155983C16.2186 12.8686 16.2186 25.5813 16.2186 38.3407C17.2946 38.3407 18.3082 38.3407 19.3687 38.3407C19.3687 38.0444 19.3687 37.7792 19.3687 37.514C19.3687 28.8413 19.3687 20.1687 19.3843 11.496C19.3843 11.0748 19.5246 10.5913 19.7429 10.2169C21.1308 7.83037 22.5655 5.47502 24.047 3.02608C24.1874 3.21326 24.2809 3.35364 24.3745 3.49403C25.7624 5.78698 27.1503 8.07994 28.5071 10.3885C28.6786 10.6849 28.741 11.0904 28.7566 11.4492C28.7722 20.1219 28.7722 28.7945 28.7722 37.4672C28.7722 37.7324 28.7722 37.9976 28.7722 38.3251C39.9067 38.3251 50.9944 38.3251 62.1601 38.3251C62.1601 38.0912 62.1601 37.8728 62.1601 37.6544C62.1601 28.7789 62.1601 19.8879 62.1601 11.0124C62.1601 8.82866 61.0529 7.73678 58.854 7.73678C49.1698 7.73678 39.47 7.73678 29.7858 7.73678C29.5363 7.73678 29.2868 7.73678 29.0061 7.73678C29.0061 7.11284 29.0061 6.53571 29.0061 5.86498C29.2244 5.86498 29.4739 5.86498 29.7078 5.86498C39.2517 5.86498 48.7956 5.91177 58.3394 5.83378C61.4271 5.80258 63.5168 7.25323 64.0314 9.98294C64.0314 22.0405 64.0314 34.1136 64.0314 46.1711C63.7351 46.8886 63.5324 47.6841 63.0958 48.3081C62.1133 49.7431 60.6474 50.2735 58.9476 50.2735C53.4895 50.2735 48.0158 50.2735 42.5578 50.2735C42.3238 50.2735 42.0743 50.2735 41.8404 50.2735C41.8404 52.6132 41.8404 54.8594 41.8404 57.1523C42.6981 57.1523 43.509 57.1523 44.3199 57.1523C46.5811 57.1679 48.0158 58.5718 48.0314 60.8491C48.047 61.9098 48.047 62.9705 48.047 64.0312C37.3804 64 26.7293 64 16.0938 64ZM62.1133 40.3061C42.0431 40.3061 22.0353 40.3061 2.01194 40.3061C2.01194 42.1623 1.96516 43.9717 2.02753 45.7811C2.07432 47.107 3.05677 48.1053 4.36672 48.3237C4.6942 48.3705 5.02169 48.3861 5.36477 48.3861C23.1581 48.3861 40.9671 48.3861 58.7605 48.3861C59.088 48.3861 59.431 48.3705 59.7585 48.3237C61.0685 48.1053 62.0509 47.1226 62.0977 45.7811C62.1601 43.9717 62.1133 42.1623 62.1133 40.3061ZM7.548 1.99659C7.548 2.72971 7.548 3.46283 7.548 4.25835C9.06067 4.25835 10.5422 4.25835 12.0392 4.25835C12.0392 4.89788 12.0392 5.47502 12.0392 6.11455C10.511 6.11455 9.02948 6.11455 7.548 6.11455C7.548 6.76968 7.548 7.36242 7.548 8.00195C8.4057 8.00195 9.20102 8.00195 10.0275 8.00195C10.0275 8.64148 10.0275 9.23422 10.0275 9.88935C9.15424 9.88935 8.34332 9.88935 7.53241 9.88935C7.53241 10.5445 7.53241 11.106 7.53241 11.7612C9.06067 11.7612 10.5422 11.7612 12.0236 11.7612C12.0236 12.4007 12.0236 12.9778 12.0236 13.6174C10.4954 13.6174 9.01389 13.6174 7.51681 13.6174C7.51681 14.2569 7.51681 14.834 7.51681 15.4892C8.35892 15.4892 9.18543 15.4892 10.0275 15.4892C10.0275 16.1443 10.0275 16.7058 10.0275 17.361C9.16984 17.361 8.35892 17.361 7.51681 17.361C7.51681 18.0161 7.51681 18.5776 7.51681 19.2328C9.02948 19.2328 10.511 19.2328 12.0236 19.2328C12.0236 19.8879 12.0236 20.4494 12.0236 21.1046C10.511 21.1046 9.02948 21.1046 7.53241 21.1046C7.53241 21.7753 7.53241 22.3524 7.53241 23.0076C8.39011 23.0076 9.18543 23.0076 10.0275 23.0076C10.0275 23.6315 10.0275 24.2086 10.0275 24.8638C9.18543 24.8638 8.35892 24.8638 7.51681 24.8638C7.51681 25.5189 7.51681 26.096 7.51681 26.7512C9.02948 26.7512 10.511 26.7512 12.0236 26.7512C12.0236 27.4063 12.0236 27.9678 12.0236 28.623C10.511 28.623 9.01389 28.623 7.51681 28.623C7.51681 29.2781 7.51681 29.8552 7.51681 30.5104C8.37451 30.5104 9.18543 30.5104 10.0275 30.5104C10.0275 31.1655 10.0275 31.7426 10.0275 32.3978C9.16984 32.3978 8.35892 32.3978 7.51681 32.3978C7.51681 33.0529 7.51681 33.63 7.51681 34.2696C7.78192 34.2696 8.00024 34.2696 8.21857 34.2696C9.32578 34.2696 10.4174 34.254 11.5246 34.2852C11.6961 34.2852 12.008 34.4723 12.0236 34.6127C12.086 35.0963 12.0548 35.5954 12.0548 36.1726C10.4954 36.1726 9.01389 36.1726 7.51681 36.1726C7.51681 36.9525 7.51681 37.6544 7.51681 38.3563C9.80921 38.3563 12.0548 38.3563 14.3004 38.3563C14.3004 26.2208 14.3004 14.1321 14.3004 2.02778C12.0392 1.99659 9.82481 1.99659 7.548 1.99659ZM39.8443 50.3047C34.6045 50.3047 29.4427 50.3047 24.2809 50.3047C24.2809 52.5976 24.2809 54.8438 24.2809 57.0899C29.4895 57.0899 34.6513 57.0899 39.8443 57.0899C39.8443 54.8126 39.8443 52.582 39.8443 50.3047ZM21.2712 33.3181C23.1114 33.3181 24.9515 33.3181 26.8073 33.3181C26.8073 26.486 26.8073 19.6539 26.8073 12.7438C26.0119 13.2274 25.2634 13.633 24.5616 14.1009C24.203 14.3349 23.9223 14.3661 23.5636 14.1165C22.8462 13.633 22.0821 13.2274 21.2712 12.7282C21.2712 19.6227 21.2712 26.4236 21.2712 33.3181ZM18.0119 62.0658C27.431 62.0658 36.7566 62.0658 46.1289 62.0658C46.1289 61.6135 46.1289 61.2235 46.1289 60.8335C46.1133 59.6169 45.4895 58.9929 44.2887 58.9929C41.8716 58.9929 39.47 58.9929 37.0529 58.9929C31.2985 58.9929 25.5441 58.9929 19.7897 58.9929C18.7917 58.9929 18.1211 59.4921 18.0119 60.3812C17.9652 60.9427 18.0119 61.5043 18.0119 62.0658ZM26.8229 38.3407C26.8229 37.2956 26.8229 36.3129 26.8229 35.299C24.9515 35.299 23.1269 35.299 21.2712 35.299C21.2712 36.3285 21.2712 37.3112 21.2712 38.3407C23.1269 38.3407 24.9515 38.3407 26.8229 38.3407ZM26.5266 10.7161C25.6845 9.32781 24.9047 8.01755 24.0626 6.6137C23.2049 8.04874 22.4252 9.359 21.5987 10.7161C22.394 11.184 23.1269 11.6364 23.8755 12.0731C23.9691 12.1355 24.1562 12.1199 24.2654 12.0575C24.9983 11.652 25.7312 11.1996 26.5266 10.7161Z" fill="#4C70B5"/>
<path d="M60.2108 20.1999C52.9282 20.1999 45.6923 20.1999 38.4097 20.1999C38.4097 16.6902 38.4097 13.1962 38.4097 9.67097C45.6611 9.67097 52.9282 9.67097 60.2108 9.67097C60.2108 13.1494 60.2108 16.6434 60.2108 20.1999ZM58.3551 11.5116C52.3044 11.5116 46.3005 11.5116 40.3122 11.5116C40.3122 13.8045 40.3122 16.0507 40.3122 18.2969C46.3629 18.2969 52.3512 18.2969 58.3551 18.2969C58.3551 16.0195 58.3551 13.8045 58.3551 11.5116Z" fill="#4C70B5"/>
<path d="M30.7061 36.4533C30.7061 35.845 30.7061 35.2835 30.7061 34.6439C31.3142 34.6439 31.8912 34.6439 32.515 34.6439C32.515 26.8915 32.515 19.2328 32.515 11.496C31.9224 11.496 31.3298 11.496 30.7217 11.496C30.7217 10.8564 30.7217 10.2793 30.7217 9.65537C32.5462 9.65537 34.3864 9.65537 36.2733 9.65537C36.2733 10.2325 36.2733 10.8097 36.2733 11.4492C35.7119 11.4492 35.1193 11.4492 34.4799 11.4492C34.4799 19.186 34.4799 26.8447 34.4799 34.5971C35.0569 34.5971 35.6495 34.5971 36.2733 34.5971C36.2733 35.2523 36.2733 35.8294 36.2733 36.4533C34.4332 36.4533 32.593 36.4533 30.7061 36.4533Z" fill="#4C70B5"/>
<path d="M48.3434 22.1496C48.3434 24.427 48.3434 26.6576 48.3434 28.9349C45.0374 28.9349 41.7469 28.9349 38.4253 28.9349C38.4253 26.6732 38.4253 24.427 38.4253 22.1496C41.7469 22.1496 45.0218 22.1496 48.3434 22.1496ZM46.4877 24.037C44.3824 24.037 42.3395 24.037 40.3122 24.037C40.3122 25.0821 40.3122 26.0648 40.3122 27.0631C42.4019 27.0631 44.4292 27.0631 46.4877 27.0631C46.4877 26.0336 46.4877 25.0509 46.4877 24.037Z" fill="#4C70B5"/>
<path d="M60.2106 28.9505C56.9046 28.9505 53.6297 28.9505 50.3081 28.9505C50.3081 26.7044 50.3081 24.4426 50.3081 22.1496C53.583 22.1496 56.8734 22.1496 60.2106 22.1496C60.2106 24.4114 60.2106 26.6576 60.2106 28.9505ZM52.1639 27.0787C54.2379 27.0787 56.2652 27.0787 58.3237 27.0787C58.3237 26.0492 58.3237 25.0353 58.3237 24.0214C56.2496 24.0214 54.2223 24.0214 52.1639 24.0214C52.1639 25.0353 52.1639 26.018 52.1639 27.0787Z" fill="#4C70B5"/>
<path d="M39.3296 31.5243C40.7643 31.5243 42.1678 31.5243 43.6181 31.5243C43.6181 32.117 43.6181 32.7097 43.6181 33.3181C42.1834 33.3181 40.7643 33.3181 39.3296 33.3181C39.3296 32.7097 39.3296 32.1326 39.3296 31.5243Z" fill="#4C70B5"/>
<path d="M51.2285 31.5243C52.6476 31.5243 54.0511 31.5243 55.5014 31.5243C55.5014 32.117 55.5014 32.7097 55.5014 33.3337C54.0823 33.3337 52.6788 33.3337 51.2285 33.3337C51.2285 32.7565 51.2285 32.1794 51.2285 31.5243Z" fill="#4C70B5"/>
<path d="M45.5986 31.5243C46.1914 31.5243 46.7685 31.5243 47.3768 31.5243C47.3768 32.1326 47.3768 32.7097 47.3768 33.3337C46.7841 33.3337 46.207 33.3337 45.5986 33.3337C45.5986 32.7409 45.5986 32.1794 45.5986 31.5243Z" fill="#4C70B5"/>
<path d="M59.2757 33.3337C58.6362 33.3337 58.0746 33.3337 57.4663 33.3337C57.4663 32.7253 57.4663 32.1638 57.4663 31.5398C58.0746 31.5398 58.6518 31.5398 59.2757 31.5398C59.2757 32.1326 59.2757 32.7097 59.2757 33.3337Z" fill="#4C70B5"/>
<path d="M32.952 45.2352C32.3281 45.2352 31.7666 45.2352 31.1738 45.2352C31.1738 44.6269 31.1738 44.0341 31.1738 43.4102C31.7666 43.4102 32.3437 43.4102 32.952 43.4102C32.952 44.0185 32.952 44.5957 32.952 45.2352Z" fill="#4C70B5"/>
<path d="M27.3999 45.2508C27.3999 44.6113 27.3999 44.0497 27.3999 43.4258C27.9926 43.4258 28.5854 43.4258 29.2405 43.4258C29.2405 43.9249 29.2717 44.4241 29.2249 44.9076C29.2093 45.0324 28.9909 45.2196 28.8505 45.2352C28.3982 45.282 27.9458 45.2508 27.3999 45.2508Z" fill="#4C70B5"/>
<path d="M36.7103 43.4414C36.7103 44.0653 36.7103 44.6269 36.7103 45.2352C36.102 45.2352 35.5404 45.2352 34.9165 45.2352C34.9165 44.6425 34.9165 44.0653 34.9165 43.4414C35.4936 43.4414 36.0708 43.4414 36.7103 43.4414Z" fill="#4C70B5"/>
<path d="M23.1582 16.4718C23.7821 16.4718 24.3593 16.4718 24.952 16.4718C24.952 18.5308 24.952 20.5586 24.952 22.6332C24.3593 22.6332 23.7665 22.6332 23.1582 22.6332C23.1582 20.5898 23.1582 18.562 23.1582 16.4718Z" fill="#4C70B5"/>
<path d="M24.9364 31.4151C24.3281 31.4151 23.7665 31.4151 23.1582 31.4151C23.1582 30.4012 23.1582 29.3873 23.1582 28.3422C23.7353 28.3422 24.3125 28.3422 24.9364 28.3422C24.9364 29.3405 24.9364 30.3544 24.9364 31.4151Z" fill="#4C70B5"/>
<path d="M23.1582 26.3924C23.1582 25.7997 23.1582 25.2381 23.1582 24.6142C23.7509 24.6142 24.3437 24.6142 24.952 24.6142C24.952 25.2069 24.952 25.7685 24.952 26.3924C24.3593 26.3924 23.7821 26.3924 23.1582 26.3924Z" fill="#4C70B5"/>
</g>
<defs>
<clipPath id="clip0_877_1868">
<rect width="64" height="64" fill="white"/>
</clipPath>
</defs>
</svg>
