<svg width="64" height="64" viewBox="0 0 64 64" fill="none" xmlns="http://www.w3.org/2000/svg">
<g clip-path="url(#clip0_877_1890)">
<path d="M46.5715 0C47.0706 0.274464 47.632 0.48655 48.0686 0.835867C48.8421 1.45965 49.129 2.34542 49.129 3.31852C49.129 3.95478 49.129 4.59103 49.129 5.31462C50.2768 5.31462 51.3497 5.30214 52.4226 5.31462C53.0464 5.3271 53.6827 5.28967 54.2815 5.41443C56.2651 5.82612 57.6 7.49786 57.6374 9.56881C57.6624 11.2281 57.6374 12.8873 57.6374 14.5466C57.6374 22.2441 57.6374 29.9415 57.625 37.639C57.625 38.1006 57.7622 38.375 58.1489 38.6495C61.3053 40.9076 63.3138 43.9641 63.8129 47.8066C64.9856 56.7641 58.6729 62.8647 51.7864 63.6257C45.4113 64.3368 39.4979 60.7314 37.2647 54.7556C37.0901 54.2815 36.878 54.1442 36.3789 54.1442C25.8121 54.1567 15.2577 54.1567 4.69084 54.1567C2.38284 54.1567 0.673683 52.7595 0.299414 50.5637C0.249512 50.2768 0.249512 49.9649 0.249512 49.653C0.249512 36.3914 0.249512 23.1298 0.249512 9.86823C0.249512 7.08616 2.00858 5.3271 4.80312 5.3271C6.08811 5.3271 7.3731 5.3271 8.74542 5.3271C8.74542 4.85302 8.74542 4.41637 8.74542 3.9922C8.74542 1.64678 9.24444 0.88577 11.3404 0C12.0889 0 12.8374 0 13.586 0C15.6569 0.823392 16.2058 1.63431 16.2058 3.8924C16.2058 4.354 16.2058 4.82807 16.2058 5.26472C19.0877 5.26472 21.8698 5.26472 24.7018 5.26472C24.7018 4.55361 24.6893 3.8924 24.7018 3.23119C24.7267 2.25809 25.0511 1.3848 25.837 0.785965C26.2737 0.449123 26.7977 0.261988 27.2967 0C28.0452 0 28.7938 0 29.5423 0C32.2994 0.798441 32.2869 3.00663 32.1372 5.27719C35.3809 5.27719 38.5372 5.27719 41.7435 5.27719C41.7435 4.51618 41.731 3.81754 41.7435 3.11891C41.7559 2.07096 42.2051 1.23509 43.0534 0.636257C43.4152 0.374269 43.8519 0.224561 44.2511 0.0124756C44.9996 0 45.7856 0 46.5715 0ZM2.37037 19.1626C2.37037 19.3996 2.37037 19.5992 2.37037 19.7988C2.37037 29.7419 2.37037 39.6725 2.37037 49.6156C2.37037 51.2374 3.19376 52.0483 4.82807 52.0483C15.1579 52.0483 25.4877 52.0483 35.8175 52.0483C36.0421 52.0483 36.2542 52.0483 36.5037 52.0483C35.9548 46.7462 37.5392 42.3423 41.6936 39.0862C45.848 35.83 50.5263 35.331 55.4667 37.1275C55.4667 31.0893 55.4667 25.1384 55.4667 19.1626C37.7637 19.1626 20.0982 19.1626 2.37037 19.1626ZM55.4916 16.9544C55.4916 14.3844 55.5415 11.8519 55.4667 9.33177C55.4292 8.20897 54.506 7.4729 53.3708 7.44795C52.46 7.43548 51.5493 7.44795 50.6261 7.44795C50.1396 7.44795 49.653 7.44795 49.0916 7.44795C49.0916 8.33372 49.1415 9.13216 49.0791 9.90565C48.9669 11.253 47.9688 12.3883 46.6589 12.6503C46.1598 12.7501 45.6234 12.7376 45.1119 12.7376C42.991 12.7251 41.706 11.4402 41.6936 9.3193C41.6936 8.70799 41.6936 8.09669 41.6936 7.48538C38.4499 7.48538 35.306 7.48538 32.1123 7.48538C32.1123 8.23392 32.1248 8.93255 32.1123 9.63119C32.0749 11.0908 31.0768 12.3384 29.6795 12.6378C29.1805 12.7501 28.6441 12.7251 28.1326 12.7251C25.9867 12.7251 24.6768 11.4152 24.6643 9.28187C24.6643 8.68304 24.6643 8.09669 24.6643 7.4729C21.8074 7.4729 19.0129 7.4729 16.1684 7.4729C16.1684 8.20897 16.1809 8.9076 16.1684 9.61871C16.131 11.0784 15.1454 12.3259 13.7481 12.6378C13.2117 12.7501 12.6378 12.7376 12.0764 12.7251C10.0554 12.7127 8.74542 11.3778 8.73294 9.35673C8.73294 8.74542 8.73294 8.12164 8.73294 7.43548C7.34815 7.43548 6.02573 7.43548 4.70331 7.43548C3.19376 7.46043 2.37037 8.2963 2.37037 9.81832C2.37037 12.014 2.37037 14.2222 2.37037 16.4179C2.37037 16.5926 2.39532 16.7797 2.4078 16.9669C20.1232 16.9544 37.7887 16.9544 55.4916 16.9544ZM61.8916 49.9899C61.9041 43.5025 56.6768 38.2378 50.2144 38.2378C43.7895 38.2378 38.5123 43.4776 38.4873 49.8901C38.4624 56.3524 43.7146 61.6296 50.1645 61.6296C56.6269 61.6296 61.8791 56.4148 61.8916 49.9899ZM14.06 6.41248C14.06 5.40195 14.0725 4.37895 14.06 3.36842C14.0476 2.54503 13.6608 2.14581 12.8499 2.12086C12.6378 2.12086 12.4382 2.12086 12.2261 2.12086C11.2405 2.13333 10.8663 2.49513 10.8663 3.46823C10.8538 5.38947 10.8538 7.3232 10.8663 9.24444C10.8663 10.2425 11.2281 10.5918 12.2136 10.6043C12.4008 10.6043 12.5879 10.6043 12.775 10.6043C13.6858 10.5918 14.06 10.23 14.0725 9.3193C14.0725 8.35867 14.06 7.38558 14.06 6.41248ZM30.0039 6.37505C30.0039 5.36452 30.0164 4.34152 30.0039 3.33099C29.9914 2.54503 29.5922 2.14581 28.8187 2.12086C28.5442 2.10838 28.2823 2.10838 28.0078 2.12086C27.2343 2.14581 26.8226 2.53255 26.8101 3.31852C26.7977 5.35205 26.7977 7.38558 26.8101 9.40663C26.8226 10.2051 27.2094 10.5793 28.0078 10.6043C28.2573 10.6168 28.5068 10.6043 28.7563 10.6043C29.6296 10.5918 30.0039 10.2175 30.0164 9.34425C30.0164 8.35868 30.0039 7.3731 30.0039 6.37505ZM43.8269 6.36257C43.8269 7.39805 43.8144 8.43353 43.8269 9.46901C43.8394 10.2051 44.2136 10.5793 44.9248 10.6168C45.1493 10.6292 45.3864 10.6168 45.6109 10.6168C46.6589 10.6043 46.9957 10.2799 46.9957 9.24444C47.0082 7.36062 46.9957 5.4768 46.9957 3.59298C46.9957 2.44522 46.6713 2.12086 45.5111 2.12086C45.3489 2.12086 45.1743 2.12086 45.0121 2.12086C44.2261 2.14581 43.8269 2.53255 43.8144 3.31852C43.8144 4.32904 43.8269 5.33957 43.8269 6.36257Z" fill="#4C70B5"/>
<path d="M43.8267 22.3064C44.8247 22.3064 45.8228 22.294 46.8208 22.3064C48.2181 22.3189 49.1039 23.1423 49.1288 24.5271C49.1538 26.5981 49.1538 28.6815 49.1288 30.7524C49.1039 32.0873 48.2555 32.9232 46.9206 32.9357C44.8622 32.9606 42.8162 32.9606 40.7577 32.9357C39.3604 32.9232 38.5121 32.0499 38.4996 30.6651C38.4871 28.6565 38.4871 26.6355 38.4996 24.6269C38.5121 23.1797 39.3854 22.3189 40.845 22.3064C41.8306 22.294 42.8286 22.3064 43.8267 22.3064ZM46.9581 24.4647C44.8372 24.4647 42.7538 24.4647 40.6579 24.4647C40.6579 26.5856 40.6579 28.669 40.6579 30.7524C42.7912 30.7524 44.8622 30.7524 46.9581 30.7524C46.9581 28.6316 46.9581 26.5731 46.9581 24.4647Z" fill="#4C70B5"/>
<path d="M14.0227 32.9482C13.0246 32.9482 12.0266 32.9606 11.0285 32.9482C9.59381 32.9232 8.74547 32.0624 8.73299 30.6526C8.72051 28.6441 8.72051 26.623 8.73299 24.6144C8.74547 23.2047 9.61876 22.3314 11.041 22.3189C13.0496 22.3064 15.0706 22.3064 17.0792 22.3189C18.464 22.3314 19.3498 23.1797 19.3622 24.5645C19.3872 26.623 19.3872 28.669 19.3622 30.7275C19.3498 32.0873 18.4889 32.9232 17.1166 32.9482C16.0936 32.9606 15.0581 32.9482 14.0227 32.9482ZM17.2039 24.4772C15.0706 24.4772 12.9997 24.4772 10.8913 24.4772C10.8913 26.5856 10.8913 28.6565 10.8913 30.7649C13.0121 30.7649 15.0956 30.7649 17.2039 30.7649C17.2039 28.6441 17.2039 26.5606 17.2039 24.4772Z" fill="#4C70B5"/>
<path d="M23.6413 27.5836C23.6413 26.5482 23.6288 25.5127 23.6413 24.4772C23.6662 23.2421 24.5146 22.3439 25.7497 22.3189C27.8705 22.294 29.9789 22.294 32.0998 22.3189C33.3723 22.3314 34.2456 23.2421 34.2456 24.5022C34.2581 26.5981 34.2581 28.694 34.2456 30.7899C34.2331 31.9751 33.4347 32.8983 32.262 32.9232C30.0413 32.9731 27.8206 32.9731 25.6 32.9232C24.4397 32.8983 23.6662 32 23.6413 30.8273C23.6288 29.7419 23.6413 28.6565 23.6413 27.5836ZM25.812 24.4647C25.812 26.5981 25.812 28.6815 25.812 30.7774C27.9329 30.7774 29.9914 30.7774 32.0748 30.7774C32.0748 28.6441 32.0748 26.5606 32.0748 24.4647C29.954 24.4647 27.8955 24.4647 25.812 24.4647Z" fill="#4C70B5"/>
<path d="M14.0476 45.6982C13.0371 45.6982 12.0141 45.7107 11.0036 45.6982C9.66869 45.6858 8.77045 44.825 8.75797 43.4776C8.73302 41.4066 8.73302 39.3232 8.75797 37.2522C8.77045 35.9673 9.63127 35.094 10.9163 35.0815C13.0371 35.0565 15.1455 35.0565 17.2664 35.0815C18.4765 35.094 19.3373 35.8924 19.3747 37.0901C19.4246 39.2733 19.4246 41.4441 19.3747 43.6273C19.3498 44.8749 18.4266 45.6733 17.179 45.6858C16.1186 45.6983 15.0831 45.6982 14.0476 45.6982ZM10.9038 37.2398C10.9038 39.3482 10.9038 41.4316 10.9038 43.54C13.0246 43.54 15.0956 43.54 17.2165 43.54C17.2165 41.4316 17.2165 39.3482 17.2165 37.2398C15.0956 37.2398 13.0246 37.2398 10.9038 37.2398Z" fill="#4C70B5"/>
<path d="M23.6413 40.3587C23.6413 39.3232 23.6288 38.2877 23.6413 37.2522C23.6538 35.9548 24.4896 35.094 25.7871 35.0815C27.883 35.0565 29.9789 35.0565 32.0748 35.0815C33.3972 35.094 34.2456 35.9673 34.2456 37.2897C34.2581 39.3482 34.2581 41.3942 34.2456 43.4526C34.2456 44.8 33.3598 45.6858 32.0374 45.6982C29.9789 45.7107 27.9329 45.7107 25.8744 45.6982C24.5271 45.6858 23.6538 44.825 23.6413 43.4776C23.6288 42.4421 23.6413 41.3942 23.6413 40.3587ZM25.812 37.2273C25.812 39.3856 25.812 41.4565 25.812 43.515C27.9454 43.515 30.0163 43.515 32.0748 43.515C32.0748 41.3817 32.0748 39.2982 32.0748 37.2273C29.9664 37.2273 27.8955 37.2273 25.812 37.2273Z" fill="#4C70B5"/>
<path d="M6.61231 47.8191C7.67274 47.8191 8.62089 47.8191 9.58152 47.8191C10.3924 47.8191 10.8416 48.1934 10.854 48.8546C10.8665 49.5407 10.4049 49.9275 9.55656 49.94C8.58346 49.94 7.61036 49.9524 6.63727 49.94C5.41465 49.915 4.51641 49.0417 4.49146 47.8191C4.46651 46.4468 4.47898 45.0869 4.49146 43.7146C4.50393 42.991 4.94058 42.5045 5.56436 42.517C6.18814 42.517 6.59984 42.991 6.61231 43.7271C6.62479 45.062 6.61231 46.4094 6.61231 47.8191Z" fill="#4C70B5"/>
<path d="M14.5467 49.94C14.397 49.94 14.2598 49.94 14.1101 49.94C13.4364 49.9025 12.9873 49.4659 12.9998 48.8546C13.0122 48.2682 13.4614 47.8565 14.0976 47.8191C14.4345 47.8066 14.7588 47.8066 15.0957 47.8191C15.7319 47.8565 16.1811 48.2932 16.1811 48.8671C16.1811 49.4534 15.7444 49.8901 15.1081 49.9275C14.921 49.94 14.7339 49.94 14.5467 49.94Z" fill="#4C70B5"/>
<path d="M6.6121 38.8242C6.6121 39.0113 6.62458 39.1984 6.6121 39.3856C6.5622 39.9345 6.18793 40.3088 5.66396 40.3587C5.11503 40.3961 4.616 40.0717 4.54115 39.5103C4.47877 39.0487 4.47877 38.5622 4.52867 38.0881C4.59105 37.5267 5.06513 37.1774 5.62653 37.2148C6.18793 37.2398 6.5622 37.6265 6.6121 38.2129C6.62458 38.4125 6.6121 38.6246 6.6121 38.8242Z" fill="#4C70B5"/>
<path d="M47.7815 52.5973C48.3055 52.0234 48.7921 51.4994 49.2786 50.963C51.0502 49.0168 52.8217 47.0706 54.5808 45.1119C54.9675 44.6877 55.4166 44.4756 55.9656 44.7376C56.4272 44.9622 56.6392 45.3614 56.527 45.8729C56.4771 46.0975 56.3398 46.3345 56.1776 46.5092C53.67 49.2788 51.1749 52.0359 48.6548 54.793C48.081 55.4168 47.4821 55.4043 46.8958 54.7805C45.9726 53.7949 45.0743 52.7969 44.1761 51.7864C43.7145 51.2624 43.727 50.6511 44.1636 50.2269C44.6252 49.7778 45.2365 49.8152 45.748 50.3641C46.4092 51.1002 47.0704 51.8363 47.7815 52.5973Z" fill="#4C70B5"/>
</g>
<defs>
<clipPath id="clip0_877_1890">
<rect width="64" height="64" fill="white"/>
</clipPath>
</defs>
</svg>
