<svg width="64" height="64" viewBox="0 0 64 64" fill="none" xmlns="http://www.w3.org/2000/svg">
<g clip-path="url(#clip0_877_1902)">
<path d="M64.0001 45.1284C63.7001 45.6952 63.2167 45.8619 62.6001 45.8453C61.6667 45.8119 60.7334 45.8453 59.7501 45.8453C59.6501 47.9291 58.8834 49.6463 57.2501 50.9133C56.0334 51.8635 54.6501 52.2969 53.1167 52.2469C50.4834 52.1636 47.2501 50.1964 46.9834 45.8953C39.5001 45.8953 32.0167 45.8953 24.4667 45.8953C24.3667 48.0792 23.4834 49.8797 21.6834 51.13C20.4667 51.9802 19.0834 52.347 17.6001 52.2303C14.8001 51.9969 11.9334 49.8463 11.7167 45.8786C11.5001 45.8619 11.2834 45.8453 11.0667 45.8453C9.65006 45.8453 8.2334 45.8453 6.81673 45.8453C5.01673 45.8453 4.26673 45.0951 4.25006 43.3113C4.25006 42.7445 4.25006 42.1943 4.25006 41.5442C3.25007 41.5442 2.30007 41.5108 1.35007 41.5608C0.750065 41.5775 0.300065 41.4108 -0.0166016 40.8773C-0.0166016 40.6773 -0.0166016 40.4605 -0.0166016 40.2438C0.266732 39.7437 0.683398 39.527 1.26673 39.527C4.2834 39.5436 7.30006 39.527 10.3334 39.527C10.4334 39.527 10.5501 39.527 10.6501 39.5436C11.2501 39.6103 11.6334 40.0271 11.6167 40.5772C11.6001 41.1107 11.2001 41.5275 10.5834 41.5275C9.40006 41.5441 8.21673 41.5275 7.01673 41.5442C6.80006 41.5442 6.56673 41.5442 6.30006 41.5442C6.30006 42.3277 6.30006 43.0445 6.30006 43.8447C7.00006 43.8447 7.6834 43.8447 8.36673 43.8447C9.45006 43.8447 10.5334 43.8281 11.6167 43.8447C11.9667 43.8447 12.1167 43.7281 12.2667 43.4113C13.4167 40.9273 15.3834 39.5603 18.1167 39.5603C20.8167 39.577 22.7667 40.9273 23.9167 43.3946C24.0501 43.6947 24.2001 43.8447 24.5501 43.8447C31.2001 43.8281 37.8334 43.8281 44.4834 43.8281C44.5834 43.8281 44.6834 43.8114 44.8501 43.7947C44.8667 43.5613 44.8834 43.3279 44.8834 43.1112C44.8834 40.9273 44.8667 38.7434 44.9001 36.5428C44.9001 36.1594 45.1167 35.6593 45.4001 35.4259C46.0167 34.9258 46.8667 35.4759 46.8834 36.3428C46.9001 37.8265 46.8834 39.2936 46.8834 40.7773C46.8834 41.6108 46.8667 42.4444 46.9001 43.2779C46.9001 43.4613 47.0167 43.628 47.0834 43.7947C47.2334 43.6614 47.4501 43.5613 47.5334 43.3946C48.4167 41.5108 49.8167 40.2438 51.8501 39.727C54.8334 38.9768 57.8667 40.4439 59.1334 43.2613C59.3167 43.678 59.5334 43.8614 60.0001 43.8281C60.6334 43.7781 61.2834 43.8114 61.9501 43.8114C61.9501 42.311 61.9501 40.894 61.9501 39.3769C61.5167 39.3769 61.1167 39.3936 60.7001 39.3769C59.0501 39.2936 57.7667 38.0099 57.7167 36.3595C57.7001 35.6593 57.7001 34.9424 57.7167 34.2422C57.7334 33.5087 58.0834 33.142 58.8501 33.1253C59.8001 33.1086 60.7501 33.1253 61.7167 33.1253C61.5334 32.0083 60.3501 30.908 59.0834 30.8914C55.0501 30.8414 51.0001 30.8747 46.8834 30.8747C46.8834 31.2415 46.9001 31.5916 46.8834 31.9417C46.8501 32.5751 46.4501 32.9919 45.8834 32.9919C45.3501 32.9919 44.9501 32.5918 44.8834 31.9917C44.8667 31.8083 44.8834 31.6249 44.8834 31.4248C44.8834 25.8067 44.8834 20.1719 44.8834 14.5538C44.8834 14.3037 44.8834 14.0703 44.8834 13.7869C32.0001 13.7869 19.1834 13.7869 6.26673 13.7869C6.26673 14.0537 6.26673 14.2871 6.26673 14.5371C6.26673 20.1386 6.26673 25.74 6.26673 31.3582C6.26673 31.5249 6.26673 31.6916 6.26673 31.8583C6.25006 32.5585 5.8834 32.9919 5.31673 33.0086C4.71673 33.0253 4.2834 32.5751 4.2834 31.8583C4.26673 29.6577 4.2834 27.4405 4.2834 25.2399C4.2834 21.5556 4.2834 17.8713 4.2834 14.1704C4.2834 12.5533 5.10006 11.7697 6.71673 11.7697C19.3167 11.7697 31.9167 11.7697 44.5167 11.7697C46.1167 11.7697 46.9001 12.5533 46.9001 14.137C46.9001 14.7372 46.9001 15.3373 46.9001 16.0042C47.1667 16.0208 47.3834 16.0375 47.6001 16.0375C49.7501 16.0375 51.9001 16.0875 54.0334 16.0208C56.7334 15.9542 59.0834 17.8213 58.6167 21.4723C58.5667 21.8057 58.2167 22.1058 57.9334 22.5225C58.4167 24.423 58.9167 26.5069 59.4501 28.5741C59.4834 28.7408 59.6834 28.9409 59.8334 28.9742C62.0667 29.5577 63.4334 30.9581 63.9167 33.2086C63.9334 33.2587 63.9667 33.3253 64.0001 33.3754C64.0001 37.293 64.0001 41.2107 64.0001 45.1284ZM57.4001 28.8408C57.3667 28.6408 57.3501 28.4907 57.3001 28.324C56.8501 26.5236 56.4001 24.7398 55.9667 22.9393C55.8667 22.4725 55.6834 22.3058 55.1834 22.3058C52.6501 22.3391 50.1001 22.3225 47.5667 22.3225C47.3667 22.3225 47.1667 22.3391 46.9501 22.3558C46.9501 24.5564 46.9501 26.6903 46.9501 28.8408C50.4501 28.8408 53.9001 28.8408 57.4001 28.8408ZM53.3667 50.2464C55.7334 50.2464 57.7001 48.2959 57.7167 45.9286C57.7334 43.5447 55.7334 41.5442 53.3501 41.5608C50.9667 41.5775 49.0167 43.5447 49.0167 45.912C49.0334 48.2792 51.0001 50.2464 53.3667 50.2464ZM18.0834 50.2464C20.4667 50.2631 22.4167 48.3293 22.4501 45.9453C22.4834 43.5613 20.5001 41.5608 18.1001 41.5608C15.7167 41.5608 13.7667 43.5113 13.7667 45.8953C13.7501 48.2626 15.7167 50.2297 18.0834 50.2464ZM46.9334 18.0214C46.9334 18.8216 46.9334 19.5217 46.9334 20.2553C50.1834 20.2553 53.4001 20.2553 56.6001 20.2553C56.6501 18.9716 55.7001 18.038 54.3334 18.0214C52.6667 18.0047 51.0001 18.0214 49.3334 18.0214C48.5501 18.0214 47.7667 18.0214 46.9334 18.0214ZM61.9667 37.3264C61.9667 36.6095 61.9667 35.9093 61.9667 35.1758C61.2167 35.1758 60.5001 35.1758 59.8001 35.1758C59.5501 37.1097 60.0834 37.6265 61.9667 37.3264Z" fill="#4C70B5"/>
<path d="M24.4665 30.658C25.6165 29.5077 26.6499 28.4574 27.6999 27.4071C29.5332 25.5566 31.3832 23.7228 33.2165 21.889C33.3499 21.7557 33.4832 21.6223 33.6499 21.5223C34.0832 21.2722 34.4999 21.3389 34.8499 21.689C35.1832 22.0224 35.2499 22.4225 35.0165 22.8393C34.8999 23.0393 34.7499 23.206 34.5832 23.3727C31.5665 26.3902 28.5499 29.4243 25.5332 32.4418C24.7332 33.242 24.3332 33.2253 23.5499 32.4418C21.9332 30.8247 20.2999 29.2076 18.6999 27.5738C18.4665 27.3238 18.2165 26.9237 18.2332 26.6236C18.2499 26.3235 18.5499 25.9568 18.8332 25.7734C19.2665 25.5066 19.6665 25.74 19.9999 26.0735C21.3332 27.3905 22.6499 28.7241 23.9832 30.0578C24.1332 30.1912 24.2499 30.3912 24.4665 30.658Z" fill="#4C70B5"/>
<path d="M34.1832 41.5442C31.8332 41.5442 29.4832 41.5442 27.1165 41.5442C26.8832 41.5442 26.6498 41.5608 26.4332 41.5108C25.9332 41.4108 25.5998 41.044 25.6832 40.5939C25.7332 40.2438 26.0498 39.8937 26.3332 39.6437C26.4832 39.5103 26.8165 39.5436 27.0498 39.5436C31.7832 39.5436 36.4998 39.5436 41.2332 39.5436C41.3832 39.5436 41.5332 39.5436 41.6665 39.5603C42.2498 39.6437 42.6332 40.0771 42.5998 40.6106C42.5665 41.1274 42.1832 41.5108 41.5998 41.5275C40.8165 41.5442 40.0165 41.5442 39.2332 41.5442C37.5665 41.5442 35.8832 41.5442 34.1832 41.5442Z" fill="#4C70B5"/>
<path d="M9.56663 37.2597C7.49997 37.2597 5.44997 37.2597 3.3833 37.2597C2.5833 37.2597 2.1333 36.8929 2.1333 36.2761C2.1333 35.6593 2.59997 35.2759 3.3833 35.2592C7.49997 35.2592 11.6333 35.2592 15.75 35.2592C16.5 35.2592 17 35.6926 16.9666 36.2928C16.95 36.8929 16.5 37.2597 15.75 37.2597C13.6833 37.2764 11.6333 37.2597 9.56663 37.2597Z" fill="#4C70B5"/>
<path d="M55.4502 45.9119C55.4336 47.0456 54.4836 47.9791 53.3669 47.9791C52.2336 47.9625 51.3169 47.0122 51.3169 45.8786C51.3336 44.7283 52.2502 43.8281 53.4002 43.8447C54.5502 43.8447 55.4669 44.7783 55.4502 45.9119Z" fill="#4C70B5"/>
<path d="M18.1168 43.8447C19.2668 43.8614 20.1668 44.7616 20.1502 45.9286C20.1335 47.0789 19.2002 47.9958 18.0668 47.9791C16.9502 47.9625 16.0002 46.9956 16.0168 45.8786C16.0502 44.7283 16.9668 43.8281 18.1168 43.8447Z" fill="#4C70B5"/>
</g>
<defs>
<clipPath id="clip0_877_1902">
<rect width="64" height="64" fill="white"/>
</clipPath>
</defs>
</svg>
