<svg width="64" height="64" viewBox="0 0 64 64" fill="none" xmlns="http://www.w3.org/2000/svg">
<g clip-path="url(#clip0_928_876)">
<path d="M63.7478 22.952C63.6806 22.7167 63.5798 22.4815 63.4958 22.2799C61.4123 17.088 58.7407 11.9801 55.5483 7.09059C54.5233 5.52797 53.28 4.41902 51.7174 3.66291C51.667 3.64611 51.6334 3.61251 51.5829 3.5957L51.4989 3.5453C48.1889 1.84826 44.3243 0.722509 39.3509 0.0168118C39.0988 -0.0167928 38.8132 0.0336141 38.5948 0.15123C37.2338 0.890532 35.6376 1.29379 33.6213 1.42821C31.2858 1.57943 28.2277 1.57943 25.4049 0.15123C25.1697 0.0336141 24.8673 9.49344e-06 24.5816 0.0336141L23.9599 0.134428C22.8342 0.319253 21.6748 0.504079 20.5323 0.756113C16.5165 1.64664 13.4249 2.8396 10.8373 4.53663C10.1821 4.97349 9.57717 5.54477 9.15711 6.13285C6.06549 10.5015 3.44433 15.2733 1.14241 20.7173L1.0584 20.9189C0.722353 21.7254 0.369505 22.5487 0.151075 23.4056C-0.285785 25.1027 0.251889 26.1444 1.91532 26.8333C2.94026 27.2534 3.9652 27.6734 4.97334 28.0767C7.94735 29.2864 11.0054 30.5298 14.0298 31.7396C14.3994 31.8908 14.4666 32.0084 14.433 32.4117C14.349 33.4366 14.3154 34.4784 14.265 35.4865C14.2482 35.8729 14.2314 36.2594 14.2146 36.6459L14.0298 40.7288C13.8618 44.4421 13.6769 48.1554 13.5089 51.8687C13.4753 52.608 13.4417 53.3641 13.4081 54.1035C13.2905 56.5062 13.1729 58.9929 13.1057 61.4293C13.0721 62.3702 13.2401 62.9919 13.6433 63.3951C14.0466 63.8152 14.6683 64 15.6596 64C18.0791 64 20.4987 64 22.935 64C24.4472 64 25.9426 64 27.4548 64H34.9487C39.3845 64 43.8203 64 48.2393 64H48.3905C48.6257 64 48.861 64 49.0962 63.9664C50.1379 63.8488 50.6924 63.3111 50.8268 62.3366C50.9277 61.5973 50.9109 60.8244 50.8772 60.1019C50.7428 56.8758 50.5916 53.6162 50.4404 50.4405L50.1547 44.2237C49.9699 40.3424 49.7851 36.3434 49.5835 32.3949C49.5667 31.9916 49.6339 31.874 50.0035 31.7228C54.1033 30.0761 58.1526 28.4295 61.95 26.8669C63.8654 26.094 64.3695 24.985 63.7478 22.952ZM49.2642 62.303C49.1466 62.4374 48.8778 62.4878 48.3737 62.4878C37.4522 62.4878 26.5475 62.4878 15.626 62.4878C15.1051 62.4878 14.8363 62.4374 14.7355 62.303C14.6347 62.1854 14.6011 61.9501 14.6515 61.5133H49.365C49.3986 61.9333 49.365 62.1854 49.2642 62.303ZM49.4154 28.9672C49.4323 28.9168 49.5835 28.7656 49.7347 28.7152C52.5239 27.539 55.3467 26.3628 58.1022 25.2035L60.0513 24.397C60.6058 24.1617 61.1771 23.9265 61.7483 23.6913L62.286 23.4728C62.5044 24.0273 62.5549 24.4138 62.4372 24.6994C62.3196 25.0018 61.9836 25.2539 61.3451 25.5059C57.4806 27.0853 53.6328 28.6648 49.7683 30.2274C49.6843 30.261 49.5835 30.2946 49.4827 30.3282C49.4827 30.261 49.4659 30.2106 49.4659 30.1434C49.4322 29.7065 49.3986 29.32 49.4154 28.9672ZM14.5675 27.1861L2.23456 22.0278C4.38526 16.8191 6.93921 12.0473 10.0476 7.46024C10.3837 8.53558 10.7197 9.59413 11.039 10.6359C11.9463 13.5091 12.8032 16.2142 13.5593 19.0034C14.265 21.5742 14.3994 24.2457 14.5675 27.0517V27.1861ZM36.7633 4.46942C35.94 5.49437 34.0581 6.43529 32.4787 6.51931C30.4456 6.63692 28.7318 5.96483 27.2532 4.48623C30.496 5.20873 33.6213 5.20873 36.7633 4.46942ZM37.6034 2.60437C35.3687 3.39408 32.9828 3.67972 30.5296 3.42768C29.5551 3.32687 28.5806 3.10844 27.6229 2.89001C27.2364 2.806 26.8331 2.70518 26.4467 2.62117C26.1106 2.55396 25.9258 2.36914 25.8754 2.03309C30.0088 3.34367 34.0245 3.34367 38.1579 2.03309C38.1075 2.31873 37.9395 2.48675 37.6034 2.60437ZM32.3275 8.03151C35.94 7.9139 38.578 5.62878 39.7541 1.61303L40.2414 1.68024C39.9389 5.17512 37.1834 7.98111 33.6045 8.43477C31.7226 8.67 30.1264 8.53558 28.6814 8.01471C25.8586 6.98977 24.212 4.92309 23.6911 1.69704C23.7751 1.68024 23.8591 1.64664 23.9263 1.64664C24.0104 1.62983 24.1112 1.62983 24.212 1.62983C24.548 3.73012 25.6234 5.39355 27.4212 6.60332C28.9334 7.61146 30.5801 8.09872 32.3275 8.03151ZM31.3026 10.0478C32.9324 10.115 34.3438 9.94698 35.6208 9.49332C38.9308 8.33396 40.9807 5.94803 41.6864 2.38594C41.72 2.25152 41.7368 2.1171 41.7704 1.94908L41.7872 1.89867C42.1232 1.98268 42.4593 2.06669 42.7953 2.15071C43.7363 2.38594 44.6268 2.58757 45.5341 2.8396C48.1721 3.5789 50.4404 4.55344 52.4735 5.84721C52.7423 6.01524 52.7759 6.09925 52.6751 6.41849C52.255 7.72907 51.8518 9.07326 51.4653 10.3838C50.8268 12.4673 50.1716 14.6348 49.4827 16.7519C48.7434 19.0034 48.4577 21.3389 48.1889 23.6073L48.1217 24.1449C47.7688 27.0517 47.92 29.9753 48.0713 32.8149C48.1049 33.5542 48.1553 34.3103 48.1889 35.0664C48.3401 38.5445 48.5081 42.0898 48.6593 45.5175C48.7434 47.1137 48.8106 48.7099 48.8778 50.3061C48.9786 52.4736 49.0794 54.6243 49.1802 56.8086L49.3146 59.917H14.6683L14.7355 58.4216C14.7859 57.1447 14.8363 55.8845 14.9035 54.6243C15.0715 51.0454 15.2395 47.4497 15.4076 43.8708L15.6092 39.4686C15.6596 38.4437 15.71 37.4356 15.7604 36.4106C15.878 34.1759 15.9957 31.8572 16.0461 29.5721C16.1637 24.2962 15.5084 19.6083 14.0298 15.2229C13.4417 13.4755 12.904 11.6944 12.3664 9.96378C12.0135 8.82122 11.6607 7.62826 11.291 6.4689C11.1902 6.13285 11.2238 6.01524 11.5598 5.81361C14.0298 4.25099 16.8358 3.15884 20.7003 2.25152C21.07 2.16751 21.4396 2.0835 21.8429 2.01629C21.9605 1.99948 22.0781 1.96588 22.1957 1.94908L22.2125 2.01629C22.2629 2.23472 22.2965 2.45315 22.3469 2.67158C23.3215 7.00657 26.7491 9.84616 31.3026 10.0478ZM49.365 27.203C49.4154 26.6821 49.4659 26.1612 49.5163 25.6571C49.6675 24.2289 49.8019 22.8848 49.9531 21.5406C50.2052 19.2723 50.9277 17.0712 51.6334 14.9373C51.9526 13.9459 52.3054 12.9042 52.5911 11.8792C52.8935 10.7871 53.2464 9.69494 53.5992 8.55239C53.7168 8.18274 53.8345 7.82989 53.9521 7.46024C57.0101 11.9633 59.5808 16.7351 61.7651 22.011L49.365 27.203ZM14.1474 28.6311C14.5507 28.7992 14.6347 28.9168 14.5843 29.2696C14.5339 29.5553 14.517 29.8577 14.5002 30.177C14.5002 30.2274 14.5002 30.261 14.5002 30.3114L7.82973 27.5894C6.08229 26.8837 4.33485 26.1612 2.58741 25.4555C1.99933 25.2203 1.68009 24.9682 1.56247 24.6658C1.44485 24.3802 1.49526 23.9937 1.71369 23.456L2.40258 23.7417C3.07468 24.0105 3.74677 24.2962 4.40206 24.565C5.34299 24.9514 6.26712 25.3547 7.20805 25.7411C9.49316 26.6989 11.8455 27.6734 14.1474 28.6311Z" fill="#4C70B5"/>
<path d="M27.0113 20C28.6641 20 30.0112 21.3523 29.9999 23.0114C29.9999 24.6705 28.6528 26 26.9887 26C25.3359 26 23.9888 24.6477 24.0001 22.9886C24.0114 21.3409 25.3585 20 27.0113 20ZM27.0226 21.2841C26.0604 21.2727 25.2793 22.0455 25.2793 23C25.2793 23.9318 26.0378 24.7045 26.966 24.7273C27.9283 24.7386 28.7094 23.9886 28.732 23.0341C28.7434 22.0795 27.9736 21.2841 27.0226 21.2841Z" fill="#4C70B5"/>
<path d="M38 22.9829C38.0133 21.3093 39.5644 19.9887 41.5133 20.0001C43.4621 20.0001 45 21.3435 45 23.0171C45 24.6793 43.4356 26.0113 41.4867 25.9999C39.5379 25.9885 38 24.6451 38 22.9829ZM43.5152 23.0171C43.5284 22.0494 42.6402 21.2752 41.5133 21.2752C40.3864 21.2752 39.4981 22.0266 39.4981 22.9943C39.4981 23.9506 40.3599 24.702 41.4735 24.7134C42.6004 24.7248 43.5019 23.9734 43.5152 23.0171Z" fill="#4C70B5"/>
<path d="M35.523 23.6764C35.2588 23.6651 35.0427 23.6651 34.8146 23.6424C34.4065 23.5971 34.1664 23.3481 34.1664 23.0085C34.1664 22.6689 34.4305 22.4085 34.8266 22.3972C35.3069 22.3745 35.7871 22.3745 36.2673 22.3972C36.7475 22.4198 37.0116 22.7255 36.9996 23.1896C36.9636 24.7518 35.8351 25.9405 34.3464 25.9971C32.6417 26.065 31.189 24.933 31.021 23.3821C30.8889 22.1481 31.3811 21.1519 32.4856 20.484C33.5661 19.8387 34.6946 19.85 35.8111 20.45C36.2193 20.6764 36.3393 21.0047 36.1592 21.333C35.9672 21.6726 35.571 21.7745 35.1508 21.5481C34.6946 21.2991 34.2144 21.2198 33.7222 21.333C32.7857 21.5368 32.1735 22.4538 32.3776 23.3481C32.5697 24.2424 33.5061 24.8424 34.4665 24.6952C35.0067 24.6273 35.3789 24.2764 35.523 23.6764Z" fill="#4C70B5"/>
<path d="M20.3123 24.7181C20.6731 24.7181 20.9758 24.7068 21.2784 24.7181C21.7323 24.7295 21.9884 24.9796 22 25.3548C22 25.7414 21.7439 25.9801 21.29 25.9915C20.7779 26.0028 20.2774 26.0028 19.7653 25.9915C19.2881 25.9801 19.0087 25.7186 19.0087 25.2411C18.9971 23.729 18.9971 22.2056 19.0087 20.6935C19.0087 20.2615 19.2648 20 19.6605 20C20.0446 20 20.3123 20.2615 20.3123 20.7049C20.324 21.8531 20.3123 23.0014 20.3123 24.1497C20.3123 24.3202 20.3123 24.4908 20.3123 24.7181Z" fill="#4C70B5"/>
</g>
<defs>
<clipPath id="clip0_928_876">
<rect width="64" height="64" fill="white"/>
</clipPath>
</defs>
</svg>
