<svg width="64" height="64" viewBox="0 0 64 64" fill="none" xmlns="http://www.w3.org/2000/svg">
<g clip-path="url(#clip0_1091_1678)">
<path d="M48.4998 0C49.7164 0.483333 50.1831 1.38333 50.1498 2.7C50.0831 4.93333 50.1331 7.15 50.1331 9.38333C50.1331 10.8833 49.2664 11.7333 47.7664 11.75C46.8164 11.75 45.8498 11.75 44.7998 11.75C44.7998 12.05 44.7998 12.3167 44.7998 12.5667C44.7998 13.7167 44.7498 14.8667 44.8164 16C44.8831 16.9667 44.5998 17.7667 44.0998 18.5833C42.2831 21.5667 40.4831 24.5667 38.6998 27.5667C38.5164 27.8667 38.4331 28.25 38.4164 28.6167C38.3831 29.5167 38.4664 30.4167 38.3831 31.3C38.3331 31.9 38.1831 32.5333 37.8998 33.0667C37.2331 34.3167 36.4331 35.4833 35.7498 36.7333C35.1664 37.7667 34.4831 38.5333 33.0664 38.4C33.0664 39.3 33.0664 40.15 33.0664 40.9833C33.0664 41.65 32.8664 42.4667 33.1831 42.9333C33.4998 43.4 34.3331 43.5167 34.9498 43.75C41.5498 46.35 48.1331 48.95 54.7331 51.55C54.9331 51.6333 55.1164 51.7167 55.3164 51.7833C56.0331 52.05 56.4664 52.55 56.4831 53.3167C56.4831 54.0833 56.0498 54.5833 55.3498 54.8833C53.9664 55.4333 52.5831 56 51.1831 56.5667C45.5164 58.85 39.8498 61.15 34.1831 63.4333C33.6998 63.6333 33.2331 63.8167 32.7498 64.0167C32.2498 64.0167 31.7498 64.0167 31.2498 64.0167C29.5164 63.3167 27.7998 62.6167 26.0664 61.9167C20.2831 59.5833 14.4998 57.25 8.71644 54.9C7.91644 54.5833 7.48311 54.0333 7.51644 53.3333C7.54977 52.5333 8.01644 52.0667 8.74977 51.7833C15.9164 48.9833 23.0664 46.15 30.2331 43.3667C30.7664 43.1667 30.9664 42.9167 30.9331 42.3333C30.8831 41.0667 30.9164 39.8 30.9164 38.45C29.3831 38.6333 28.7164 37.6333 28.0998 36.5333C27.4331 35.35 26.6664 34.2333 26.0331 33.05C25.7831 32.5833 25.5664 31.9667 25.6331 31.4667C25.9164 29.0833 25.1998 27.0667 23.8664 25.1167C22.3498 22.8833 21.0664 20.5 19.6498 18.1833C19.3331 17.65 19.1664 17.1167 19.1831 16.4833C19.2164 14.95 19.1998 13.4167 19.1998 11.7833C18.2164 11.7833 17.2831 11.7833 16.3498 11.7833C14.6664 11.7833 13.8498 10.9667 13.8498 9.3C13.8498 7.11667 13.8998 4.91667 13.8331 2.73333C13.8164 1.38333 14.2831 0.483333 15.4998 0C26.4998 0 37.4998 0 48.4998 0ZM42.6331 11.7833C35.4998 11.7833 28.4498 11.7833 21.3998 11.7833C21.3998 13.2 21.3998 14.5833 21.3998 16C21.6664 16 21.8998 16 22.1164 16C23.2664 16 24.3998 15.9833 25.5498 16C26.2164 16.0167 26.6331 16.4333 26.6498 17.0333C26.6664 17.6667 26.2331 18.0833 25.5331 18.1167C25.2831 18.1333 25.0331 18.1167 24.7831 18.1167C23.9498 18.1167 23.0998 18.1167 22.2164 18.1167C22.2664 18.2667 22.2831 18.3333 22.2998 18.3833C23.8831 21.0333 25.4498 23.6667 27.0664 26.3C27.1831 26.4833 27.5331 26.6333 27.7664 26.6333C30.5831 26.65 33.3831 26.6333 36.1998 26.65C36.5831 26.65 36.7998 26.5167 36.9831 26.2C38.4831 23.6833 39.9998 21.1667 41.4998 18.65C41.5831 18.5 41.6498 18.3333 41.7664 18.1167C40.5498 18.1167 39.4164 18.1167 38.2998 18.1167C35.8664 18.1167 33.4331 18.1167 30.9831 18.1167C30.2831 18.1167 29.8331 17.6667 29.8498 17.05C29.8498 16.4333 30.2998 16.0167 30.9998 15.9833C31.1664 15.9833 31.3331 15.9833 31.4998 15.9833C34.9831 15.9833 38.4498 15.9833 41.9331 15.9833C42.1498 15.9833 42.3831 15.9833 42.5998 15.9833C42.6331 14.55 42.6331 13.1833 42.6331 11.7833ZM33.0664 45.3C33.0664 45.6333 33.0664 45.85 33.0664 46.0667C33.0664 48.3333 33.0498 50.6 33.0831 52.8833C33.0998 53.65 32.8164 54.1 32.0998 54.4333C29.3664 55.6667 26.6664 56.9667 23.9664 58.2333C23.7831 58.3167 23.6164 58.4 23.3498 58.5333C25.8831 59.5667 28.2998 60.5 30.6998 61.5167C31.6164 61.9 32.4164 61.8833 33.3331 61.5167C39.2831 59.0833 45.2331 56.6833 51.1998 54.2667C51.9331 53.9667 52.6498 53.6667 53.4998 53.3333C46.6331 50.6333 39.8998 47.9833 33.0664 45.3ZM30.9331 2.16667C30.1831 2.16667 29.5331 2.16667 28.7831 2.16667C28.7831 2.9 28.7998 3.6 28.7831 4.3C28.7664 4.78333 28.5164 5.2 28.0498 5.25C27.6831 5.28333 27.2331 5.15 26.9498 4.91667C26.7498 4.75 26.6998 4.31667 26.6831 4C26.6498 3.38333 26.6664 2.76667 26.6664 2.16667C25.8998 2.16667 25.2498 2.16667 24.5331 2.16667C24.5331 2.83333 24.5331 3.45 24.5331 4.06667C24.5164 4.85 24.0998 5.33333 23.4664 5.33333C22.8331 5.31667 22.4164 4.83333 22.3998 4.05C22.3998 3.43333 22.3998 2.81667 22.3998 2.18333C21.6498 2.18333 20.9831 2.18333 20.2664 2.18333C20.2664 2.83333 20.2664 3.43333 20.2664 4.03333C20.2664 4.85 19.8331 5.36667 19.1831 5.35C18.5498 5.33333 18.1498 4.85 18.1331 4.05C18.1331 3.43333 18.1331 2.81667 18.1331 2.2C17.3831 2.2 16.7164 2.2 16.0498 2.2C16.0498 4.68333 16.0498 7.13333 16.0498 9.58333C26.7164 9.58333 37.3498 9.58333 47.9664 9.58333C47.9664 7.08333 47.9664 4.65 47.9664 2.2C47.2498 2.2 46.5831 2.2 45.8831 2.2C45.8831 2.86667 45.8831 3.48333 45.8831 4.11667C45.8664 4.88333 45.4331 5.38333 44.7831 5.36667C44.1664 5.35 43.7664 4.86667 43.7498 4.11667C43.7498 3.48333 43.7498 2.85 43.7498 2.21667C42.9831 2.21667 42.3164 2.21667 41.6164 2.21667C41.6164 2.88333 41.6331 3.51667 41.6164 4.13333C41.5998 4.86667 41.1831 5.35 40.5664 5.36667C39.9331 5.38333 39.4998 4.88333 39.4998 4.1C39.4998 3.46667 39.4998 2.83333 39.4998 2.18333C38.7498 2.18333 38.0831 2.18333 37.3664 2.18333C37.3664 2.85 37.3831 3.5 37.3664 4.13333C37.3498 4.86667 36.9164 5.35 36.2998 5.35C35.6831 5.35 35.2664 4.88333 35.2498 4.13333C35.2331 3.5 35.2498 2.85 35.2498 2.18333C34.4998 2.18333 33.8331 2.18333 33.1164 2.18333C33.1164 2.53333 33.1164 2.85 33.1164 3.15C33.1164 3.46667 33.1164 3.76667 33.1164 4.08333C33.0831 4.86667 32.6664 5.35 32.0164 5.33333C31.3998 5.31667 30.9998 4.85 30.9831 4.08333C30.9164 3.46667 30.9331 2.85 30.9331 2.16667ZM30.9331 45.3C24.0831 47.9833 17.3664 50.6333 10.5831 53.3C10.7331 53.3833 10.8164 53.45 10.9164 53.4833C14.0331 54.75 17.1498 56.0167 20.2831 57.25C20.4831 57.3333 20.7831 57.3167 20.9831 57.2167C24.1831 55.7667 27.3664 54.3 30.5498 52.8C30.7331 52.7167 30.9164 52.4167 30.9331 52.2C30.9664 51.25 30.9498 50.2833 30.9498 49.3333C30.9331 48.05 30.9331 46.7333 30.9331 45.3ZM27.7664 28.8333C27.7164 30.35 27.4664 31.85 28.5664 33.1167C28.8164 33.4167 28.9664 33.7833 29.1831 34.1333C29.6164 34.8333 29.9164 35.8 30.5498 36.15C31.1831 36.5 32.1664 36.2333 32.9998 36.2667C33.3831 36.2833 33.5998 36.1667 33.7998 35.8333C34.5331 34.5667 35.2831 33.3333 36.0331 32.0833C36.1164 31.95 36.2331 31.7833 36.2498 31.6333C36.2664 30.7 36.2664 29.7833 36.2664 28.8167C33.3998 28.8333 30.5998 28.8333 27.7664 28.8333Z" fill="#4C70B5"/>
<path d="M46.8335 24.8666C47.3502 24.9 47.7168 25.15 47.8502 25.65C47.9835 26.1666 47.8168 26.6166 47.3335 26.8666C46.9002 27.1 46.4168 27.25 45.9835 27.5C44.0002 28.65 43.3835 30.6666 44.2502 32.95C44.6002 33.8833 45.0002 34.8166 45.1668 35.7833C45.6335 38.7333 43.4502 41.9 40.5502 42.6166C39.8502 42.7833 39.3168 42.55 39.1168 41.9833C38.9168 41.4 39.1668 40.9 39.8335 40.6C40.0002 40.5166 40.1835 40.4666 40.3502 40.3833C42.7668 39.2666 43.6502 37.0666 42.6168 34.5833C42.1002 33.3166 41.6502 32.0666 41.7335 30.6666C41.8835 27.7 44.0335 25.7 46.5835 24.9C46.6668 24.8666 46.7668 24.8833 46.8335 24.8666Z" fill="#4C70B5"/>
<path d="M53.216 26.0167C53.1827 29.4333 50.8493 31.4 48.366 32.1667C47.816 32.3333 47.316 32.05 47.116 31.5167C46.9327 31.0167 47.116 30.5167 47.5827 30.2333C47.6993 30.1667 47.8493 30.1167 47.9827 30.05C50.916 28.85 51.8493 26.4833 50.466 23.6333C49.966 22.6 49.6993 21.5333 49.7327 20.3833C49.8327 17.6 51.766 15.1667 54.4493 14.4667C55.1327 14.2833 55.6827 14.55 55.866 15.1167C56.0493 15.7167 55.766 16.2167 55.116 16.4833C55.016 16.5167 54.916 16.5667 54.8327 16.6C52.2327 17.6333 51.2993 19.85 52.2827 22.4833C52.666 23.5 52.8993 24.5833 53.1993 25.6333C53.216 25.7833 53.1993 25.9333 53.216 26.0167Z" fill="#4C70B5"/>
</g>
<defs>
<clipPath id="clip0_1091_1678">
<rect width="64" height="64" fill="white"/>
</clipPath>
</defs>
</svg>
