<svg width="64" height="64" viewBox="0 0 64 64" fill="none" xmlns="http://www.w3.org/2000/svg">
<path d="M32.3833 64C32.1333 64 31.8833 64 31.6333 64C31.4667 63.8833 31.3 63.7667 31.1333 63.6667C21.7667 59.15 12.4 54.6167 3.03333 50.1167C2.28333 49.7667 2 49.3167 2 48.4833C2.01667 37.4833 2.01667 26.4833 2 15.4833C2 14.65 2.28333 14.2167 3.03333 13.85C12.4 9.38333 21.75 4.85 31.1167 0.333333C31.3 0.25 31.45 0.116667 31.6167 0C31.8667 0 32.1167 0 32.3667 0C32.5167 0.1 32.6667 0.216667 32.8167 0.283333C42.2 4.81667 51.5833 9.35 60.9667 13.8667C61.7167 14.2167 62 14.6667 62 15.5C61.9833 26.5167 61.9833 37.5333 62 48.55C62 49.3333 61.7167 49.7667 61.0333 50.1C51.9 54.5 42.75 58.9167 33.6167 63.3333C33.2 63.5333 32.7833 63.7833 32.3833 64ZM32.9333 61.5333C33.1333 61.45 33.2167 61.4167 33.2833 61.3833C42.0833 57.1333 50.8833 52.8833 59.7 48.65C60.0833 48.4667 60.1167 48.2167 60.1167 47.8667C60.1167 37.6 60.1167 27.3333 60.1167 17.05C60.1167 16.8833 60.1 16.7 60.0833 16.5C59.95 16.55 59.8667 16.5833 59.7833 16.6167C57.1333 17.8833 54.5 19.1667 51.85 20.4333C51.4833 20.6 51.45 20.85 51.45 21.1667C51.45 24.6167 51.4333 28.0833 51.4667 31.5333C51.4667 32.2333 51.2167 32.65 50.5833 32.95C48.45 33.95 46.35 34.9833 44.2333 36C43.1333 36.5167 42.5667 36.1667 42.5667 34.9333C42.5667 31.5 42.5667 28.0667 42.5667 24.6167C42.5667 24.2 42.45 24 42.0667 23.8167C32.9833 19.45 23.9 15.05 14.8 10.6833C14.5667 10.5667 14.1833 10.5667 13.95 10.6833C11.1333 12.0167 8.31667 13.3833 5.51667 14.7333C5.4 14.7833 5.3 14.8667 5.11667 14.9667C5.35 15.0833 5.51667 15.1833 5.68333 15.25C11.55 18.0833 17.4167 20.9167 23.2667 23.75C23.9667 24.0833 24.6667 24.4 25.3333 24.7667C25.8167 25.0167 25.9833 25.5333 25.7833 25.9833C25.5833 26.4167 25.0667 26.6333 24.5667 26.45C24.3667 26.3833 24.1833 26.2833 24 26.1833C17.5 23.05 11 19.9 4.5 16.7667C4.3 16.6667 4.1 16.5833 3.83333 16.4667C3.83333 16.6833 3.83333 16.8167 3.83333 16.9667C3.83333 27.2833 3.83333 37.5833 3.81667 47.9C3.81667 48.3833 4.05 48.5333 4.4 48.7C12.65 52.6667 20.8833 56.65 29.1333 60.6333C29.7333 60.9167 30.3167 61.2 31.0167 61.5333C31.0167 61.1833 31.0167 60.9333 31.0167 60.7C31.0167 55.6833 31.0167 50.6667 31.0167 45.6333C31.0167 40.4833 31.0167 35.35 31.0333 30.2C31.0333 29.7 30.9 29.45 30.4333 29.2667C29.8167 29.0167 29.2167 28.7167 28.6333 28.4C28.0833 28.1167 27.8833 27.6 28.1167 27.1C28.35 26.6167 28.8667 26.45 29.45 26.7167C30.05 26.9833 30.6667 27.25 31.25 27.5833C31.7667 27.8833 32.1833 27.8333 32.7 27.5833C34.5167 26.6667 36.3667 25.8 38.2 24.9167C38.3833 24.8333 38.6 24.6667 38.7667 24.7C39.1167 24.7833 39.55 24.9 39.7667 25.15C40.0667 25.4833 39.95 25.95 39.6 26.2667C39.4333 26.4167 39.2167 26.5167 39.0167 26.6167C37.2 27.5 35.4 28.4 33.5667 29.2333C33.0333 29.4667 32.9 29.7667 32.9 30.3167C32.9167 40.4333 32.9167 50.5667 32.9167 60.6833C32.9333 60.95 32.9333 61.2 32.9333 61.5333ZM58.8667 14.9833C58.6833 14.8833 58.6167 14.8333 58.55 14.8C49.8333 10.5833 41.1 6.36667 32.3667 2.16667C32.15 2.06667 31.8 2.1 31.5833 2.2C29.4833 3.2 27.3833 4.21667 25.2833 5.23333C24.9833 5.38333 24.6667 5.53333 24.2833 5.71667C24.4833 5.83333 24.5667 5.9 24.6833 5.95C33.3833 10.15 42.1 14.3667 50.8167 18.55C51.0333 18.65 51.3833 18.6 51.6 18.4833C53.4833 17.6 55.35 16.6833 57.2167 15.7833C57.7333 15.5167 58.2667 15.2667 58.8667 14.9833ZM48.95 19.7667C48.6 19.6 48.3833 19.4833 48.1667 19.3667C39.85 15.35 31.5333 11.35 23.2333 7.3C22.4167 6.9 21.8 6.85 21 7.3C19.6167 8.06667 18.15 8.7 16.6333 9.45C18.2667 10.25 19.8 10.9833 21.3333 11.7167C28.55 15.2 35.75 18.6833 42.9667 22.15C43.2 22.2667 43.55 22.3333 43.7667 22.25C45.4667 21.4667 47.15 20.65 48.95 19.7667ZM44.5167 33.7833C44.7333 33.6833 44.9167 33.6333 45.0667 33.55C46.4167 32.9 47.7667 32.2333 49.1167 31.6167C49.4833 31.45 49.6167 31.2333 49.6167 30.8167C49.6 27.95 49.6 25.0667 49.6 22.2C49.6 22.0167 49.5833 21.85 49.5667 21.6167C49.3667 21.7 49.2 21.75 49.0667 21.8167C47.7 22.4667 46.3333 23.15 44.9667 23.7833C44.6 23.95 44.45 24.1667 44.4667 24.5833C44.4833 27.45 44.4833 30.3333 44.4833 33.2C44.4667 33.3667 44.5 33.5333 44.5167 33.7833Z" fill="#4C70B5"/>
<path d="M16.0668 42.8833C16.0335 43.8666 15.3335 44.2333 14.5835 43.8833C12.8001 43.0333 11.0335 42.1666 9.25013 41.3166C8.40013 40.9166 7.5668 40.5166 6.7168 40.1C6.08347 39.7833 5.8668 39.3166 6.08347 38.8166C6.33347 38.2666 6.85013 38.1 7.50013 38.4166C10.1168 39.6666 12.7501 40.9333 15.3501 42.2166C15.7001 42.35 15.9168 42.7333 16.0668 42.8833Z" fill="#4C70B5"/>
<path d="M6.80039 42.5667C7.16705 42.7 7.35039 42.7667 7.55039 42.85C8.83372 43.4667 10.1337 44.0833 11.4171 44.7166C12.1004 45.05 12.3004 45.5166 12.0504 46.05C11.8004 46.5666 11.2671 46.7 10.6171 46.4C9.28372 45.7667 7.96705 45.1333 6.63372 44.4833C6.18372 44.2667 5.86705 43.8666 6.06705 43.3833C6.20039 43.05 6.56705 42.8167 6.80039 42.5667Z" fill="#4C70B5"/>
</svg>
