<svg width="64" height="42" viewBox="0 0 64 42" fill="none" xmlns="http://www.w3.org/2000/svg">
<path d="M64.0001 34.1285C63.7001 34.6953 63.2167 34.862 62.6001 34.8453C61.6667 34.812 60.7334 34.8453 59.7501 34.8453C59.6501 36.9292 58.8834 38.6463 57.2501 39.9133C56.0334 40.8635 54.6501 41.297 53.1167 41.247C50.4834 41.1636 47.2501 39.1964 46.9834 34.8953C39.5001 34.8953 32.0167 34.8953 24.4667 34.8953C24.3667 37.0792 23.4834 38.8797 21.6834 40.13C20.4667 40.9802 19.0834 41.347 17.6001 41.2303C14.8001 40.9969 11.9334 38.8464 11.7167 34.8787C11.5001 34.862 11.2834 34.8453 11.0667 34.8453C9.65006 34.8453 8.2334 34.8453 6.81673 34.8453C5.01673 34.8453 4.26673 34.0951 4.25006 32.3113C4.25006 31.7445 4.25006 31.1944 4.25006 30.5442C3.25007 30.5442 2.30007 30.5109 1.35007 30.5609C0.750065 30.5775 0.300065 30.4108 -0.0166016 29.8774C-0.0166016 29.6773 -0.0166016 29.4606 -0.0166016 29.2439C0.266732 28.7437 0.683398 28.527 1.26673 28.527C4.2834 28.5437 7.30006 28.527 10.3334 28.527C10.4334 28.527 10.5501 28.527 10.6501 28.5437C11.2501 28.6104 11.6334 29.0271 11.6167 29.5773C11.6001 30.1107 11.2001 30.5275 10.5834 30.5275C9.40006 30.5442 8.21673 30.5275 7.01673 30.5442C6.80006 30.5442 6.56673 30.5442 6.30006 30.5442C6.30006 31.3277 6.30006 32.0446 6.30006 32.8448C7.00006 32.8448 7.6834 32.8448 8.36673 32.8448C9.45006 32.8448 10.5334 32.8281 11.6167 32.8448C11.9667 32.8448 12.1167 32.7281 12.2667 32.4113C13.4167 29.9274 15.3834 28.5603 18.1167 28.5603C20.8167 28.577 22.7667 29.9274 23.9167 32.3947C24.0501 32.6948 24.2001 32.8448 24.5501 32.8448C31.2001 32.8281 37.8334 32.8281 44.4834 32.8281C44.5834 32.8281 44.6834 32.8115 44.8501 32.7948C44.8667 32.5614 44.8834 32.328 44.8834 32.1113C44.8834 29.9274 44.8667 27.7435 44.9001 25.5429C44.9001 25.1595 45.1167 24.6593 45.4001 24.4259C46.0167 23.9258 46.8667 24.4759 46.8834 25.3428C46.9001 26.8266 46.8834 28.2936 46.8834 29.7773C46.8834 30.6109 46.8667 31.4444 46.9001 32.278C46.9001 32.4614 47.0167 32.6281 47.0834 32.7948C47.2334 32.6614 47.4501 32.5614 47.5334 32.3947C48.4167 30.5109 49.8167 29.2439 51.8501 28.7271C54.8334 27.9769 57.8667 29.4439 59.1334 32.2613C59.3167 32.6781 59.5334 32.8615 60.0001 32.8281C60.6334 32.7781 61.2834 32.8115 61.9501 32.8115C61.9501 31.3111 61.9501 29.894 61.9501 28.377C61.5167 28.377 61.1167 28.3936 60.7001 28.377C59.0501 28.2936 57.7667 27.0099 57.7167 25.3595C57.7001 24.6593 57.7001 23.9425 57.7167 23.2423C57.7334 22.5088 58.0834 22.142 58.8501 22.1253C59.8001 22.1087 60.7501 22.1253 61.7167 22.1253C61.5334 21.0084 60.3501 19.9081 59.0834 19.8914C55.0501 19.8414 51.0001 19.8748 46.8834 19.8748C46.8834 20.2415 46.9001 20.5916 46.8834 20.9417C46.8501 21.5752 46.4501 21.992 45.8834 21.992C45.3501 21.992 44.9501 21.5919 44.8834 20.9917C44.8667 20.8083 44.8834 20.6249 44.8834 20.4249C44.8834 14.8068 44.8834 9.17196 44.8834 3.55383C44.8834 3.30377 44.8834 3.07037 44.8834 2.78697C32.0001 2.78697 19.1834 2.78697 6.26673 2.78697C6.26673 3.0537 6.26673 3.2871 6.26673 3.53716C6.26673 9.13862 6.26673 14.7401 6.26673 20.3582C6.26673 20.5249 6.26673 20.6916 6.26673 20.8583C6.25006 21.5585 5.8834 21.992 5.31673 22.0086C4.71673 22.0253 4.2834 21.5752 4.2834 20.8583C4.26673 18.6578 4.2834 16.4405 4.2834 14.2399C4.2834 10.5557 4.2834 6.87136 4.2834 3.1704C4.2834 1.55331 5.10006 0.769775 6.71673 0.769775C19.3167 0.769775 31.9167 0.769775 44.5167 0.769775C46.1167 0.769775 46.9001 1.55331 46.9001 3.13706C46.9001 3.73722 46.9001 4.33737 46.9001 5.00421C47.1667 5.02088 47.3834 5.03755 47.6001 5.03755C49.7501 5.03755 51.9001 5.08757 54.0334 5.02088C56.7334 4.9542 59.0834 6.82135 58.6167 10.4723C58.5667 10.8057 58.2167 11.1058 57.9334 11.5226C58.4167 13.4231 58.9167 15.5069 59.4501 17.5742C59.4834 17.7409 59.6834 17.9409 59.8334 17.9743C62.0667 18.5577 63.4334 19.9581 63.9167 22.2087C63.9334 22.2587 63.9667 22.3254 64.0001 22.3754C64.0001 26.2931 64.0001 30.2108 64.0001 34.1285ZM57.4001 17.8409C57.3667 17.6408 57.3501 17.4908 57.3001 17.3241C56.8501 15.5236 56.4001 13.7398 55.9667 11.9394C55.8667 11.4726 55.6834 11.3059 55.1834 11.3059C52.6501 11.3392 50.1001 11.3225 47.5667 11.3225C47.3667 11.3225 47.1667 11.3392 46.9501 11.3559C46.9501 13.5564 46.9501 15.6903 46.9501 17.8409C50.4501 17.8409 53.9001 17.8409 57.4001 17.8409ZM53.3667 39.2465C55.7334 39.2465 57.7001 37.296 57.7167 34.9287C57.7334 32.5447 55.7334 30.5442 53.3501 30.5609C50.9667 30.5775 49.0167 32.5447 49.0167 34.912C49.0334 37.2793 51.0001 39.2465 53.3667 39.2465ZM18.0834 39.2465C20.4667 39.2631 22.4167 37.3293 22.4501 34.9453C22.4834 32.5614 20.5001 30.5609 18.1001 30.5609C15.7167 30.5609 13.7667 32.5114 13.7667 34.8953C13.7501 37.2626 15.7167 39.2298 18.0834 39.2465ZM46.9334 7.0214C46.9334 7.82161 46.9334 8.52179 46.9334 9.25532C50.1834 9.25532 53.4001 9.25532 56.6001 9.25532C56.6501 7.97165 55.7001 7.03807 54.3334 7.0214C52.6667 7.00473 51.0001 7.0214 49.3334 7.0214C48.5501 7.0214 47.7667 7.0214 46.9334 7.0214ZM61.9667 26.3264C61.9667 25.6096 61.9667 24.9094 61.9667 24.1759C61.2167 24.1759 60.5001 24.1759 59.8001 24.1759C59.5501 26.1097 60.0834 26.6265 61.9667 26.3264Z" fill="#4C70B5"/>
<path d="M24.4665 19.6581C25.6165 18.5078 26.6499 17.4575 27.6999 16.4072C29.5332 14.5568 31.3832 12.7229 33.2165 10.8891C33.3499 10.7558 33.4832 10.6224 33.6499 10.5224C34.0832 10.2723 34.4999 10.339 34.8499 10.6891C35.1832 11.0225 35.2499 11.4226 35.0165 11.8394C34.8999 12.0394 34.7499 12.2061 34.5832 12.3729C31.5665 15.3903 28.5499 18.4244 25.5332 21.4419C24.7332 22.2421 24.3332 22.2254 23.5499 21.4419C21.9332 19.8248 20.2999 18.2077 18.6999 16.5739C18.4665 16.3239 18.2165 15.9238 18.2332 15.6237C18.2499 15.3236 18.5499 14.9569 18.8332 14.7735C19.2665 14.5067 19.6665 14.7401 19.9999 15.0736C21.3332 16.3906 22.6499 17.7242 23.9832 19.0579C24.1332 19.1913 24.2499 19.3913 24.4665 19.6581Z" fill="#4C70B5"/>
<path d="M34.1837 30.5441C31.8337 30.5441 29.4837 30.5441 27.117 30.5441C26.8837 30.5441 26.6503 30.5608 26.4337 30.5108C25.9337 30.4108 25.6003 30.044 25.6837 29.5939C25.7337 29.2438 26.0503 28.8937 26.3337 28.6436C26.4837 28.5103 26.817 28.5436 27.0503 28.5436C31.7837 28.5436 36.5003 28.5436 41.2337 28.5436C41.3837 28.5436 41.5337 28.5436 41.667 28.5603C42.2503 28.6436 42.6337 29.0771 42.6003 29.6106C42.567 30.1274 42.1837 30.5108 41.6003 30.5275C40.817 30.5441 40.017 30.5441 39.2337 30.5441C37.567 30.5441 35.8837 30.5441 34.1837 30.5441Z" fill="#4C70B5"/>
<path d="M9.56712 26.2598C7.50046 26.2598 5.45046 26.2598 3.38379 26.2598C2.58379 26.2598 2.13379 25.893 2.13379 25.2762C2.13379 24.6594 2.60046 24.2759 3.38379 24.2593C7.50046 24.2593 11.6338 24.2593 15.7505 24.2593C16.5005 24.2593 17.0005 24.6927 16.9671 25.2929C16.9505 25.893 16.5005 26.2598 15.7505 26.2598C13.6838 26.2765 11.6338 26.2598 9.56712 26.2598Z" fill="#4C70B5"/>
<path d="M55.4497 34.912C55.4331 36.0457 54.4831 36.9792 53.3664 36.9792C52.2331 36.9626 51.3164 36.0123 51.3164 34.8787C51.3331 33.7284 52.2497 32.8282 53.3997 32.8448C54.5497 32.8448 55.4664 33.7784 55.4497 34.912Z" fill="#4C70B5"/>
<path d="M18.1168 32.8448C19.2668 32.8615 20.1668 33.7617 20.1502 34.9287C20.1335 36.079 19.2002 36.9959 18.0668 36.9792C16.9502 36.9626 16.0002 35.9957 16.0168 34.8787C16.0502 33.7284 16.9668 32.8282 18.1168 32.8448Z" fill="#4C70B5"/>
</svg>
