<svg width="64" height="64" viewBox="0 0 64 64" fill="none" xmlns="http://www.w3.org/2000/svg">
<g clip-path="url(#clip0_749_76)">
<path d="M50.5279 64C35.3927 64 20.2576 64 5.12246 64C4.55698 63.6833 4.37402 63.2 4.37402 62.55C4.39066 42.1833 4.39066 21.8167 4.37402 1.45C4.37402 0.8 4.55698 0.316667 5.12246 0C20.2576 0 35.3927 0 50.5279 0C51.0934 0.35 51.2431 0.883333 51.2431 1.53333C51.2264 10.2333 51.2264 18.95 51.2264 27.65C51.2264 27.8833 51.2264 28.1 51.2264 28.3333C51.4094 28.1833 51.4759 28.0333 51.5258 27.8667C51.9749 26.55 52.4073 25.2333 52.9063 23.9167C53.5549 22.1833 55.3345 21.25 57.0643 21.7167C59.1932 22.2833 60.2077 24.3333 59.4426 26.5333C56.7815 34.25 54.1204 41.9667 51.4593 49.7C51.3096 50.1333 51.2264 50.6333 51.2264 51.1C51.2098 54.8833 51.2098 58.6833 51.2264 62.4667C51.243 63.1167 51.0934 63.65 50.5279 64ZM43.4593 51.2167C43.0934 51.2167 42.8272 51.2167 42.5611 51.2167C31.767 51.2167 20.9894 51.2167 10.1952 51.2167C8.94783 51.2167 8.63182 50.9 8.63182 49.6833C8.63182 43.5833 8.63182 37.4833 8.63182 31.3667C8.63182 30.2 8.96446 29.8833 10.1121 29.8833C21.9042 29.8833 33.6796 29.8833 45.4717 29.8833C46.636 29.8833 46.952 30.2 46.9686 31.35C46.9686 34.2667 46.9686 37.1833 46.9686 40.1C46.9686 40.3 46.9853 40.5 47.0019 40.7C47.1516 40.55 47.2347 40.4 47.2846 40.2333C47.8335 38.65 48.3823 37.05 48.9146 35.45C49.031 35.1167 49.0975 34.7667 49.0975 34.4167C49.1142 23.9 49.0975 13.3833 49.0975 2.86667C49.0975 2.65 49.0975 2.41667 49.0975 2.18333C34.8605 2.18333 20.7233 2.18333 6.55282 2.18333C6.55282 22.1 6.55282 41.9667 6.55282 61.85C20.7399 61.85 34.8938 61.85 49.0476 61.85C49.0476 60.0167 49.0476 58.2167 49.0476 56.3167C47.8335 57.3333 46.7191 58.2833 45.5715 59.2167C44.6235 60 43.8085 59.7 43.5424 58.4833C43.2597 57.1333 42.9603 55.8 42.7108 54.45C42.6443 54.0667 42.6942 53.6167 42.794 53.2333C42.9603 52.5833 43.2098 51.9667 43.4593 51.2167ZM10.794 49.0667C11.11 49.0667 11.3428 49.0667 11.5923 49.0667C22.2202 49.0667 32.8314 49.0667 43.4593 49.0667C43.6256 49.0667 43.7919 49.1 43.9582 49.05C44.0746 49.0167 44.2576 48.9333 44.2742 48.8333C44.4738 48.1333 44.7898 47.4333 44.8065 46.7333C44.8564 42.05 44.8231 37.3667 44.8231 32.6833C44.8231 32.4667 44.8065 32.25 44.7898 32.0333C33.4135 32.0333 22.1204 32.0333 10.794 32.0333C10.794 37.7 10.794 43.3333 10.794 49.0667ZM53.7046 28.0667C50.8106 36.45 47.9166 44.8167 45.0227 53.2167C45.9374 53.5333 46.7857 53.8167 47.6672 54.1333C50.5778 45.7167 53.4717 37.35 56.3657 28.95C55.5175 28.6667 54.7524 28.4 53.9873 28.1333C53.9208 28.1 53.8376 28.1 53.7046 28.0667ZM57.0643 26.9167C57.2472 26.4 57.4302 25.9167 57.5632 25.4167C57.7295 24.7667 57.3803 24.1167 56.7482 23.85C56.1329 23.5833 55.3844 23.7833 55.0684 24.3667C54.8023 24.8667 54.6526 25.4167 54.4198 26C55.3512 26.3167 56.1828 26.6 57.0643 26.9167ZM45.1058 55.5167C45.2056 55.9167 45.2555 56.2167 45.3553 56.6C45.6713 56.3333 45.9042 56.1333 46.2035 55.8667C45.8044 55.7333 45.505 55.65 45.1058 55.5167Z" fill="#4C70B5"/>
<path d="M34.6776 8.51672C38.2701 8.51672 41.8626 8.51672 45.4718 8.51672C46.636 8.51672 46.952 8.85006 46.9687 10.0001C46.9687 11.2001 46.9853 12.4167 46.9687 13.6167C46.952 14.5501 46.6028 14.9167 45.688 14.9167C38.3865 14.9167 31.1017 14.9167 23.8003 14.9167C22.8522 14.9167 22.4863 14.5334 22.4863 13.5667C22.4863 12.3667 22.4863 11.1501 22.4863 9.95006C22.4863 8.88339 22.8522 8.51672 23.9 8.51672C27.4926 8.51672 31.0851 8.51672 34.6776 8.51672ZM44.7732 12.7667C44.7732 12.0334 44.7732 11.3834 44.7732 10.7167C38.0373 10.7167 31.3346 10.7167 24.6319 10.7167C24.6319 11.4334 24.6319 12.0834 24.6319 12.7667C31.3678 12.7667 38.0539 12.7667 44.7732 12.7667Z" fill="#4C70B5"/>
<path d="M34.7441 17.0667C38.3034 17.0667 41.846 17.0667 45.4052 17.0667C46.6693 17.0667 46.952 17.35 46.9687 18.6C46.9687 19.7666 46.9687 20.9333 46.9687 22.1C46.9687 23.1 46.6027 23.4833 45.6215 23.4833C38.3699 23.4833 31.1183 23.4833 23.8668 23.4833C22.8855 23.4833 22.4863 23.1 22.4863 22.1333C22.4863 20.9 22.4863 19.6833 22.4863 18.45C22.4863 17.4666 22.8522 17.0833 23.8335 17.0833C27.4593 17.0667 31.1017 17.0667 34.7441 17.0667ZM44.7732 21.3167C44.7732 20.5833 44.7732 19.9333 44.7732 19.2666C38.0373 19.2666 31.3346 19.2666 24.6319 19.2666C24.6319 19.9667 24.6319 20.6333 24.6319 21.3167C31.3678 21.3167 38.0539 21.3167 44.7732 21.3167Z" fill="#4C70B5"/>
<path d="M14.4863 14.9333C13.0061 14.9333 11.5424 14.9333 10.0622 14.9333C8.96448 14.9333 8.63184 14.5833 8.63184 13.4666C8.63184 12.2666 8.63184 11.05 8.63184 9.84995C8.63184 8.94995 9.031 8.53329 9.9125 8.53329C12.9562 8.53329 16.0165 8.51662 19.0601 8.53329C19.9416 8.53329 20.3241 8.93329 20.3241 9.79995C20.3241 11.0833 20.3241 12.3833 20.3241 13.6666C20.3241 14.55 19.9582 14.9333 19.0767 14.9333C17.5632 14.9333 16.0331 14.9333 14.4863 14.9333ZM10.794 10.6833C10.794 11.4 10.794 12.0666 10.794 12.75C13.2722 12.75 15.7171 12.75 18.1786 12.75C18.1786 12.05 18.1786 11.3833 18.1786 10.6833C15.7004 10.6833 13.2888 10.6833 10.794 10.6833Z" fill="#4C70B5"/>
<path d="M14.5197 17.0667C15.95 17.0667 17.3804 17.0667 18.8107 17.0667C20.0415 17.0667 20.3242 17.3667 20.3242 18.5667C20.3242 19.7667 20.3242 20.9833 20.3242 22.1833C20.3242 23.0833 19.9417 23.4667 19.0269 23.4667C15.9999 23.4667 12.9729 23.4667 9.92923 23.4667C8.99784 23.4667 8.6153 23.0666 8.6153 22.1166C8.6153 20.8666 8.59867 19.6166 8.6153 18.3666C8.6153 17.45 8.99784 17.0667 9.89597 17.0667C11.4427 17.0667 12.9895 17.0667 14.5197 17.0667ZM10.7941 21.3C13.3055 21.3 15.7338 21.3 18.1787 21.3C18.1787 20.6 18.1787 19.9333 18.1787 19.25C15.7005 19.25 13.2723 19.25 10.7941 19.25C10.7941 19.9333 10.7941 20.6 10.7941 21.3Z" fill="#4C70B5"/>
<path d="M33.0808 53.3833C33.0808 54.1 33.0808 54.75 33.0808 55.4333C25.297 55.4333 17.5631 55.4333 9.7627 55.4333C9.7627 54.7666 9.7627 54.1 9.7627 53.3833C17.5132 53.3833 25.2804 53.3833 33.0808 53.3833Z" fill="#4C70B5"/>
<path d="M21.3885 25.65C21.3885 26.35 21.3885 27.0167 21.3885 27.7C17.1473 27.7 12.9394 27.7 8.68164 27.7C8.68164 27.0334 8.68164 26.35 8.68164 25.65C12.9062 25.65 17.1141 25.65 21.3885 25.65Z" fill="#4C70B5"/>
<path d="M8.66504 6.35005C8.66504 5.66672 8.66504 5.00005 8.66504 4.30005C12.5403 4.30005 16.3823 4.30005 20.2908 4.30005C20.2908 4.95005 20.2908 5.63338 20.2908 6.35005C16.4322 6.35005 12.5569 6.35005 8.66504 6.35005Z" fill="#4C70B5"/>
</g>
<defs>
<clipPath id="clip0_749_76">
<rect width="64" height="64" fill="white"/>
</clipPath>
</defs>
</svg>
