<svg width="64" height="64" viewBox="0 0 64 64" fill="none" xmlns="http://www.w3.org/2000/svg">
<g clip-path="url(#clip0_749_94)">
<path d="M26.1987 64C25.7777 63.7972 25.3098 63.6413 24.92 63.3762C23.9531 62.69 23.61 61.7076 23.61 60.5536C23.61 58.6199 23.61 56.6861 23.61 54.7524C23.61 54.5341 23.61 54.3002 23.61 54.0039C22.2065 54.0039 20.8654 54.0039 19.5087 54.0039C19.2436 54.0039 18.9629 54.0195 18.6978 53.9883C18.1519 53.9103 17.8089 53.5204 17.8245 53.0214C17.8401 52.5224 18.2143 52.1481 18.7757 52.1481C20.1325 52.1325 21.4736 52.1325 22.8303 52.1325C23.0486 52.1325 23.2825 52.1325 23.5477 52.1325C23.5477 48.2651 23.5477 44.46 23.5477 40.577C22.3625 40.577 21.2085 40.577 20.0389 40.577C19.5555 40.577 19.0876 40.5926 18.6042 40.5458C18.1208 40.499 17.8556 40.1715 17.8245 39.7193C17.7933 39.2514 18.0116 38.9084 18.4794 38.7836C18.7289 38.7212 19.0096 38.7056 19.2747 38.7056C20.6783 38.7056 22.0974 38.7056 23.5477 38.7056C23.5477 34.9317 23.5477 31.2202 23.5477 27.4464C22.1909 27.4464 20.8654 27.4464 19.5399 27.4464C19.3059 27.4464 19.0876 27.4464 18.8537 27.4464C18.2143 27.4152 17.8089 27.0565 17.8089 26.5263C17.8089 25.9961 18.1987 25.5906 18.8381 25.5906C20.2104 25.575 21.5827 25.5906 22.9551 25.5906C23.1422 25.5906 23.3137 25.5906 23.5477 25.5906C23.5477 22.5809 23.5477 19.6179 23.5477 16.5926C22.1597 16.5926 20.7874 16.5926 19.4151 16.5926C19.1812 16.5926 18.9629 16.6082 18.7289 16.577C18.1675 16.5146 17.8089 16.1403 17.8089 15.6569C17.8089 15.1423 18.1987 14.7368 18.7757 14.7212C19.8829 14.7056 20.9746 14.7056 22.0818 14.7056C22.5496 14.7056 23.033 14.7056 23.5321 14.7056C23.5632 14.3314 23.5944 14.0039 23.6412 13.692C23.8284 12.1793 24.9824 11.0565 26.495 10.9629C26.8069 10.9473 27.1188 10.9318 27.4307 10.9318C35.7894 10.9318 44.148 10.9318 52.5067 10.9318C52.7718 10.9318 53.0369 10.9318 53.3176 10.9318C53.3176 8.99803 53.4112 7.15787 53.2864 5.31772C53.1461 3.32161 51.4463 1.90251 49.5282 1.99608C47.5321 2.08965 46.0974 3.61791 46.0194 5.73877C45.9882 6.56528 46.0194 7.40738 46.0038 8.2339C45.9882 8.76411 45.6919 9.09159 45.1461 9.12278C44.6003 9.15397 44.2104 8.85768 44.1948 8.34306C44.1324 6.54968 43.9141 4.72512 44.8342 3.04091C45.0057 2.71343 45.2241 2.40154 45.458 2.04286C45.2864 2.02727 45.1305 1.99608 44.9901 1.99608C32.3898 1.99608 19.7894 1.99608 7.18898 1.99608C4.44434 1.99608 2.57299 3.88302 2.57299 6.62766C2.57299 23.7972 2.57299 40.9824 2.57299 58.152C2.57299 60.5536 4.08567 62.0351 6.5496 62.0507C11.2124 62.0663 15.8595 62.0507 20.5223 62.0507C20.7562 62.0507 20.9746 62.0507 21.2085 62.0663C21.7699 62.113 22.0818 62.4249 22.113 62.9863C22.1441 63.4854 21.7699 63.844 21.2085 63.9064C21.0681 63.922 20.9122 63.922 20.7718 63.922C16.0311 63.922 11.2903 63.922 6.5496 63.922C4.17923 63.922 2.33908 62.9707 1.29424 60.8031C0.919973 60.0234 0.717244 59.0877 0.717244 58.23C0.686055 40.9668 0.686055 23.7193 0.70165 6.45612C0.70165 2.90056 3.49307 0.124733 7.04863 0.124733C21.1929 0.109138 35.3215 0.109138 49.4658 0.124733C52.8186 0.124733 55.189 2.5107 55.2202 5.86352C55.2358 7.53214 55.2202 9.18516 55.2202 10.9318C55.8439 10.9318 56.4209 10.9318 56.9823 10.9318C58.1052 10.9318 59.228 10.9006 60.3508 10.9473C62.0662 11.0253 63.3137 12.2885 63.3293 14.0039C63.3605 16.6705 63.3449 19.3216 63.3449 21.9883C63.3449 22.7212 62.9862 23.1579 62.4248 23.1579C61.8634 23.1579 61.4892 22.7212 61.4736 21.9883C61.458 19.5087 61.4736 17.0448 61.4736 14.5653C61.4736 13.1618 61.0993 12.7875 59.7114 12.7875C48.8732 12.7875 38.0506 12.7875 27.2124 12.7875C25.8556 12.7875 25.4502 13.193 25.4502 14.5185C25.4502 29.8011 25.4502 45.0838 25.4502 60.3664C25.4502 61.6608 25.8868 62.0974 27.1656 62.0974C38.035 62.0974 48.92 62.0974 59.7894 62.0974C61.0525 62.0974 61.4736 61.6764 61.4736 60.4132C61.4736 49.1696 61.4736 37.9103 61.4736 26.6666C61.4736 26.3859 61.4736 26.0741 61.5516 25.8089C61.6763 25.3411 62.0038 25.1228 62.4872 25.154C62.9707 25.1852 63.2514 25.4659 63.3293 25.9337C63.3761 26.1832 63.3449 26.4327 63.3449 26.6822C63.3449 37.7856 63.3137 48.8889 63.3761 59.9922C63.3917 61.9571 62.7679 63.3294 60.8498 63.9688C49.3254 64 37.7543 64 26.1987 64Z" fill="#4C70B5"/>
<path d="M43.3525 25.7154C38.8457 25.7154 34.3389 25.7154 29.832 25.7154C27.8827 25.7154 27.0874 24.9201 27.0874 22.9396C27.0874 20.8967 27.0874 18.8694 27.0874 16.8265C27.0874 15.1579 27.9607 14.269 29.6137 14.269C38.7833 14.2534 47.9373 14.2534 57.1069 14.269C58.7755 14.269 59.6332 15.1579 59.6332 16.8265C59.6332 18.9474 59.6332 21.0682 59.6332 23.1891C59.6332 24.8109 58.7599 25.6998 57.1381 25.6998C52.5377 25.731 47.9373 25.7154 43.3525 25.7154ZM43.2901 23.8441C47.8593 23.8441 52.4285 23.8441 57.0133 23.8597C57.5903 23.8597 57.7775 23.6725 57.7775 23.0955C57.7619 21.0371 57.7619 18.9786 57.7775 16.9201C57.7775 16.3587 57.6059 16.1404 57.0289 16.1404C47.9217 16.156 38.8301 16.156 29.7229 16.1404C29.1615 16.1404 28.9587 16.3431 28.9587 16.9045C28.9743 18.9006 28.9743 20.8967 28.9743 22.8928C28.9743 23.8441 28.9743 23.8441 29.8944 23.8441C34.3545 23.8441 38.8145 23.8441 43.2901 23.8441Z" fill="#4C70B5"/>
<path d="M52.7563 52.3352C52.7563 50.573 52.7563 48.8108 52.7563 47.0331C52.7563 45.6607 53.5049 44.9278 54.8772 44.9122C55.7973 44.9122 56.7018 44.8966 57.6218 44.9122C58.8226 44.9278 59.6179 45.7075 59.6179 46.9083C59.6335 50.5418 59.6335 54.1754 59.6179 57.8089C59.6179 59.0253 58.8538 59.805 57.653 59.8362C56.6706 59.8674 55.7037 59.8674 54.7213 59.8362C53.5049 59.7894 52.7719 59.0253 52.7719 57.7933C52.7563 55.9843 52.7563 54.1598 52.7563 52.3352ZM54.6745 46.8147C54.6745 50.5574 54.6745 54.2377 54.6745 57.9336C55.7193 57.9336 56.7174 57.9336 57.7154 57.9336C57.7154 54.2066 57.7154 50.5262 57.7154 46.8147C56.7018 46.8147 55.7037 46.8147 54.6745 46.8147Z" fill="#4C70B5"/>
<path d="M9.99609 57.2787C9.23196 57.2787 8.46783 57.2943 7.6881 57.2787C6.5653 57.2631 5.78557 56.5613 5.76997 55.4229C5.73878 53.8479 5.73878 52.2728 5.76997 50.6978C5.80116 49.6218 6.50292 48.9044 7.57894 48.8732C9.16958 48.8264 10.7758 48.8264 12.3665 48.8732C13.5049 48.9044 14.191 49.6685 14.2066 50.8069C14.2222 52.3196 14.2222 53.8323 14.2066 55.345C14.191 56.5301 13.4269 57.2631 12.2417 57.2787C11.4932 57.2787 10.7446 57.2787 9.99609 57.2787ZM12.3197 50.7758C10.7446 50.7758 9.21637 50.7758 7.67251 50.7758C7.67251 52.3352 7.67251 53.8479 7.67251 55.3606C9.24756 55.3606 10.7914 55.3606 12.3197 55.3606C12.3197 53.8011 12.3197 52.2884 12.3197 50.7758Z" fill="#4C70B5"/>
<path d="M14.2222 39.6569C14.2222 40.4055 14.2378 41.154 14.2222 41.9025C14.2067 43.0721 13.5049 43.8518 12.3509 43.883C10.7759 43.9298 9.2008 43.9298 7.62576 43.883C6.53414 43.8518 5.80119 43.1033 5.7856 41.9961C5.75441 40.4366 5.75441 38.8772 5.7856 37.3333C5.81679 36.1793 6.58092 35.462 7.75051 35.4464C9.26318 35.4308 10.7759 35.4308 12.2885 35.4464C13.4425 35.462 14.1911 36.2105 14.2222 37.3645C14.2222 37.4113 14.2222 37.4425 14.2222 37.4893C14.2222 38.191 14.2222 38.924 14.2222 39.6569ZM7.67254 37.3177C7.67254 38.9084 7.67254 40.421 7.67254 41.9805C9.23199 41.9805 10.7603 41.9805 12.3041 41.9805C12.3041 40.4055 12.3041 38.8772 12.3041 37.3177C10.7447 37.3177 9.23199 37.3177 7.67254 37.3177Z" fill="#4C70B5"/>
<path d="M9.96491 30.7369C9.20077 30.7369 8.42105 30.7525 7.65691 30.7369C6.51851 30.6901 5.78557 29.9883 5.76997 28.8499C5.73878 27.2905 5.73878 25.731 5.76997 24.1872C5.80116 23.0487 6.5497 22.347 7.6881 22.3314C9.21637 22.3158 10.7602 22.3158 12.2885 22.3314C13.4425 22.347 14.191 23.0799 14.2066 24.2495C14.2222 25.7778 14.2222 27.3217 14.2066 28.8499C14.191 29.9415 13.4893 30.6745 12.3821 30.7213C11.5867 30.7525 10.7758 30.7369 9.96491 30.7369ZM12.3197 24.2183C10.7446 24.2183 9.21637 24.2183 7.67251 24.2183C7.67251 25.7778 7.67251 27.2905 7.67251 28.8187C9.24756 28.8187 10.7758 28.8187 12.3197 28.8187C12.3197 27.2749 12.3197 25.7778 12.3197 24.2183Z" fill="#4C70B5"/>
<path d="M51.0408 48.3586C51.0408 48.8732 51.0564 49.4034 51.0408 49.9181C50.994 50.8537 50.339 51.6023 49.419 51.6646C48.2338 51.727 47.0486 51.727 45.879 51.6646C44.9121 51.6179 44.2572 50.8537 44.2104 49.8245C44.1636 48.8264 44.1636 47.8284 44.2104 46.8303C44.2572 45.6607 45.0369 44.9278 46.2221 44.9122C47.1733 44.8966 48.1246 44.8966 49.0915 44.9122C50.2767 44.9278 51.0252 45.6763 51.0564 46.8615C51.0564 47.3606 51.0564 47.8596 51.0408 48.3586C51.0564 48.3586 51.0408 48.3586 51.0408 48.3586ZM46.0661 46.8147C46.0661 47.7348 46.0505 48.6237 46.0817 49.497C46.0817 49.6062 46.3001 49.8089 46.4092 49.8089C47.3137 49.8401 48.2182 49.8245 49.1383 49.8245C49.1383 48.7641 49.1383 47.7972 49.1383 46.8147C48.0934 46.8147 47.111 46.8147 46.0661 46.8147Z" fill="#4C70B5"/>
<path d="M33.9338 48.3119C33.9338 48.8265 33.9494 49.3567 33.9338 49.8714C33.887 50.8694 33.2165 51.618 32.2184 51.6803C31.0956 51.7427 29.9728 51.7427 28.8656 51.6803C27.8364 51.6336 27.1346 50.9006 27.0878 49.8714C27.041 48.8421 27.041 47.7973 27.0878 46.7525C27.1346 45.692 27.9143 44.9435 28.9904 44.9123C30.004 44.8811 31.0176 44.8811 32.0469 44.9123C33.1541 44.9435 33.9026 45.7076 33.9338 46.8148C33.9494 47.3139 33.9494 47.8129 33.9338 48.3119C33.9494 48.3119 33.9338 48.3119 33.9338 48.3119ZM29.006 46.7992C29.006 47.8285 29.006 48.8109 29.006 49.7934C30.0508 49.7934 31.0332 49.7934 32.0313 49.7934C32.0313 48.7642 32.0313 47.7973 32.0313 46.7992C31.0021 46.7992 30.0352 46.7992 29.006 46.7992Z" fill="#4C70B5"/>
<path d="M35.6645 48.3274C35.6645 47.8128 35.6489 47.2826 35.6645 46.768C35.7113 45.7231 36.4442 44.959 37.4735 44.9278C38.5339 44.8966 39.5943 44.8966 40.6547 44.9278C41.684 44.959 42.4481 45.6919 42.4949 46.7524C42.5417 47.7816 42.5417 48.8264 42.4949 49.8557C42.4481 50.9317 41.7308 51.6491 40.6703 51.6802C39.5943 51.727 38.5183 51.727 37.4423 51.6802C36.3662 51.6335 35.6957 50.8849 35.6645 49.8089C35.6333 49.3255 35.6489 48.8264 35.6645 48.3274ZM40.608 46.8148C39.5631 46.8148 38.5807 46.8148 37.567 46.8148C37.567 47.8284 37.567 48.8108 37.567 49.7933C38.5963 49.7933 39.5787 49.7933 40.608 49.7933C40.608 48.7953 40.608 47.8284 40.608 46.8148Z" fill="#4C70B5"/>
<path d="M33.949 31.0175C33.949 31.4698 33.949 31.9376 33.949 32.3898C33.9334 33.5282 33.2628 34.308 32.14 34.3703C31.064 34.4327 29.988 34.4327 28.9119 34.3703C27.8203 34.308 27.1186 33.5438 27.103 32.4522C27.0718 31.4698 27.0718 30.5029 27.103 29.5204C27.1342 28.4132 27.8671 27.6335 28.9743 27.5867C30.0036 27.5399 31.0484 27.5399 32.0932 27.5867C33.2316 27.6335 33.949 28.4132 33.9646 29.5828C33.949 30.0663 33.949 30.5497 33.949 31.0175ZM28.9743 32.499C30.0348 32.499 31.0172 32.499 32.0309 32.499C32.0309 31.4854 32.0309 30.5029 32.0309 29.5049C31.0016 29.5049 30.0036 29.5049 28.9743 29.5049C28.9743 30.5185 28.9743 31.4698 28.9743 32.499Z" fill="#4C70B5"/>
<path d="M56.1403 43.0409C55.6413 43.0409 55.1423 43.0565 54.6433 43.0409C53.5672 43.0097 52.8031 42.2456 52.7719 41.1852C52.7407 40.1715 52.7407 39.1579 52.7719 38.1287C52.7875 37.0682 53.5205 36.3197 54.5653 36.2729C55.6413 36.2417 56.7173 36.2417 57.809 36.2729C58.8538 36.3041 59.5867 37.0526 59.6335 38.1131C59.6647 39.1267 59.6647 40.1403 59.6335 41.1696C59.6023 42.2612 58.807 43.0097 57.7154 43.0409C57.1696 43.0565 56.655 43.0409 56.1403 43.0409ZM57.7154 41.154C57.7154 40.1248 57.7154 39.1579 57.7154 38.191C56.6706 38.191 55.6725 38.191 54.6745 38.191C54.6745 39.2047 54.6745 40.1715 54.6745 41.154C55.7037 41.154 56.6862 41.154 57.7154 41.154Z" fill="#4C70B5"/>
<path d="M33.949 56.4367C33.949 56.9201 33.9646 57.3879 33.949 57.8714C33.9178 58.9942 33.2472 59.7739 32.1244 59.8363C31.064 59.8831 30.0036 59.8831 28.9431 59.8363C27.8359 59.7895 27.1186 59.0098 27.0874 57.887C27.0718 56.9357 27.0718 55.9844 27.0874 55.0176C27.1186 53.8636 27.8515 53.0994 28.9899 53.0527C30.0036 53.0059 31.0172 53.0059 32.0464 53.0527C33.216 53.0994 33.9334 53.8792 33.949 55.0644C33.949 55.5322 33.949 55.9844 33.949 56.4367ZM32.0464 54.9552C30.986 54.9552 30.0036 54.9552 29.0055 54.9552C29.0055 55.9688 29.0055 56.9513 29.0055 57.9338C30.0503 57.9338 31.0484 57.9338 32.0464 57.9338C32.0464 56.9201 32.0464 55.9532 32.0464 54.9552Z" fill="#4C70B5"/>
<path d="M52.7564 30.9864C52.7564 30.5029 52.7408 30.0351 52.7564 29.5517C52.7876 28.4289 53.4894 27.6491 54.5966 27.6023C55.657 27.5556 56.7175 27.5556 57.7779 27.6023C58.8851 27.6491 59.5869 28.4445 59.618 29.5673C59.6336 30.5185 59.6336 31.4698 59.618 32.4367C59.5869 33.5595 58.8851 34.3236 57.7623 34.386C56.7019 34.4328 55.6414 34.4328 54.5966 34.386C53.4738 34.3236 52.7876 33.5595 52.772 32.4211C52.7564 31.9376 52.7564 31.4698 52.7564 30.9864ZM57.7311 29.4893C56.6707 29.4893 55.6882 29.4893 54.6746 29.4893C54.6746 30.5029 54.6746 31.4854 54.6746 32.4834C55.7038 32.4834 56.7175 32.4834 57.7311 32.4834C57.7311 31.4854 57.7311 30.5185 57.7311 29.4893Z" fill="#4C70B5"/>
<path d="M39.0953 53.037C39.5787 53.037 40.0466 53.0214 40.53 53.037C41.7152 53.0837 42.4793 53.8167 42.5105 55.0019C42.5417 55.9531 42.5417 56.9044 42.5105 57.8713C42.4793 59.0565 41.7308 59.805 40.5456 59.8518C39.5787 59.883 38.5963 59.883 37.6138 59.8518C36.3974 59.8206 35.6645 59.0565 35.6489 57.8245C35.6333 56.8888 35.6333 55.9531 35.6489 55.0175C35.6801 53.8323 36.413 53.0837 37.5982 53.037C38.0972 53.0214 38.5963 53.037 39.0953 53.037ZM37.567 54.9551C37.567 55.9843 37.567 56.9512 37.567 57.9492C38.6119 57.9492 39.6099 57.9492 40.6236 57.9492C40.6236 56.9356 40.6236 55.9687 40.6236 54.9551C39.5943 54.9551 38.5963 54.9551 37.567 54.9551Z" fill="#4C70B5"/>
<path d="M39.0485 27.5868C39.5476 27.5868 40.0466 27.5712 40.5456 27.5868C41.6996 27.6335 42.4637 28.3509 42.5105 29.5049C42.5573 30.5029 42.5417 31.501 42.5105 32.499C42.4637 33.6219 41.7308 34.3548 40.608 34.4016C39.5944 34.4484 38.5807 34.4484 37.5515 34.4016C36.3975 34.3548 35.6801 33.5907 35.6645 32.4367C35.6489 31.4854 35.6489 30.5341 35.6645 29.5673C35.6957 28.3821 36.4287 27.6491 37.6294 27.6024C38.0973 27.5712 38.5651 27.5868 39.0485 27.5868ZM40.608 32.499C40.608 31.4542 40.608 30.4874 40.608 29.4893C39.5788 29.4893 38.5963 29.4893 37.5671 29.4893C37.5671 30.5029 37.5671 31.4854 37.5671 32.499C38.5963 32.499 39.5788 32.499 40.608 32.499Z" fill="#4C70B5"/>
<path d="M51.0408 31.0332C51.0408 31.5322 51.0564 32.0312 51.0408 32.5302C51.0096 33.4971 50.417 34.2612 49.4813 34.3392C48.2493 34.4328 46.9862 34.4328 45.7542 34.3392C44.8341 34.2768 44.2415 33.5127 44.1948 32.5302C44.148 31.5166 44.148 30.503 44.1948 29.4737C44.2415 28.3509 45.0057 27.6336 46.1285 27.6024C47.1265 27.5712 48.1246 27.5712 49.1226 27.6024C50.2766 27.6336 51.0096 28.3977 51.0408 29.5361C51.0564 30.0351 51.0564 30.5341 51.0408 31.0332C51.0564 31.0332 51.0564 31.0332 51.0408 31.0332ZM49.1382 29.5205C48.0934 29.5205 47.0953 29.5205 46.0973 29.5205C46.0973 30.5341 46.0973 31.501 46.0973 32.4991C47.1265 32.4991 48.109 32.4991 49.1382 32.4991C49.1382 31.501 49.1382 30.5341 49.1382 29.5205Z" fill="#4C70B5"/>
<path d="M30.5342 36.2729C31.08 36.2729 31.6102 36.2417 32.156 36.2729C33.1853 36.3353 33.9182 37.0526 33.9338 38.0663C33.965 39.1267 33.965 40.1871 33.9338 41.2476C33.9026 42.2456 33.1385 42.9942 32.1249 43.0254C31.0644 43.0565 30.004 43.0565 28.9436 43.0254C27.9143 42.9942 27.1346 42.2612 27.0878 41.2164C27.041 40.156 27.041 39.0955 27.0878 38.0351C27.1346 37.0059 27.8676 36.3041 28.8968 36.2573C29.4426 36.2573 29.9884 36.2729 30.5342 36.2729ZM32.0469 38.191C30.9865 38.191 29.9884 38.191 28.9904 38.191C28.9904 39.2047 28.9904 40.1716 28.9904 41.1384C30.0352 41.1384 31.0332 41.1384 32.0469 41.1384C32.0469 40.1404 32.0469 39.1891 32.0469 38.191Z" fill="#4C70B5"/>
<path d="M51.0564 56.4367C51.0564 56.9357 51.072 57.4347 51.0564 57.9338C51.0252 59.0254 50.339 59.7895 49.2318 59.8363C48.1558 59.8831 47.0798 59.8831 46.0038 59.8363C44.9745 59.7739 44.2728 59.0722 44.2104 58.0273C44.1636 56.9981 44.1636 55.9532 44.2104 54.9084C44.2572 53.8168 45.0057 53.0994 46.0973 53.0527C47.1266 53.0059 48.1714 53.0059 49.2162 53.0527C50.339 53.0994 51.0252 53.8636 51.072 55.002C51.072 55.4854 51.0564 55.9532 51.0564 56.4367ZM46.0973 57.9494C47.1577 57.9494 48.1402 57.9494 49.1383 57.9494C49.1383 56.9201 49.1383 55.9377 49.1383 54.9552C48.0934 54.9552 47.111 54.9552 46.0973 54.9552C46.0973 55.9688 46.0973 56.9357 46.0973 57.9494Z" fill="#4C70B5"/>
<path d="M39.0329 43.0409C38.5339 43.0409 38.0348 43.0565 37.5358 43.0409C36.4598 43.0097 35.6801 42.2768 35.6489 41.2008C35.6177 40.1715 35.6177 39.1267 35.6489 38.0819C35.6801 37.0214 36.413 36.3041 37.4734 36.2729C38.5027 36.2417 39.5475 36.2417 40.5923 36.2729C41.684 36.3041 42.4325 37.0058 42.4793 38.0975C42.5261 39.1267 42.5261 40.1715 42.4793 41.2008C42.4169 42.308 41.6372 43.0097 40.5144 43.0253C40.0309 43.0565 39.5319 43.0409 39.0329 43.0409ZM40.6079 41.154C40.6079 40.1248 40.6079 39.1579 40.6079 38.191C39.5631 38.191 38.5651 38.191 37.567 38.191C37.567 39.2047 37.567 40.1715 37.567 41.154C38.5962 41.154 39.5787 41.154 40.6079 41.154Z" fill="#4C70B5"/>
<path d="M47.6412 36.2729C48.187 36.2729 48.7172 36.2417 49.263 36.2729C50.3079 36.3353 51.0252 37.0682 51.0564 38.1286C51.0876 39.1423 51.0876 40.1559 51.0564 41.1852C51.0252 42.2612 50.2611 43.0097 49.2007 43.0409C48.2026 43.0565 47.2046 43.0565 46.2065 43.0409C45.0525 43.0253 44.2728 42.3236 44.226 41.1696C44.1792 40.1559 44.1792 39.1423 44.226 38.1286C44.2728 37.0058 45.0369 36.3197 46.1597 36.2729C46.6432 36.2573 47.1422 36.2729 47.6412 36.2729ZM46.0818 41.1384C47.1266 41.1384 48.1246 41.1384 49.1227 41.1384C49.1227 40.1247 49.1227 39.1423 49.1227 38.191C48.0779 38.191 47.0954 38.191 46.0818 38.191C46.0818 39.1891 46.0818 40.1403 46.0818 41.1384Z" fill="#4C70B5"/>
<path d="M9.24746 15.0488C10.1207 14.1599 10.8693 13.3957 11.6334 12.6316C11.9765 12.2885 12.382 12.2106 12.8186 12.4601C13.2085 12.694 13.3176 13.0683 13.2085 13.4893C13.1617 13.6764 13.0213 13.8636 12.881 14.0039C11.9453 14.9552 11.0096 15.8909 10.0584 16.8265C9.52816 17.3412 9.07592 17.3256 8.53011 16.811C8.03108 16.3431 7.54765 15.8597 7.07981 15.3607C6.61198 14.8772 6.59638 14.3158 7.00184 13.926C7.39171 13.5673 7.92192 13.5829 8.38976 14.0351C8.68605 14.3314 8.93556 14.6745 9.24746 15.0488Z" fill="#4C70B5"/>
</g>
<defs>
<clipPath id="clip0_749_94">
<rect width="64" height="64" fill="white"/>
</clipPath>
</defs>
</svg>
