<svg width="64" height="64" viewBox="0 0 64 64" fill="none" xmlns="http://www.w3.org/2000/svg">
<g clip-path="url(#clip0_749_125)">
<path d="M63.9999 26.1167C63.6506 27.2667 62.8689 28 61.8211 28.5334C60.6236 29.1667 59.4926 29.9 58.3117 30.5334C57.8626 30.7834 57.347 30.9834 56.8647 31.0167C56.3491 31.05 56.0331 31.2667 55.7005 31.6C54.2868 33.0334 52.8564 34.4667 51.4261 35.8834C51.2764 36.0334 51.1433 36.1834 50.9604 36.4C51.9583 37.3834 52.9562 38.3167 53.9042 39.3167C56.1662 41.7 55.3013 45.5334 52.2743 46.6667C51.3096 47.0334 50.3283 47.05 49.3637 46.75C47.7171 50.2 45.4884 51.1334 42.4614 49.6167C41.9125 50.9834 41.0144 52.0167 39.5841 52.5C38.1537 52.9667 36.8065 52.7334 35.5092 51.9C34.8606 53.5334 33.5466 54.5667 32.3491 55.6667C31.0186 56.8834 29.4053 57.0834 27.7421 56.4167C26.1121 55.75 25.214 54.4667 24.9811 52.7C24.9645 52.6167 24.9811 52.5334 24.9645 52.45C24.9645 52.3834 24.9479 52.3334 24.9312 52.2C23.7171 52.15 22.6028 51.7667 21.7046 50.8667C20.8231 49.9834 20.4073 48.9 20.3574 47.6167C19.0269 47.55 17.8793 47.1167 16.9645 46.1167C16.083 45.1334 15.7337 43.9834 15.8003 42.6667C15.4177 42.5834 15.0851 42.5167 14.7525 42.4167C12.7732 41.8167 11.5092 40 11.609 37.85C11.6256 37.3834 11.5258 37.0834 11.1932 36.7667C10.2618 35.8667 9.38032 34.9334 8.44892 34.05C8.24934 33.8667 7.93333 33.8 7.65059 33.7167C7.0851 33.55 6.45308 33.5 5.93749 33.2334C4.50714 32.4834 3.11005 31.65 1.71296 30.8167C0.149547 29.8834 -0.332781 28.2 0.565347 26.6167C3.47595 21.5334 6.40319 16.45 9.34705 11.3667C10.2285 9.83337 11.9416 9.38337 13.4884 10.25C14.9188 11.05 16.3325 11.8834 17.7462 12.7167C18.5113 13.1667 18.794 13.5167 19.2597 14.6C20.3574 14.6 21.4884 14.55 22.6028 14.6167C23.7836 14.6667 24.9479 14.8334 26.1288 14.9167C26.345 14.9334 26.661 14.8667 26.7774 14.7167C28.7234 12.3167 31.2847 11.6334 34.2784 11.7667C37.6048 11.9167 40.9313 11.8 44.2577 11.8C44.6568 11.8 44.9063 11.7167 45.1392 11.3167C45.4053 10.85 45.8211 10.4 46.2701 10.1167C47.7005 9.21671 49.1641 8.40004 50.6277 7.58337C52.1412 6.73337 53.8377 7.20004 54.7358 8.68337C55.2514 9.53337 55.7504 10.4 56.2327 11.2834C56.6319 12 56.4656 12.7167 55.8668 13.0834C55.2348 13.4667 54.503 13.25 54.0705 12.5167C53.6049 11.7334 53.1392 10.9334 52.7067 10.1334C52.4572 9.66671 52.1412 9.60004 51.6922 9.86671C50.3616 10.65 49.031 11.4167 47.7005 12.1834C47.268 12.4334 47.1849 12.7167 47.4344 13.15C50.3117 18.1334 53.189 23.1334 56.0664 28.1167C56.3159 28.55 56.5986 28.65 57.031 28.3834C58.3782 27.6 59.7254 26.8167 61.0726 26.05C61.5217 25.8 61.555 25.5 61.3055 25.0667C60.8065 24.2334 60.3242 23.3834 59.8419 22.5334C59.4094 21.7667 59.5757 21.0667 60.2244 20.7C60.873 20.3334 61.5716 20.55 62.004 21.3167C62.6859 22.5334 63.3346 23.7667 63.9832 24.9834C63.9999 25.3667 63.9999 25.75 63.9999 26.1167ZM24.3159 17.3667C24.266 17.3 24.2327 17.2334 24.1828 17.1667C23.8834 17.15 23.5674 17.1334 23.268 17.1167C21.9874 17.1167 20.6901 17.1334 19.4094 17.1C18.9604 17.0834 18.7109 17.2334 18.478 17.6334C15.8003 22.3334 13.0893 27.0167 10.3949 31.7C10.3117 31.8667 10.2285 32.0167 10.1953 32.0834C11.1433 33.0334 12.0581 33.95 13.0061 34.9C14.2535 33.35 15.8335 32.2167 18.0123 32.6834C20.1911 33.15 21.3554 34.6334 21.6547 36.8C24.9811 37.2334 25.8959 38.0667 26.6111 41.3834C29.372 41.6667 30.9021 43.2 31.1683 46.0167C32.7649 46.0334 33.9458 46.8 34.977 47.9167C35.5591 48.55 36.1579 49.15 36.7899 49.7334C37.3886 50.3 38.1038 50.4167 38.8689 50.1334C39.6173 49.85 40.0331 49.2667 40.1329 48.5C40.2327 47.75 39.8834 47.1834 39.3678 46.6667C35.9749 43.2834 32.5986 39.9 29.2223 36.5C29.056 36.3334 28.8897 36.1834 28.7566 36C28.424 35.5334 28.4739 34.8667 28.8564 34.45C29.2556 34.0167 29.8876 33.9167 30.3866 34.2334C30.6028 34.3667 30.7691 34.55 30.952 34.7167C33.1974 36.9667 35.4427 39.2167 37.7046 41.4834C39.5841 43.3667 41.4635 45.25 43.3429 47.1334C43.8585 47.65 44.4406 47.95 45.189 47.8167C45.9708 47.6834 46.5196 47.2334 46.7691 46.4834C47.0518 45.65 46.8024 44.9334 46.187 44.3167C42.7774 40.9 39.3678 37.4834 35.9583 34.0667C35.1599 33.2667 35.0602 32.5334 35.6423 31.9667C36.2244 31.4 36.9396 31.5167 37.7379 32.3167C41.4801 36.0667 45.2389 39.8334 48.9811 43.5834C49.1641 43.7667 49.3637 43.9667 49.5799 44.1167C50.2452 44.5667 50.9437 44.6167 51.6423 44.2334C52.3076 43.8667 52.6568 43.2834 52.6735 42.5C52.6901 41.8167 52.3574 41.3167 51.9084 40.8667C45.6215 34.5834 39.3512 28.3 33.0809 22C32.9479 21.8667 32.8148 21.7667 32.6485 21.6167C31.5508 22.7334 30.4863 23.8167 29.4053 24.8834C27.5425 26.7167 24.7649 26.75 22.9853 24.9667C21.2057 23.1834 21.2389 20.4 23.0685 18.5334C23.451 18.1334 23.9001 17.75 24.3159 17.3667ZM38.32 23.7334C39.7337 22.7834 40.4656 21.5334 40.5487 19.9C40.5986 19.0834 41.0976 18.5334 41.7961 18.55C42.5279 18.55 43.0602 19.15 43.0435 19.9667C42.977 22 42.1787 23.7167 40.6818 25.0834C40.5154 25.2334 40.3491 25.3834 40.2826 25.45C43.3096 28.4834 46.3034 31.4834 49.3304 34.5167C50.7774 33.05 52.2909 31.5334 53.8211 30.0334C54.1038 29.7667 54.0373 29.5667 53.8876 29.2834C51.0934 24.45 48.3159 19.6334 45.5383 14.8C45.3387 14.4667 45.1225 14.35 44.7566 14.35C40.6984 14.3667 36.6568 14.3667 32.5986 14.35C31.3845 14.35 30.3699 14.7667 29.5217 15.6334C27.9915 17.1667 26.4614 18.7 24.9312 20.2334C23.9832 21.1834 23.9167 22.3834 24.7483 23.2167C25.5799 24.05 26.8273 23.9834 27.7753 23.0167C29.0061 21.7834 30.2369 20.55 31.4843 19.3C32.4489 18.3334 32.9645 18.3334 33.9458 19.3167C35.3595 20.7667 36.8231 22.2334 38.32 23.7334ZM16.9146 15.3167C16.7317 15.15 16.582 14.95 16.3824 14.8334C15.0851 14.0667 13.7545 13.3167 12.4572 12.55C11.9749 12.2667 11.6755 12.35 11.3928 12.8334C8.53208 17.8 5.67138 22.7834 2.81067 27.75C2.54456 28.2167 2.64435 28.5 3.09341 28.7667C4.40734 29.5167 5.72127 30.2667 7.0352 31.05C7.53416 31.35 7.81691 31.25 8.08302 30.7667C10.9271 25.7834 13.7712 20.8334 16.6319 15.8834C16.715 15.7167 16.7816 15.55 16.9146 15.3167ZM28.6236 46.2C28.5737 45.0834 28.2078 44.45 27.4593 44.1167C26.6942 43.7834 25.9458 43.8667 25.3138 44.4334C24.6818 45.0167 24.0996 45.6167 23.5009 46.2334C22.6693 47.1 22.6527 48.2834 23.451 49.0834C24.2327 49.8834 25.4468 49.8834 26.2951 49.0667C26.8772 48.5 27.4926 47.95 28.0082 47.3334C28.3242 46.95 28.4905 46.4334 28.6236 46.2ZM22.004 39.2667C21.6048 39.4334 21.1558 39.5167 20.8398 39.7834C20.0913 40.4334 19.3762 41.15 18.7275 41.9C18.0456 42.6667 18.162 43.85 18.8938 44.5667C19.6256 45.2667 20.74 45.35 21.5051 44.6667C22.2369 44.0167 22.9188 43.3167 23.5841 42.6C24.1329 41.9834 24.1994 41.25 23.8502 40.5C23.4843 39.7334 22.8689 39.3667 22.004 39.2667ZM33.214 50.7834C33.1475 49.6667 32.7982 49.05 32.0331 48.7167C31.2514 48.3667 30.5196 48.4667 29.8876 49.0334C29.2389 49.6167 28.6236 50.25 28.0248 50.8834C27.2265 51.7167 27.2431 52.9167 28.0082 53.7C28.7899 54.4834 30.004 54.5 30.8522 53.6834C31.4344 53.1167 32.0498 52.5667 32.5653 51.95C32.898 51.55 33.0809 51.0334 33.214 50.7834ZM16.1994 40.15C16.3491 40.1 16.7483 40.1 16.9645 39.9C17.6464 39.3 18.345 38.7 18.8772 37.9667C19.4094 37.2334 19.11 36.1334 18.4115 35.55C17.6963 34.95 16.5986 34.9167 15.8834 35.5167C15.3845 35.95 14.9021 36.4167 14.4863 36.9334C13.9541 37.5667 13.9209 38.3 14.2701 39.0334C14.6194 39.75 15.2348 40.1167 16.1994 40.15Z" fill="#4C70B5"/>
<path d="M58.029 18.15C57.3471 18.15 56.7982 17.6 56.7816 16.9333C56.765 16.25 57.3637 15.6667 58.0623 15.6833C58.7442 15.7 59.2764 16.25 59.2598 16.95C59.2598 17.6333 58.7275 18.1667 58.029 18.15Z" fill="#4C70B5"/>
</g>
<defs>
<clipPath id="clip0_749_125">
<rect width="64" height="64" fill="white"/>
</clipPath>
</defs>
</svg>
