<svg width="64" height="64" viewBox="0 0 64 64" fill="none" xmlns="http://www.w3.org/2000/svg">
<path d="M14.0911 59.9667C28.7644 59.9667 43.3544 59.9667 57.9778 59.9667C57.9778 45.9833 57.9778 32.0333 57.9778 18C57.7782 18 57.5452 18 57.329 18C53.3529 18 49.3934 18 45.4174 18C44.3526 18 44.0365 17.6833 44.0365 16.6333C44.0365 13.85 44.0365 11.05 44.0365 8.26667C44.0365 7.71667 44.1696 7.26668 44.7186 7.06668C45.4007 6.81668 46.0329 7.33334 46.0329 8.18334C46.0329 10.5333 46.0329 12.8833 46.0329 15.25C46.0329 15.4833 46.0329 15.7 46.0329 15.9667C49.5265 15.9667 52.9869 15.9667 56.5138 15.9667C56.3474 15.7833 56.231 15.65 56.1145 15.5167C52.4046 11.8 48.7113 8.08334 44.9848 4.38334C44.7852 4.18334 44.4192 4.01667 44.1363 4.01667C34.3209 4.00001 24.4888 4.00001 14.6401 4.00001C14.4738 4.00001 14.324 4.00001 14.0911 4.00001C14.0911 4.30001 14.0911 4.55001 14.0911 4.78334C14.0911 10.6833 14.0911 16.5667 14.0911 22.4667C14.0911 22.6667 14.1078 22.8833 14.0745 23.0833C14.0079 23.6167 13.5588 24.0167 13.0597 23.9833C12.5107 23.9333 12.1946 23.6167 12.1114 23.0833C12.0781 22.9 12.0948 22.7167 12.0948 22.5167C12.0948 16.1667 12.0948 9.81668 12.0948 3.45001C12.0948 2.26667 12.3776 1.98334 13.5588 1.98334C23.9398 1.98334 34.3043 1.98334 44.6854 1.96667C45.251 1.96667 45.6503 2.16667 46.0495 2.55001C50.5247 7.05001 54.9999 11.55 59.5083 16.0333C59.8577 16.3833 60.0241 16.7333 60.0241 17.2333C60.0074 31.6833 60.0241 46.15 60.0074 60.6C60.0074 61.6667 59.6913 61.9833 58.6266 61.9833C43.5707 61.9833 28.5148 61.9833 13.4589 61.9833C12.3942 61.9833 12.0781 61.6667 12.0781 60.6167C12.0781 59.4667 12.0781 58.3333 12.0781 57.1833C12.0781 56.45 12.4608 56 13.0763 56C13.6752 56 14.0745 56.45 14.0745 57.1833C14.1078 58.1 14.0911 59.0167 14.0911 59.9667Z" fill="#4C70B5"/>
<path d="M18.1003 54.05C10.797 54 4.79128 48.4 4.1591 41.0167C3.56019 34 8.601 27.5 15.6714 26.2334C19.764 25.5 23.4573 26.4834 26.7512 29C27.3502 29.45 27.4832 29.9 27.2337 30.3834C26.9176 31 26.2355 31.1167 25.6033 30.6167C24.2059 29.5167 22.6587 28.75 20.9452 28.3334C14.4404 26.75 7.85236 30.85 6.42164 37.4C4.99091 43.9333 9.19991 50.4167 15.738 51.7333C24.1061 53.4167 31.4593 46.1167 29.8789 37.7167C29.8456 37.55 29.8123 37.3834 29.7957 37.2167C29.7292 36.65 30.0452 36.2 30.5443 36.1C31.11 35.9834 31.6423 36.25 31.7089 36.85C31.8752 38.25 32.1414 39.6834 32.0083 41.0667C31.4427 47.65 26.901 52.5834 20.3962 53.7834C19.6309 53.9334 18.849 53.9667 18.1003 54.05Z" fill="#4C70B5"/>
<path d="M49.0105 45C52.3045 44.9833 55.0163 47.6666 55.0163 50.9666C55.0329 54.2666 52.3544 56.9833 49.0604 57C45.7664 57.0166 43.0547 54.3166 43.0381 51.0333C43.0381 47.7333 45.7165 45.0166 49.0105 45ZM49.0272 55C51.2232 55 53.0199 53.2 53.0199 50.9833C53.0199 48.8 51.2398 47.0166 49.0604 47C46.8478 46.9833 45.0511 48.7666 45.0344 50.9833C45.0344 53.1833 46.8312 55 49.0272 55Z" fill="#4C70B5"/>
<path d="M18.1336 43.4667C20.4627 40.9167 22.7419 38.4333 25.0211 35.95C26.1025 34.7667 27.1838 33.5833 28.2652 32.4C28.731 31.9 29.3299 31.8667 29.7458 32.2833C30.1617 32.6833 30.1451 33.2333 29.7292 33.7333C29.6626 33.8167 29.5961 33.8833 29.5129 33.9667C27.7994 35.8333 26.0858 37.7167 24.3723 39.5833C22.6088 41.5167 20.8287 43.45 19.0653 45.3833C18.3166 46.2167 17.7843 46.2 17.0689 45.35C15.5716 43.55 14.0577 41.7333 12.5605 39.9333C12.4939 39.85 12.4274 39.7833 12.3608 39.7C11.9616 39.1833 11.9948 38.6167 12.4274 38.25C12.8766 37.8667 13.4755 37.9167 13.908 38.4333C15.1724 39.9333 16.4201 41.4333 17.6678 42.9333C17.8176 43.1 17.9506 43.25 18.1336 43.4667Z" fill="#4C70B5"/>
<path d="M38.9955 24C35.8346 24 32.6737 24 29.5128 24C29.3298 24 29.1301 24.0167 28.9471 23.9833C28.4148 23.8833 28.082 23.55 28.082 23C28.082 22.45 28.4148 22.1167 28.9471 22.0167C29.1301 21.9834 29.3131 22 29.5128 22C35.8678 22 42.2396 22 48.5946 22C48.7776 22 48.9773 21.9834 49.1603 22.0167C49.6926 22.1167 50.0254 22.45 50.0254 23C50.0254 23.55 49.6926 23.8833 49.1603 23.9833C48.9773 24.0167 48.7943 24 48.5946 24C45.4005 24 42.1896 24 38.9955 24Z" fill="#4C70B5"/>
<path d="M39.0287 28C35.8012 28 32.5904 28 29.3629 28C28.8805 28 28.4479 27.9167 28.1984 27.45C27.8823 26.85 28.2483 26.1334 28.9304 26.0167C29.13 25.9834 29.3463 26 29.5459 26C35.8844 26 42.2228 26 48.5779 26C48.6777 26 48.7942 26 48.894 26C49.5927 26.0167 50.0253 26.3833 50.0419 26.9667C50.0585 27.5667 49.6094 28 48.894 28C45.5834 28 42.306 28 39.0287 28Z" fill="#4C70B5"/>
<path d="M31.6255 12C34.62 12 37.6146 12 40.6091 12C40.7921 12 40.9918 11.9833 41.1748 12.0167C41.7071 12.1167 42.0398 12.45 42.0398 13C42.0398 13.55 41.7071 13.8834 41.1748 13.9834C40.9918 14.0167 40.8088 14 40.6091 14C34.5868 14 28.5478 14 22.5254 14C22.3258 14 22.1095 14.0167 21.9099 13.9667C21.4108 13.85 21.1113 13.5167 21.1113 13C21.1113 12.4667 21.4108 12.15 21.9099 12.0333C22.1095 11.9833 22.3258 12 22.5254 12C25.5532 12 28.5977 12 31.6255 12Z" fill="#4C70B5"/>
<path d="M41.0583 32C38.4963 32 35.9509 32 33.3889 31.9833C33.0895 31.9833 32.6902 31.95 32.5238 31.7666C32.2909 31.5166 32.0746 31.0333 32.1578 30.75C32.2576 30.4333 32.6902 30.1 33.0229 30.0166C33.5553 29.9 34.1375 29.9833 34.7032 29.9833C39.2948 29.9833 43.8864 29.9833 48.4947 29.9833C48.6611 29.9833 48.8274 29.9833 48.9938 29.9833C49.626 30.0166 50.0585 30.4166 50.0585 30.9833C50.0585 31.55 49.6426 31.9666 49.0104 31.9833C47.7294 32 46.4318 31.9833 45.1508 31.9833C43.7533 32 42.4058 32 41.0583 32Z" fill="#4C70B5"/>
<path d="M35.0195 54.0001C33.7718 54.0001 32.5241 54.0001 31.2764 54.0001C30.5277 54.0001 30.0952 53.6334 30.0786 53.0334C30.0619 52.4001 30.5277 52.0167 31.293 52.0167C33.8051 52.0167 36.3172 52.0167 38.8459 52.0167C39.5945 52.0167 40.0437 52.3834 40.0437 52.9834C40.0604 53.6001 39.5945 54.0001 38.8293 54.0001C37.5649 54.0001 36.2839 54.0001 35.0195 54.0001Z" fill="#4C70B5"/>
</svg>
