<svg width="64" height="64" viewBox="0 0 64 64" fill="none" xmlns="http://www.w3.org/2000/svg">
<g clip-path="url(#clip0_749_156)">
<path d="M29.6961 0C31.2765 0 32.857 0 34.4375 0C35.5854 0.466667 35.5188 1.48333 35.5188 2.46667C42.7556 2.46667 49.9259 2.46667 57.1627 2.46667C57.0795 1.46667 57.1128 0.516667 58.1442 0C59.7746 0 61.3883 0 63.0187 0C63.3514 0.333333 63.6841 0.666667 64.0169 1C64.0169 2.63333 64.0169 4.25 64.0169 5.88333C63.5011 6.96667 62.503 6.91667 61.538 6.9C61.538 14.1667 61.538 21.3333 61.538 28.5667C62.5196 28.5667 63.551 28.4833 64.0169 29.6333C64.0169 31.2167 64.0169 32.8 64.0169 34.3833C63.551 35.5167 62.5362 35.4833 61.5547 35.4667C61.5547 42.7 61.5547 49.8833 61.5547 57.1333C62.5529 57.05 63.5011 57.0833 64.0169 58.1167C64.0169 59.75 64.0169 61.3667 64.0169 63C63.6841 63.3333 63.3514 63.6667 63.0187 64C61.3883 64 59.7746 64 58.1442 64C57.0795 63.4833 57.0961 62.4833 57.1294 61.55C49.876 61.55 42.7057 61.55 35.4855 61.55C35.5521 62.5833 35.5354 63.5333 34.4375 64C32.857 64 31.2765 64 29.6961 64C28.5482 63.5333 28.5981 62.5167 28.6147 61.5333C21.3779 61.5333 14.2077 61.5333 6.95422 61.5333C7.08731 62.55 7.00413 63.4833 5.98931 64C4.35895 64 2.74522 64 1.11486 64C0.316319 63.5667 0.0501372 62.8833 0.100046 61.9833C0.166592 60.9667 0.116683 59.95 0.116683 58.9167C0.116683 57.65 0.632409 57.1333 1.88013 57.1167C2.09641 57.1167 2.32932 57.1167 2.57886 57.1167C2.57886 49.8667 2.57886 42.6667 2.57886 35.4333C2.31268 35.4333 2.09641 35.4333 1.8635 35.4333C0.632409 35.4 0.133319 34.9 0.116683 33.6667C0.116683 32.4833 0.100046 31.3 0.116683 30.1C0.133319 29.1333 0.665682 28.6 1.61395 28.55C1.93004 28.5333 2.26277 28.55 2.57886 28.55C2.57886 21.2667 2.57886 14.0833 2.57886 6.85C2.32932 6.85 2.09641 6.85 1.88013 6.85C0.632409 6.85 0.116683 6.31667 0.116683 5.05C0.116683 4.03333 0.166592 3 0.116683 1.95C0.0667735 1.06667 0.349591 0.433333 1.11486 0C2.74522 0 4.35895 0 5.98931 0C7.07067 0.516667 7.02076 1.51667 7.00413 2.45C14.2576 2.45 21.4278 2.45 28.648 2.45C28.5815 1.43333 28.5815 0.466667 29.6961 0ZM59.6082 57.0833C59.6082 49.8667 59.6082 42.6833 59.6082 35.4167C59.2256 35.4167 58.8762 35.45 58.5435 35.4167C57.6784 35.3333 57.1627 34.8 57.146 33.95C57.1294 32.6333 57.1294 31.3333 57.146 30.0167C57.1627 29.1667 57.7117 28.6167 58.5601 28.5667C58.9095 28.55 59.2589 28.5667 59.5916 28.5667C59.5916 21.2833 59.5916 14.0833 59.5916 7.08333C58.843 6.85 58.0111 6.8 57.5952 6.36667C57.1793 5.93333 57.1627 5.1 56.9631 4.4C49.9092 4.4 42.7223 4.4 35.4855 4.4C35.4855 4.8 35.5188 5.15 35.4855 5.5C35.419 6.31667 34.87 6.83333 34.0548 6.85C32.7239 6.86667 31.393 6.86667 30.0621 6.85C29.2802 6.83333 28.7478 6.3 28.6646 5.51667C28.6314 5.15 28.6646 4.78333 28.6646 4.4C21.3946 4.4 14.2243 4.4 7.20376 4.4C6.97085 5.13333 6.95422 5.98333 6.52167 6.38333C6.07249 6.81667 5.22404 6.83333 4.54195 7.05C4.54195 14.1333 4.54195 21.3167 4.54195 28.5667C4.92458 28.5667 5.27395 28.55 5.62331 28.5667C6.40522 28.6167 6.97085 29.15 6.98749 29.9167C7.02076 31.2833 7.02076 32.6667 6.98749 34.0333C6.97085 34.7833 6.45513 35.3 5.68986 35.3833C5.32386 35.4333 4.94122 35.4333 4.54195 35.45C4.54195 42.6667 4.54195 49.8667 4.54195 56.9C5.27395 57.1167 6.10576 57.15 6.52167 57.5667C6.95422 58.0167 6.98749 58.85 7.20376 59.5667C14.2576 59.5667 21.4278 59.5667 28.648 59.5667C28.648 59.25 28.6314 58.9667 28.648 58.6667C28.6813 57.6333 29.2303 57.1 30.2617 57.1C31.5095 57.0833 32.7572 57.0833 34.0049 57.1C34.8866 57.1167 35.4356 57.6333 35.5022 58.5167C35.5188 58.8667 35.5022 59.2 35.5022 59.5667C42.7723 59.5667 49.9259 59.5667 57.0961 59.5667C57.4122 57.25 57.4122 57.25 59.6082 57.0833ZM5.07431 4.96667C5.07431 3.91667 5.07431 2.9 5.07431 1.91667C4.02622 1.91667 3.02804 1.91667 2.02986 1.91667C2.02986 2.95 2.02986 3.95 2.02986 4.96667C3.04468 4.96667 4.04286 4.96667 5.07431 4.96667ZM62.087 4.96667C62.087 3.9 62.087 2.9 62.087 1.91667C61.039 1.91667 60.0408 1.91667 59.0426 1.91667C59.0426 2.96667 59.0426 3.95 59.0426 4.96667C60.074 4.96667 61.0556 4.96667 62.087 4.96667ZM2.02986 30.4833C2.02986 31.5167 2.02986 32.5 2.02986 33.5333C3.04468 33.5333 4.05949 33.5333 5.07431 33.5333C5.07431 32.5 5.07431 31.4833 5.07431 30.4833C4.02622 30.4833 3.04468 30.4833 2.02986 30.4833ZM62.1203 30.5C61.0556 30.5 60.0574 30.5 59.0592 30.5C59.0592 31.5333 59.0592 32.5333 59.0592 33.5167C60.1073 33.5167 61.1055 33.5167 62.1203 33.5167C62.1203 32.5 62.1203 31.5167 62.1203 30.5ZM2.0465 59.0333C2.0465 60.0833 2.0465 61.0833 2.0465 62.0833C3.09459 62.0833 4.09277 62.0833 5.09095 62.0833C5.09095 61.05 5.09095 60.05 5.09095 59.0333C4.05949 59.0333 3.07795 59.0333 2.0465 59.0333ZM62.087 62.1C62.087 61.0333 62.087 60.0333 62.087 59.05C61.039 59.05 60.0408 59.05 59.0426 59.05C59.0426 60.1 59.0426 61.0833 59.0426 62.1C60.074 62.1 61.0556 62.1 62.087 62.1ZM30.5445 1.91667C30.5445 2.95 30.5445 3.95 30.5445 4.96667C31.576 4.96667 32.5742 4.96667 33.6056 4.96667C33.6056 3.93333 33.6056 2.95 33.6056 1.91667C32.5742 1.91667 31.5926 1.91667 30.5445 1.91667ZM30.5279 62.0667C31.5926 62.0667 32.5908 62.0667 33.589 62.0667C33.589 61.0333 33.589 60.0333 33.589 59.05C32.5409 59.05 31.5427 59.05 30.5279 59.05C30.5279 60.0833 30.5279 61.05 30.5279 62.0667Z" fill="#4C70B5"/>
<path d="M44.8353 15.2334C44.0534 13.3834 42.8223 12.45 40.8426 12.4667C34.92 12.5167 28.9975 12.4834 23.0583 12.4834C21.2283 12.4834 19.9806 13.4 19.3318 15.2334C20.4963 15.2334 21.6276 15.2334 22.7589 15.2334C23.3578 15.2334 23.9733 15.2167 24.5722 15.2334C25.1711 15.25 25.5538 15.5833 25.5704 16.1167C25.587 16.6667 25.221 17.0833 24.5889 17.1C23.3411 17.1167 22.0934 17.1167 20.8457 17.1167C20.0804 17.1167 19.2985 17.1 18.5332 17.1334C18.3336 17.15 18.0508 17.3 17.9676 17.4667C15.4888 21.75 13.01 26.0333 10.5478 30.3334C9.91561 31.4333 9.91561 32.5833 10.5478 33.6667C13.0765 38.0833 15.6385 42.5 18.1672 46.9167C18.3835 47.2833 18.6497 47.2333 18.9491 47.2333C27.101 47.2333 35.2528 47.2333 43.4046 47.2333C44.1865 47.2333 45.1181 47.45 45.717 47.1C46.2993 46.7667 46.5488 45.85 46.9315 45.1833C47.4971 44.2167 48.0461 43.2333 48.6284 42.2667C48.9944 41.65 49.4768 41.4667 49.9593 41.75C50.475 42.0333 50.5915 42.5833 50.2421 43.2167C48.7947 45.75 47.364 48.2834 45.8667 50.7834C44.8519 52.4834 43.2881 53.3667 41.3084 53.3667C35.1363 53.3834 28.9642 53.3834 22.7755 53.3667C20.7958 53.3667 19.232 52.4667 18.2338 50.7667C15.1062 45.4 11.9952 40 8.91743 34.6C7.95253 32.9 7.93589 31.1167 8.91743 29.4167C11.9952 24.0167 15.1062 18.6167 18.2338 13.25C19.2486 11.5167 20.8291 10.6333 22.8421 10.6333C28.9975 10.6167 35.1529 10.6167 41.3084 10.6333C43.3214 10.6333 44.8852 11.5333 45.9 13.2667C49.011 18.6167 52.1054 24 55.1831 29.3834C56.1646 31.1 56.148 32.8834 55.1831 34.6334C54.3846 36.0833 53.5361 37.5167 52.7043 38.9667C52.3383 39.6 51.8059 39.7667 51.3068 39.4667C50.841 39.1833 50.7412 38.6333 51.0739 38.0333C51.8392 36.6833 52.6211 35.3167 53.4196 33.9833C54.2015 32.65 54.1849 31.3667 53.4196 30.0333C51.024 25.9 48.6284 21.75 46.266 17.6C46.0664 17.25 45.8501 17.1167 45.4342 17.1167C40.1938 17.1333 34.9533 17.1334 29.7129 17.1334C29.5465 17.1334 29.3801 17.1334 29.2138 17.1334C28.5317 17.1167 28.1158 16.75 28.0991 16.2C28.0825 15.6333 28.515 15.25 29.247 15.25C34.188 15.25 39.1457 15.25 44.0867 15.25C44.3029 15.2333 44.5192 15.2334 44.8353 15.2334ZM19.4981 49.1333C20.2301 50.7 21.3448 51.5 23.0084 51.5C26.4355 51.5 29.8626 51.5 33.2897 51.5C35.9681 51.5 38.6466 51.5167 41.325 51.4833C42.8556 51.4667 44.1698 50.4834 44.5525 49.1167C36.2343 49.1334 27.8995 49.1333 19.4981 49.1333Z" fill="#4C70B5"/>
<path d="M32.7573 24.9C31.0271 24.9 29.3136 24.9167 27.5834 24.9C26.0362 24.8834 24.9216 23.8167 24.905 22.3667C24.8883 20.9167 26.003 19.7834 27.5335 19.7834C31.0105 19.7667 34.4709 19.7667 37.9479 19.7834C39.3952 19.7834 40.4433 20.7167 40.6097 22.0834C40.7594 23.2834 39.9941 24.45 38.7963 24.8C38.4969 24.8834 38.1808 24.9 37.8813 24.9C36.1678 24.9 34.4542 24.9 32.7573 24.9ZM32.7573 23.0167C34.4875 23.0167 36.201 23.0167 37.9312 23.0167C38.397 23.0167 38.7298 22.85 38.7464 22.3667C38.763 21.8834 38.4137 21.6834 37.9811 21.65C37.8647 21.6334 37.7316 21.65 37.6151 21.65C34.371 21.65 31.1436 21.65 27.8995 21.65C27.6999 21.65 27.467 21.6334 27.284 21.7C26.8514 21.85 26.6518 22.2167 26.8847 22.5667C27.0344 22.8 27.4503 22.9834 27.7498 22.9834C29.3968 23.05 31.0771 23.0167 32.7573 23.0167Z" fill="#4C70B5"/>
<path d="M32.7239 44.3834C31.027 44.3834 29.3134 44.3834 27.6165 44.3834C26.0361 44.3834 24.9048 43.3 24.9048 41.8167C24.9048 40.3334 26.0361 39.2667 27.6165 39.25C31.0602 39.2334 34.5206 39.2334 37.9643 39.25C39.395 39.25 40.4431 40.2 40.6095 41.5667C40.7592 42.8167 39.9108 44 38.6464 44.3C38.3802 44.3667 38.114 44.3667 37.8479 44.3667C36.1343 44.3834 34.4374 44.3834 32.7239 44.3834ZM32.7405 42.5C34.4208 42.5 36.101 42.5 37.7813 42.5C38.2638 42.5 38.663 42.4167 38.7296 41.85C38.7795 41.4 38.3969 41.1334 37.7813 41.1167C36.6001 41.1167 35.419 41.1167 34.2378 41.1167C32.0584 41.1167 29.8791 41.1167 27.6997 41.1167C27.3004 41.1167 26.9344 41.1834 26.818 41.6167C26.6682 42.1 27.0176 42.4834 27.6498 42.4834C29.3467 42.5167 31.0436 42.5 32.7405 42.5Z" fill="#4C70B5"/>
<path d="M25.0151 28C27.2188 28 29.015 29.803 28.9999 32.0152C28.9999 34.2273 27.2037 36 24.9849 36C22.7812 36 20.985 34.197 21.0001 31.9848C21.0152 29.7879 22.8114 28 25.0151 28ZM25.0302 29.7121C23.7472 29.697 22.7057 30.7273 22.7057 32C22.7057 33.2424 23.717 34.2727 24.9547 34.303C26.2377 34.3182 27.2792 33.3182 27.3094 32.0455C27.3245 30.7727 26.2981 29.7121 25.0302 29.7121Z" fill="#4C70B5"/>
<path d="M40 31.9772C40.017 29.7458 42.0114 27.9849 44.517 28.0001C47.0227 28.0001 49 29.7913 49 32.0228C49 34.239 46.9886 36.0151 44.483 35.9999C41.9773 35.9847 40 34.1935 40 31.9772ZM47.0909 32.0228C47.108 30.7325 45.9659 29.7002 44.517 29.7002C43.0682 29.7002 41.9261 30.7021 41.9261 31.9924C41.9261 33.2675 43.0341 34.2694 44.4659 34.2846C45.9148 34.2998 47.0739 33.2979 47.0909 32.0228Z" fill="#4C70B5"/>
<path d="M37.0306 32.9018C36.6785 32.8868 36.3903 32.8868 36.0862 32.8566C35.542 32.7962 35.2218 32.4641 35.2218 32.0113C35.2218 31.5585 35.574 31.2113 36.1022 31.1962C36.7425 31.166 37.3828 31.166 38.023 31.1962C38.6633 31.2264 39.0155 31.6339 38.9995 32.2528C38.9515 34.3358 37.4468 35.9207 35.4619 35.9961C33.1889 36.0867 31.2521 34.5773 31.028 32.5094C30.8519 30.8641 31.5082 29.5359 32.9808 28.6453C34.4215 27.785 35.9261 27.8001 37.4148 28.6C37.959 28.9019 38.1191 29.3396 37.879 29.7774C37.6229 30.2302 37.0946 30.366 36.5344 30.0642C35.9261 29.7321 35.2858 29.6264 34.6295 29.7774C33.381 30.0491 32.5646 31.2717 32.8368 32.4641C33.0929 33.6566 34.3414 34.4565 35.622 34.2603C36.3423 34.1697 36.8385 33.7018 37.0306 32.9018Z" fill="#4C70B5"/>
<path d="M16.7498 34.2909C17.2308 34.2909 17.6343 34.2757 18.0378 34.2909C18.6431 34.306 18.9845 34.6395 19 35.1397C19 35.6551 18.6586 35.9735 18.0533 35.9886C17.3705 36.0038 16.7032 36.0038 16.0204 35.9886C15.3841 35.9735 15.0116 35.6248 15.0116 34.9882C14.9961 32.9721 14.9961 30.9408 15.0116 28.9247C15.0116 28.3486 15.3531 28 15.8807 28C16.3928 28 16.7498 28.3486 16.7498 28.9398C16.7653 30.4709 16.7498 32.0019 16.7498 33.5329C16.7498 33.7603 16.7498 33.9877 16.7498 34.2909Z" fill="#4C70B5"/>
</g>
<defs>
<clipPath id="clip0_749_156">
<rect width="64" height="64" fill="white"/>
</clipPath>
</defs>
</svg>
