<svg width="64" height="64" viewBox="0 0 64 64" fill="none" xmlns="http://www.w3.org/2000/svg">
<g clip-path="url(#clip0_749_138)">
<path d="M38.8702 0C40.758 1.2875 42.6584 2.575 44.5338 3.8875C48.9846 7 53.4355 10.125 57.8864 13.2375C59.0616 14.0625 59.1866 14.725 58.3615 15.8875C57.4863 17.1375 56.6236 18.375 55.7485 19.625C55.3109 20.2375 54.8233 20.3875 54.3232 20.075C53.8231 19.75 53.7731 19.1875 54.2107 18.55C55.0608 17.325 55.9235 16.0875 56.8362 14.8C50.7725 10.55 44.7338 6.325 38.6326 2.05C34.2693 8.275 29.9434 14.4625 25.5551 20.725C25.8051 20.75 25.9802 20.775 26.1427 20.775C27.768 20.775 29.3933 20.7625 31.0186 20.7875C31.4562 20.8 31.6688 20.675 31.8438 20.25C33.069 17.4875 34.9944 15.425 37.87 14.35C39.1952 13.85 40.5455 13.75 41.9083 14.2C44.2337 14.9625 45.634 17.225 45.534 20.0125C45.5215 20.2375 45.534 20.4625 45.534 20.7875C45.759 20.7875 45.9716 20.7875 46.1966 20.7875C47.5969 20.7875 48.9846 20.775 50.3849 20.7875C53.0854 20.825 55.0733 22.8125 55.0983 25.5125C55.1233 27.7875 55.1108 30.05 55.0983 32.325C55.0983 32.7625 55.2109 32.95 55.6484 33.125C57.5488 33.8625 58.649 35.275 58.7616 37.325C58.8491 38.775 58.8366 40.2375 58.7616 41.7C58.649 43.8 57.5238 45.2375 55.5734 45.9875C55.1859 46.1375 55.0858 46.3125 55.0858 46.7C55.0983 48.925 55.0983 51.1625 55.0983 53.3875C55.0858 56.3125 53.123 58.275 50.1849 58.275C48.022 58.275 45.8465 58.275 43.6836 58.275C43.5961 58.275 43.5211 58.275 43.4336 58.275C42.7709 58.25 42.3458 57.875 42.3584 57.3125C42.3709 56.775 42.7834 56.4125 43.4211 56.4C45.0839 56.3875 46.7592 56.325 48.422 56.4125C52.5979 56.6125 53.4105 55.575 53.2355 51.5625C53.1605 50.025 53.223 48.475 53.223 46.9375C53.223 46.7375 53.223 46.5375 53.223 46.2625C51.3726 46.2625 49.5848 46.275 47.8094 46.2625C46.9593 46.25 46.0966 46.2625 45.2589 46.1375C42.1083 45.6375 39.6703 42.625 39.7703 39.425C39.8704 36.1 42.3584 33.1875 45.559 32.925C47.8094 32.7375 50.0974 32.8375 52.3603 32.8C52.6229 32.8 52.8979 32.8 53.2355 32.8C53.2355 32.25 53.2355 31.75 53.2355 31.2625C53.2355 29.45 53.2355 27.6375 53.2355 25.825C53.2355 23.7875 52.1353 22.675 50.1224 22.675C36.7823 22.675 23.4547 22.675 10.1146 22.675C8.07666 22.675 6.98894 23.775 6.98894 25.8C6.98894 34.9875 6.98894 44.175 6.98894 53.3625C6.98894 55.3 8.10166 56.4 10.0645 56.4125C12.2275 56.4125 14.4029 56.4125 16.5658 56.4125C17.391 56.4125 17.9286 57.0625 17.5785 57.6875C17.416 57.975 16.9784 58.25 16.6533 58.25C14.2529 58.3 11.8649 58.3125 9.46443 58.25C7.10146 58.1875 5.16359 56.15 5.12608 53.7625C5.10107 51.925 5.11358 50.1 5.11358 48.2625C5.11358 40.7625 5.12608 33.2625 5.10107 25.7625C5.10107 23.925 5.77621 22.5 7.31401 21.475C7.50154 21.35 7.61407 21 7.61407 20.7625C7.63907 18.0375 7.62657 15.3 7.62657 12.575C7.62657 12.4125 7.61407 12.2375 7.62657 12.075C7.66407 11.45 8.05165 11.0375 8.57675 11.05C9.11436 11.05 9.48943 11.4625 9.48943 12.1C9.50193 14.8125 9.48943 17.5125 9.48943 20.225C9.48943 20.3875 9.48943 20.55 9.48943 20.7625C10.4021 20.7625 11.2648 20.7625 12.1775 20.7625C12.1775 15.0625 12.1775 9.3375 12.1775 3.5875C11.3148 3.5875 10.4521 3.5875 9.48943 3.5875C9.48943 4.275 9.48943 4.975 9.48943 5.675C9.48943 6.4875 9.50193 7.3 9.48943 8.1125C9.47693 8.7625 9.13936 9.15 8.58926 9.1625C8.01414 9.175 7.62657 8.775 7.62657 8.1C7.61407 6.475 7.61407 4.85 7.62657 3.225C7.63907 2.2125 8.23919 1.6625 9.3269 1.6625C12.9151 1.6625 16.4908 1.6625 20.079 1.6625C23.7672 1.6625 27.4554 1.6625 31.1437 1.6625C32.5064 1.6625 32.994 2.15 32.994 3.4875C32.994 4.525 32.994 5.5625 32.994 6.775C33.2066 6.5125 33.3316 6.375 33.4316 6.225C34.6318 4.525 35.8071 2.8 37.0198 1.1125C37.3199 0.7 37.7324 0.3875 38.1075 0.0375C38.3701 0 38.6201 0 38.8702 0ZM18.6412 20.775C19.954 20.775 21.2292 20.75 22.492 20.7875C23.0296 20.8 23.3546 20.65 23.6672 20.2C25.7676 17.15 27.8555 14.0875 30.0559 11.1C30.8686 10 31.2562 8.9125 31.1562 7.55C31.0561 6.225 31.1312 4.9 31.1312 3.55C26.9303 3.55 22.8045 3.55 18.6412 3.55C18.6412 9.275 18.6412 14.975 18.6412 20.775ZM50.1974 44.375C51.4226 44.375 52.6604 44.375 53.8856 44.375C55.6484 44.3625 56.8862 43.1875 56.9362 41.425C56.9737 40.15 56.9737 38.8875 56.9362 37.6125C56.8862 35.9 55.711 34.6875 54.0106 34.6625C51.4976 34.625 48.9721 34.6 46.4592 34.6625C43.7211 34.725 41.6207 36.9375 41.6707 39.575C41.7207 42.275 43.8837 44.35 46.6467 44.375C47.8219 44.375 49.0097 44.375 50.1974 44.375ZM16.6908 20.7375C16.6908 14.9625 16.6908 9.25 16.6908 3.5375C15.8157 3.5375 14.9905 3.5375 14.1528 3.5375C14.1528 9.2875 14.1528 15 14.1528 20.7375C15.0155 20.7375 15.8407 20.7375 16.6908 20.7375ZM33.6942 20.725C37.0573 20.725 40.3205 20.725 43.6211 20.725C43.6211 20.075 43.6836 19.475 43.6086 18.875C43.3335 16.775 41.6582 15.5375 39.5828 15.8375C38.0575 16.05 36.8198 16.825 35.7321 17.8625C34.8819 18.675 34.2068 19.6 33.6942 20.725Z" fill="#4C70B5"/>
<path d="M28.8684 64C27.8557 63.7125 26.8055 63.5125 25.8303 63.1375C21.0669 61.2625 18.2663 56.4 18.879 51.1625C19.4416 46.2875 23.5049 42.1875 28.4433 41.4875C34.707 40.6 40.2956 44.75 41.3208 51.075C42.2835 56.9875 38.0952 62.75 32.0315 63.85C31.769 63.9 31.5064 63.95 31.2439 64.0125C30.4562 64 29.6686 64 28.8684 64ZM39.5705 52.6625C39.5705 47.4625 35.3572 43.25 30.1562 43.2375C24.9301 43.225 20.6668 47.4375 20.6543 52.65C20.6418 57.85 24.9051 62.125 30.1062 62.125C35.3197 62.125 39.5705 57.8875 39.5705 52.6625Z" fill="#4C70B5"/>
<path d="M53.5732 13.9875C53.4482 14.25 53.3857 14.45 53.2857 14.625C52.9981 15.125 53.0481 15.5625 53.4607 15.975C53.9983 16.5125 54.0233 16.8375 53.6107 17.45C53.2357 18 52.8606 18.55 52.473 19.0875C52.0479 19.6625 51.4978 19.8125 51.0352 19.4625C50.5601 19.1125 50.5351 18.6 50.9602 17.975C50.9977 17.925 51.0227 17.8625 51.0727 17.825C51.5478 17.2875 51.8229 16.775 51.3853 16.025C51.1853 15.675 51.3228 15.1375 51.2603 14.6875C51.2353 14.475 51.1477 14.225 50.9977 14.0875C50.6977 13.8125 50.3226 13.6125 49.9975 13.3625C49.5724 13.0375 49.4849 12.5 49.7475 12.0875C50.035 11.6375 50.5726 11.5125 51.0477 11.825C51.7479 12.275 52.4355 12.75 53.0856 13.2625C53.2982 13.4375 53.4107 13.75 53.5732 13.9875Z" fill="#4C70B5"/>
<path d="M35.7446 8.39999C35.8947 8.08749 35.9572 7.86249 36.0822 7.67499C36.4698 7.08749 36.8824 6.51249 37.2949 5.93749C37.6325 5.46249 38.0826 5.31249 38.5952 5.57499C39.1828 5.87499 39.6454 5.79999 40.0705 5.27499C40.4706 4.77499 40.8956 4.73749 41.4457 5.09999C42.0834 5.52499 42.721 5.96249 43.3336 6.42499C43.8462 6.79999 43.9462 7.33749 43.6462 7.77499C43.3336 8.21249 42.796 8.28749 42.2584 7.94999C42.1709 7.89999 42.0834 7.83749 42.0084 7.77499C41.4332 7.28749 40.8706 6.93749 40.108 7.47499C39.8704 7.64999 39.4454 7.67499 39.1453 7.61249C38.5327 7.48749 38.2201 7.76249 37.9576 8.23749C37.8075 8.51249 37.645 8.83749 37.395 8.96249C37.1074 9.11249 36.6698 9.21249 36.3823 9.11249C36.1072 9.03749 35.9447 8.64999 35.7446 8.39999Z" fill="#4C70B5"/>
<path d="M46.9718 43C45.234 43 43.8712 41.9875 43.4336 40.5375C42.9835 39.05 43.5711 37.4625 44.8714 36.6125C46.1591 35.7875 47.822 35.8875 48.9972 36.875C49.5598 37.35 49.6848 37.9375 49.3098 38.3875C48.9347 38.825 48.4346 38.8125 47.822 38.35C47.2093 37.875 46.5592 37.8 45.9716 38.1375C45.4215 38.45 45.0839 39.1125 45.1714 39.7125C45.2715 40.3875 45.7216 40.9875 46.3842 41.0375C46.8593 41.075 47.3969 40.9125 47.822 40.675C48.4471 40.3375 48.8972 40.275 49.2722 40.7125C49.6473 41.1625 49.5598 41.7125 48.9972 42.175C48.3471 42.725 47.5969 42.975 46.9718 43Z" fill="#4C70B5"/>
<path d="M29.7557 54.0251V54.6501H32.1562V55.5751H29.7557V56.5751H27.9429V55.5751H26.8677V54.6501H27.9429V48.8H31.306C32.3688 48.8 33.1939 49.0251 33.794 49.4626C34.3941 49.9126 34.6942 50.5625 34.6942 51.4125C34.6942 52.2625 34.3941 52.9125 33.794 53.3625C33.1939 53.8125 32.3688 54.0251 31.306 54.0251H29.7557ZM32.4563 50.5625C32.1812 50.3625 31.7936 50.2626 31.2935 50.2626H29.7557V52.6125H31.306C31.8061 52.6125 32.1937 52.5125 32.4688 52.3125C32.7438 52.1125 32.8688 51.8125 32.8688 51.425C32.8688 51.05 32.7313 50.7625 32.4563 50.5625Z" fill="#4C70B5"/>
</g>
<defs>
<clipPath id="clip0_749_138">
<rect width="64" height="64" fill="white"/>
</clipPath>
</defs>
</svg>
