<svg width="64" height="64" viewBox="0 0 64 64" fill="none" xmlns="http://www.w3.org/2000/svg">
<g clip-path="url(#clip0_749_194)">
<path d="M64.0003 55.3918C63.626 56.3587 62.9242 56.7329 61.895 56.6706C61.0685 56.6238 60.242 56.655 59.3375 56.655C59.3375 57.0136 59.3531 57.2943 59.3375 57.575C59.2907 58.885 58.5578 59.6179 57.2634 59.6179C53.7079 59.6179 50.1523 59.6179 46.5967 59.6179C45.2868 59.6179 44.5539 58.8694 44.5383 57.575C44.5383 57.2943 44.5383 56.998 44.5383 56.6862C36.0392 56.6862 27.6026 56.6862 19.0724 56.6862C19.0724 57.0136 19.088 57.3411 19.0724 57.6686C19.0256 58.8538 18.277 59.6179 17.0919 59.6179C13.4739 59.6335 9.856 59.6335 6.23806 59.6179C5.05288 59.6179 4.30434 58.8538 4.25755 57.6686C4.24196 57.3567 4.25755 57.0448 4.25755 56.655C3.49342 56.655 2.77607 56.655 2.05872 56.655C0.795565 56.6394 0.140595 55.9844 0.125 54.7368C0.125 51.9298 0.125 49.1228 0.125 46.3158C0.140595 43.0409 2.32383 40.8109 5.61428 40.7641C7.09576 40.7329 8.56165 40.7641 10.0431 40.7641C20.2264 40.7641 30.4096 40.7641 40.5928 40.7641C40.8579 40.7641 41.1231 40.7641 41.4661 40.7641C41.4661 40.4678 41.4661 40.2495 41.4661 40.0312C41.4661 35.3996 41.4661 30.7524 41.4661 26.1208C41.4661 24.6082 40.9047 24.0468 39.4077 24.0468C38.0977 24.0468 36.7878 24.0468 35.4778 24.0468C35.2751 24.0468 35.0568 24.0312 34.854 24C34.3394 23.922 34.0743 23.5633 34.0899 23.0799C34.1055 22.5965 34.3706 22.2066 34.8852 22.2066C36.7566 22.191 38.6279 22.1286 40.4993 22.2534C41.9496 22.347 43.1815 23.7505 43.2595 25.2008C43.3375 26.4171 43.2751 27.6491 43.2751 28.6472C44.242 29.037 45.0061 29.3801 45.817 29.6608C46.0977 29.7544 46.4564 29.7388 46.7371 29.6452C47.1114 29.5361 47.4233 29.2554 47.7819 29.0994C49.0295 28.5848 50.4798 29.193 50.9788 30.4405C51.1036 30.768 51.1971 31.1111 51.2751 31.4542C51.3843 31.8752 51.6026 32.1715 52.0548 32.2339C54.394 32.5146 55.4077 34.7758 53.9106 36.7251C53.6143 37.115 53.7079 37.4737 53.9418 37.8791C54.6747 39.1267 54.7059 39.3138 54.4876 40.6238C56.9671 40.6238 59.4466 40.6238 62.0197 40.6238C62.0197 40.1871 62.0197 39.7661 62.0197 39.345C62.0197 37.7856 62.0353 36.2261 62.0353 34.6667C62.0353 34.1053 61.9106 34.0429 61.4116 34.2924C61.0373 34.4795 60.6786 34.6978 60.2732 34.7758C59.1192 35.0097 58.1367 34.3548 57.8092 33.1228C57.6689 32.5614 57.4194 32.2807 56.8268 32.1247C55.2517 31.7349 54.6591 30.2846 55.47 28.8811C55.7663 28.3665 55.7975 28.0078 55.4856 27.4776C54.6435 26.0429 55.2361 24.6238 56.858 24.2027C57.4194 24.0624 57.6689 23.7973 57.8092 23.2359C58.2459 21.614 59.6494 21.0526 61.0997 21.8479C61.2244 21.9259 61.3492 22.0039 61.4739 22.0663C61.8482 22.2846 62.0665 22.2066 62.0665 21.7388C62.0665 21.5361 62.0821 21.3177 62.0665 21.115C62.0509 20.5536 62.1445 20.0546 62.7839 19.8986C63.3921 19.7427 63.6884 20.1325 63.9535 20.5848C63.9535 26.4951 63.9535 32.3899 63.9535 38.3002C63.9535 39.8752 63.9535 41.4659 63.9535 43.0409C64.0003 47.1579 64.0003 51.2748 64.0003 55.3918ZM62.0665 42.6667C50.8073 42.6667 39.6416 42.6667 28.4915 42.6667C28.4915 46.7368 28.4915 50.7446 28.4915 54.7524C39.7195 54.7524 50.8852 54.7524 62.0665 54.7524C62.0665 50.729 62.0665 46.7368 62.0665 42.6667ZM26.5422 42.6667C26.3706 42.6511 26.2459 42.6199 26.1211 42.6199C19.2595 42.6199 12.3979 42.6043 5.53631 42.6199C3.35307 42.6199 1.98075 44.0702 1.98075 46.2534C1.96516 48.8889 1.98075 51.54 1.98075 54.1754C1.98075 54.3626 1.99635 54.5341 2.01194 54.7524C2.23026 54.768 2.4174 54.7836 2.58894 54.7836C4.16399 54.7836 5.75463 54.7836 7.32968 54.7836C8.10941 54.7836 8.54605 55.1579 8.53046 55.7505C8.51486 56.3275 8.10941 56.6394 7.34527 56.655C6.93982 56.655 6.53436 56.655 6.14449 56.655C6.14449 57.0916 6.14449 57.4035 6.14449 57.7154C9.8404 57.7154 13.4895 57.7154 17.1231 57.7154C17.1231 57.3567 17.1231 57.0292 17.1231 56.655C15.3765 56.655 13.6767 56.655 11.9769 56.655C10.9944 56.655 10.5733 56.3899 10.5577 55.7505C10.5422 55.0799 10.9944 54.7836 12.008 54.7836C16.6084 54.7836 21.1932 54.7836 25.7936 54.7836C26.0275 54.7836 26.2771 54.7836 26.5266 54.7836C26.5422 50.7134 26.5422 46.7212 26.5422 42.6667ZM62.1133 24.2495C61.4583 23.9844 60.8657 23.8129 60.3355 23.5322C59.8833 23.2982 59.7118 23.3918 59.6182 23.8752C59.3999 25.0448 58.6981 25.7466 57.5285 25.9649C57.0607 26.0429 56.9047 26.2456 57.201 26.6823C57.9028 27.6803 57.9028 28.6939 57.201 29.692C56.9515 30.0507 56.9983 30.3002 57.4661 30.3782C58.6981 30.5965 59.4155 31.3294 59.6338 32.5458C59.7118 32.9824 59.9145 33.0292 60.2888 32.8421C60.7098 32.6238 61.1465 32.4054 61.5987 32.3431C62.0197 32.2807 62.0977 32.1248 62.0977 31.7505C62.0977 29.5672 62.0977 27.384 62.1133 25.2008C62.1133 24.8265 62.1133 24.4834 62.1133 24.2495ZM43.3531 32.6862C45.6143 32.5458 47.4388 33.2632 48.8891 34.885C50.355 36.5224 50.8073 38.4717 50.3706 40.7953C51.1503 40.577 51.8365 40.421 52.4759 40.1715C52.6318 40.1092 52.7254 39.6413 52.6786 39.4074C52.6318 39.1111 52.3979 38.8616 52.242 38.5965C51.7585 37.7232 51.7585 36.8499 52.242 35.9766C52.3667 35.7427 52.5227 35.5088 52.6474 35.2748C52.9281 34.729 52.8034 34.4016 52.2264 34.2144C51.9925 34.1364 51.7429 34.1053 51.509 34.0273C50.511 33.7466 49.856 33.1072 49.5753 32.1092C49.5129 31.8752 49.4661 31.6257 49.3882 31.3918C49.201 30.8148 48.8891 30.6745 48.3433 30.9552C48.1562 31.0487 47.9847 31.1579 47.7975 31.267C46.8151 31.8752 45.8326 31.8752 44.8502 31.267C44.6318 31.1423 44.4291 31.0019 44.1952 30.9084C43.6962 30.6901 43.3999 30.8772 43.3687 31.423C43.3375 31.7973 43.3531 32.1871 43.3531 32.6862ZM43.3843 40.6706C44.6474 40.6706 45.8794 40.6706 47.0958 40.6706C48.6084 40.6706 48.7332 40.5458 48.6552 38.9863C48.6552 38.846 48.6396 38.6901 48.624 38.5497C48.2809 36.0234 45.7858 34.1364 43.3999 34.6355C43.3843 36.6004 43.3843 38.5965 43.3843 40.6706ZM46.4252 57.731C50.1367 57.731 53.7702 57.731 57.4349 57.731C57.4349 57.3723 57.4349 57.0448 57.4349 56.7173C53.739 56.7173 50.0899 56.7173 46.4252 56.7173C46.4252 57.0604 46.4252 57.3723 46.4252 57.731Z" fill="#4C70B5"/>
<path d="M64.0001 16.9669C63.813 17.154 63.6571 17.3879 63.4231 17.5127C62.8306 17.8246 62.16 17.3879 62.1288 16.655C62.0976 15.922 62.1288 15.2047 62.1132 14.4717C62.1132 11.3996 60.1639 9.43469 57.1074 9.41909C54.0664 9.4035 51.0411 9.41909 48.0001 9.41909C37.9728 9.41909 27.9612 9.41909 17.9339 9.41909C17.6688 9.41909 17.4037 9.41909 17.0918 9.41909C17.0918 15.9532 17.0918 22.4249 17.0918 28.9279C19.1035 29.1618 20.8656 28.7407 22.1444 27.0721C22.7214 26.3236 23.236 25.4971 23.8286 24.7485C25.0606 23.1735 26.698 22.3314 28.6941 22.2066C29.4582 22.1598 30.238 22.1754 31.0021 22.1754C31.6727 22.191 32.0469 22.5185 32.0625 23.0643C32.0781 23.6413 31.7038 24 31.0021 24.0312C30.2691 24.0624 29.5518 24.0312 28.8189 24.0624C27.3374 24.1247 26.1366 24.7797 25.2477 25.9337C24.7643 26.5575 24.3276 27.2125 23.8754 27.8674C22.7526 29.4581 21.2399 30.4249 19.3218 30.7524C19.1814 30.7836 19.0411 30.7992 18.8851 30.8304C18.8695 30.8304 18.8539 30.8616 18.776 30.924C18.776 31.3138 18.776 31.7661 18.776 32.2183C18.7604 33.3099 18.4017 33.7934 17.4037 34.1988C17.2633 34.2612 17.1074 34.5107 17.1074 34.6823C17.0762 35.9142 17.0918 37.1306 17.0918 38.3626C17.0918 39.1579 16.7643 39.5945 16.1873 39.6101C15.5791 39.6257 15.236 39.1735 15.2204 38.347C15.2204 37.2086 15.2204 36.0546 15.2204 34.9162C15.2204 34.7134 15.2048 34.5107 15.1892 34.2456C14.3159 34.2456 13.4894 34.2456 12.6629 34.2456C11.0879 34.2456 10.4641 33.6218 10.4641 32.0624C10.4641 31.6725 10.4641 31.2826 10.3393 31.0487C9.45044 30.6901 8.48357 30.4717 7.68825 29.9571C6.28474 29.0682 5.75453 27.6335 5.75453 25.9961C5.75453 23.1423 5.75453 20.3041 5.75453 17.4503C5.75453 17.232 5.75453 16.998 5.75453 16.7173C5.00599 16.655 4.10151 16.7953 4.08591 15.6881C4.07032 15.0799 4.44459 14.8772 5.75453 14.768C5.75453 14.0195 5.69215 13.2554 5.77012 12.5068C5.8481 11.7115 5.92607 10.8694 6.23796 10.152C7.08006 8.28069 8.65511 7.51656 10.6668 7.51656C13.3335 7.51656 15.9845 7.51656 18.6512 7.51656C19.0723 7.51656 19.3062 7.42299 19.5401 7.03313C21.5986 3.47757 26.7448 3.47757 28.8033 7.04872C28.9904 7.37621 29.1619 7.53215 29.5674 7.53215C36.6317 7.51656 43.7116 7.51656 50.776 7.51656C50.9319 7.51656 51.1035 7.50097 51.353 7.46978C51.353 6.95516 51.3374 6.45613 51.353 5.9727C51.3686 5.28654 51.7428 4.86549 52.2886 4.86549C52.8344 4.86549 53.1931 5.28654 53.2243 5.9727C53.2399 6.45613 53.2243 6.92397 53.2243 7.46978C53.4738 7.48537 53.6921 7.50096 53.9261 7.50096C55.2204 7.51656 56.5148 7.46978 57.7935 7.54775C61.006 7.75048 63.3296 9.87134 63.9066 13.037C63.9222 13.1306 63.9689 13.2242 64.0157 13.3333C64.0001 14.5497 64.0001 15.7661 64.0001 16.9669ZM15.158 9.45028C14.9709 9.43469 14.8461 9.4035 14.7214 9.4035C13.2243 9.4035 11.7272 9.35672 10.2302 9.43469C8.67071 9.51266 7.65706 10.5731 7.64147 12.1481C7.61028 16.8421 7.61028 21.5361 7.64147 26.23C7.65706 27.883 8.77987 28.9279 10.4173 28.9591C11.852 28.9746 13.2867 28.9591 14.7214 28.9591C14.8617 28.9591 15.0021 28.9279 15.158 28.9123C15.158 22.4093 15.158 15.9688 15.158 9.45028ZM16.889 30.9863C15.3608 30.9863 13.8793 30.9863 12.3978 30.9863C12.3978 31.4542 12.3978 31.8908 12.3978 32.3275C13.9105 32.3275 15.392 32.3275 16.889 32.3275C16.889 31.8596 16.889 31.423 16.889 30.9863ZM26.7916 7.50096C25.3257 5.83235 22.659 5.86354 21.6142 7.50096C23.3296 7.50096 25.0138 7.50096 26.7916 7.50096Z" fill="#4C70B5"/>
<path d="M43.0101 20.6316C38.3161 20.6316 33.6066 20.6316 28.9126 20.6316C27.3688 20.6316 26.3707 19.9454 26.0276 18.6667C25.9652 18.4327 25.9341 18.1832 25.9341 17.9337C25.9185 16.6238 25.9185 15.3138 25.9341 14.0039C25.9652 12.4444 26.9789 11.4152 28.5383 11.3216C28.7099 11.306 28.8658 11.306 29.0374 11.306C38.3941 11.306 47.7508 11.306 57.1075 11.3216C57.6222 11.3216 58.168 11.3684 58.6202 11.5711C59.7118 12.0234 60.1797 12.9591 60.1953 14.113C60.2109 15.3606 60.2265 16.6082 60.1953 17.8557C60.1485 19.6491 59.0725 20.6316 57.2323 20.6472C52.4916 20.6316 47.7508 20.6316 43.0101 20.6316ZM38.1134 13.2242C38.1134 15.0799 38.1134 16.8889 38.1134 18.729C42.3083 18.729 46.4565 18.729 50.6202 18.729C50.6202 16.8733 50.6202 15.0487 50.6202 13.2242C46.4253 13.2242 42.2771 13.2242 38.1134 13.2242ZM36.1641 13.1774C33.6222 13.1774 31.1426 13.1774 28.6787 13.1774C28.1017 13.1774 27.8054 13.4893 27.8054 14.0819C27.8054 15.267 27.8054 16.4522 27.8054 17.6374C27.8054 18.5575 28.0081 18.7602 28.9594 18.7602C31.1894 18.7602 33.4038 18.7602 35.6339 18.7602C35.8054 18.7602 35.9925 18.729 36.1797 18.7134C36.1641 16.8577 36.1641 15.0487 36.1641 13.1774ZM52.5695 13.2242C52.5695 13.8479 52.5695 14.4093 52.5695 15.0019C53.2089 15.0019 53.8015 15.0019 54.4253 15.0019C54.4253 14.3937 54.4253 13.8323 54.4253 13.2242C53.8171 13.2242 53.2245 13.2242 52.5695 13.2242ZM54.4721 18.7134C54.4721 18.1988 54.4877 17.7154 54.4565 17.2476C54.4409 17.1228 54.2537 16.9201 54.1446 16.9201C53.63 16.8889 53.1153 16.9045 52.5695 16.9045C52.5695 17.5438 52.5695 18.1053 52.5695 18.7134C53.1933 18.7134 53.7859 18.7134 54.4721 18.7134ZM58.2615 14.9863C58.5578 13.3801 58.0588 12.9279 56.4058 13.2553C56.4058 13.8168 56.4058 14.3937 56.4058 14.9863C57.0452 14.9863 57.6534 14.9863 58.2615 14.9863ZM56.3902 18.6978C58.1368 18.9474 58.6202 18.4795 58.2459 16.9513C57.6378 16.9513 57.0296 16.9513 56.3902 16.9513C56.3902 17.5438 56.3902 18.1053 56.3902 18.6978Z" fill="#4C70B5"/>
<path d="M20.4293 25.7933C20.4137 26.308 19.9615 26.729 19.4469 26.7134C18.9322 26.6978 18.5112 26.2612 18.5268 25.7465C18.5424 25.2319 18.979 24.8109 19.5092 24.8265C20.0239 24.8265 20.4449 25.2787 20.4293 25.7933Z" fill="#4C70B5"/>
<path d="M60.2887 27.2125C60.8033 27.1969 61.24 27.6179 61.2556 28.1325C61.2712 28.6627 60.8657 29.0838 60.3355 29.0994C59.8053 29.115 59.3842 28.7095 59.3687 28.1793C59.3687 27.6647 59.7741 27.2281 60.2887 27.2125Z" fill="#4C70B5"/>
<path d="M45.6454 37.3333C46.1601 37.3489 46.5655 37.7855 46.5655 38.3157C46.5499 38.8459 46.1289 39.2514 45.5987 39.2358C45.0996 39.2202 44.6474 38.768 44.663 38.269C44.6942 37.7699 45.162 37.3177 45.6454 37.3333Z" fill="#4C70B5"/>
<path d="M30.2226 15.0175C30.7216 15.0331 31.1739 15.5009 31.1583 16C31.1427 16.5146 30.6904 16.9512 30.1758 16.9356C29.6612 16.92 29.2246 16.4678 29.2402 15.9688C29.2557 15.4385 29.7236 15.0019 30.2226 15.0175Z" fill="#4C70B5"/>
</g>
<defs>
<clipPath id="clip0_749_194">
<rect width="64" height="64" fill="white"/>
</clipPath>
</defs>
</svg>
