<svg width="64" height="64" viewBox="0 0 64 64" fill="none" xmlns="http://www.w3.org/2000/svg">
<g clip-path="url(#clip0_749_211)">
<path d="M64.0002 53.5179C63.579 54.6098 62.9707 55.5145 61.7384 55.7953C61.3328 55.8889 60.9117 55.9044 60.5061 55.9044C55.0935 55.9044 49.6965 55.9044 44.2839 55.9044C43.9095 55.9044 43.6443 55.9824 43.3792 56.2944C42.646 57.1367 41.6477 57.4019 40.5247 57.3707C40.4623 57.7606 40.4311 58.1506 40.3375 58.525C39.8539 60.3344 38.0289 61.4107 36.2663 60.7867C34.0045 59.9756 31.7896 59.0085 29.559 58.1194C27.7652 57.4019 26.0338 56.388 24.1776 56.0136C22.3214 55.6549 20.3248 55.92 18.3906 55.92C15.8325 55.92 13.2744 55.92 10.7162 55.92C8.62604 55.92 7.44057 54.719 7.40937 52.6288C7.40937 52.0049 7.39378 51.3809 7.40937 50.757C7.42497 50.1019 7.78373 49.6963 8.31408 49.6963C8.84442 49.6963 9.20318 50.1019 9.21878 50.757C9.23438 51.4277 9.20318 52.0829 9.23438 52.7536C9.26558 53.5491 9.62434 54.0638 10.3575 54.0638C13.3679 54.095 16.3628 54.0794 19.4045 53.9703C19.1081 53.8455 18.8118 53.7363 18.531 53.6115C16.5968 52.7848 14.9746 51.5681 13.6331 49.9459C12.3229 48.3081 10.607 47.263 8.59485 46.5922C8.50126 46.717 8.42327 46.8262 8.34527 46.9354C7.81493 47.6841 7.01942 47.9805 6.16151 47.6529C4.52368 47.0134 2.88585 46.3583 1.26363 45.6563C0.187342 45.1884 -0.124625 44.2369 0.343325 43.0514C1.85636 39.3234 3.385 35.5954 4.89804 31.8674C5.3192 30.8535 5.72475 29.824 6.14591 28.8101C6.66065 27.5935 7.58096 27.2035 8.81323 27.687C10.1391 28.2174 11.4649 28.7633 12.7908 29.3093C14.5846 30.0424 14.8498 30.5571 14.335 32.5537C15.2553 32.4913 16.1444 32.4913 17.018 32.3821C23.4913 31.5242 29.8554 30.1204 36.2351 28.7477C38.0445 28.3578 39.542 29.0285 40.1035 30.4947C40.7274 32.117 39.9007 33.8484 38.1693 34.4255C36.2039 35.0807 34.2073 35.6734 32.2263 36.2817C32.0704 36.3285 31.9144 36.3909 31.6492 36.4689C31.9456 36.5937 32.1639 36.7029 32.3823 36.7809C36.6875 38.5435 40.9614 40.3529 45.3133 42.0219C47.9495 43.0358 48.6046 45.8591 46.7484 47.7465C48.1678 48.8072 48.7762 50.1955 48.0743 51.8801C47.4035 53.5179 46.0153 54.0482 44.2839 54.0015C44.4086 54.0327 44.549 54.0794 44.6738 54.0794C50.024 54.0794 55.3587 54.095 60.7089 54.0794C61.7696 54.0794 62.144 53.6115 62.144 52.426C62.144 40.6181 62.144 28.7945 62.144 16.9866C62.144 15.3488 62.144 13.7109 62.144 12.0107C55.7174 12.0107 49.3221 12.0107 42.8488 12.0107C42.8332 12.2291 42.8176 12.4631 42.8176 12.697C42.8176 16.9866 42.8176 21.2605 42.8176 25.5501C42.8176 26.6576 42.1937 27.3283 41.2578 27.1567C40.9146 27.0943 40.5715 26.8759 40.2907 26.642C38.762 25.3161 37.2646 23.9746 35.7204 22.6176C35.5644 22.7424 35.424 22.836 35.2836 22.9607C33.9578 24.1306 32.6319 25.3005 31.3216 26.486C30.7601 26.9851 30.183 27.4531 29.3874 27.0787C28.5763 26.7044 28.5607 25.9712 28.5607 25.2225C28.5607 21.0889 28.5607 16.9398 28.5607 12.8062C28.5607 12.5567 28.5607 12.3071 28.5607 12.0107C22.1186 12.0107 15.7077 12.0107 9.21878 12.0107C9.21878 12.2759 9.21878 12.5255 9.21878 12.7594C9.21878 16.503 9.21878 20.2466 9.21878 23.9902C9.21878 24.2242 9.23438 24.4582 9.18759 24.6766C9.0784 25.1133 8.76643 25.3473 8.32968 25.3473C7.89292 25.3473 7.56536 25.1289 7.47177 24.6766C7.42497 24.4426 7.42497 24.1774 7.42497 23.9278C7.42497 19.7943 7.40937 15.6451 7.44057 11.5116C7.44057 11.0904 7.53416 10.6381 7.69014 10.2481C8.39207 8.3607 9.14079 6.4889 9.87391 4.6171C10.3263 3.46282 10.7942 3.13525 12.0421 3.13525C24.0684 3.13525 36.0791 3.13525 48.1054 3.13525C48.2926 3.13525 48.4798 3.15085 48.667 3.18205C49.1661 3.27564 49.4469 3.58761 49.4157 4.10235C49.4001 4.6171 49.0881 4.91346 48.589 4.96026C48.1522 4.99146 47.7155 4.97586 47.2787 4.97586C45.3757 4.97586 43.4571 4.97586 41.4762 4.97586C41.8661 6.66048 42.2249 8.26711 42.6148 9.88934C42.646 9.99853 42.8332 10.0921 42.958 10.1545C43.0672 10.2013 43.2076 10.1701 43.3324 10.1701C49.2441 10.1701 55.1403 10.1701 61.0521 10.1701C61.2549 10.1701 61.4576 10.1701 61.7696 10.1701C61.3016 8.96903 60.8805 7.87715 60.4437 6.78527C60.2098 6.19253 60.1006 5.39701 59.6638 5.08505C59.2427 4.78868 58.4628 4.99146 57.8388 4.99146C57.0121 4.99146 56.1698 5.00706 55.3431 4.99146C54.7191 4.97586 54.3448 4.63269 54.3136 4.11795C54.298 3.6188 54.6724 3.19765 55.2651 3.18205C56.8093 3.15085 58.338 3.15085 59.8822 3.19765C60.7401 3.21325 61.2237 3.74359 61.52 4.50791C62.2531 6.41091 63.0019 8.29831 63.7506 10.1857C63.8286 10.3729 63.9378 10.5445 64.0314 10.716C64.0002 24.9729 64.0002 39.2454 64.0002 53.5179ZM9.24998 44.8452C9.43716 44.9232 9.54635 44.9856 9.65554 45.0324C11.8861 45.8591 13.7735 47.1694 15.2709 49.0256C16.394 50.4138 17.8447 51.3497 19.4981 52.0205C25.0823 54.2822 30.6509 56.5596 36.2195 58.8369C36.4223 58.9149 36.6407 58.9929 36.8746 59.0553C37.6702 59.2425 38.3877 58.8057 38.5905 58.0258C38.8088 57.2303 38.4033 56.5752 37.4206 56.1852C34.7065 55.0777 31.9924 53.9859 29.2938 52.8784C28.4047 52.5196 28.1084 52.0517 28.3735 51.4745C28.6231 50.9286 29.1379 50.835 29.9958 51.1782C32.6631 52.27 35.3304 53.3619 38.0133 54.4538C38.8556 54.797 39.6979 55.1401 40.5715 55.4521C41.1798 55.6705 41.7257 55.4677 42.1313 54.9685C42.7864 54.1574 42.4433 53.1123 41.367 52.6756C37.9821 51.2873 34.5973 49.9147 31.2124 48.542C30.9629 48.4328 30.6977 48.3393 30.4793 48.1989C30.0894 47.9337 29.9646 47.5437 30.1674 47.107C30.3701 46.6858 30.7289 46.4986 31.1968 46.5922C31.4152 46.639 31.6336 46.7326 31.8364 46.8262C35.658 48.386 39.4796 49.9459 43.3168 51.5057C43.8003 51.7085 44.2683 51.9113 44.7674 52.0517C45.3289 52.2076 45.8437 52.0361 46.2181 51.5681C46.5768 51.1314 46.7016 50.5854 46.4052 50.1175C46.1713 49.7431 45.7813 49.3843 45.3757 49.2128C43.0204 48.2145 40.6494 47.263 38.2941 46.2959C36.4067 45.5315 34.5193 44.7672 32.6475 43.9873C31.9768 43.7065 31.7272 43.2074 31.9768 42.6771C32.1951 42.2091 32.6943 42.0531 33.3182 42.3027C34.5973 42.8018 35.8608 43.3322 37.1242 43.8469C39.386 44.7672 41.6633 45.7031 43.9251 46.6234C44.939 47.029 45.9529 46.4207 46.0309 45.3912C46.0777 44.7204 45.6409 44.1745 44.7674 43.8157C39.4796 41.6632 34.1917 39.495 28.9039 37.358C28.4359 37.1708 28.0148 36.9369 28.0148 36.3597C28.0304 35.7514 28.4827 35.5486 28.9819 35.3926C31.8052 34.5347 34.6129 33.6612 37.4362 32.7877C38.2629 32.5381 38.6217 31.9922 38.4501 31.3371C38.2785 30.6663 37.6546 30.3544 36.8123 30.5103C31.2904 31.6022 25.7842 32.7253 20.2468 33.7548C18.0786 34.1604 15.8793 34.5503 13.6019 34.2227C12.1669 37.7168 10.7162 41.2576 9.24998 44.8452ZM40.9926 12.0263C37.4362 12.0263 33.9422 12.0263 30.4481 12.0263C30.4481 16.2847 30.4481 20.4962 30.4481 24.7858C30.6665 24.6142 30.8225 24.4894 30.9785 24.349C32.1795 23.2883 33.365 22.2276 34.5817 21.1669C35.4084 20.4338 36.0479 20.4494 36.8902 21.1825C38.0757 22.2276 39.2612 23.2727 40.4311 24.3178C40.5871 24.4582 40.7742 24.5986 41.0082 24.7858C40.9926 20.4806 40.9926 16.2691 40.9926 12.0263ZM9.68673 10.1233C16.1132 10.1233 22.4306 10.1233 28.7791 10.1233C29.1691 8.40749 29.559 6.72287 29.9646 4.97586C29.6526 4.97586 29.4342 4.97586 29.2003 4.97586C26.9697 4.97586 24.7547 4.97586 22.5242 4.97586C19.0925 4.97586 15.6609 4.97586 12.2293 4.99146C12.0109 4.99146 11.6677 5.06945 11.6053 5.20983C10.9658 6.81646 10.3419 8.43869 9.68673 10.1233ZM7.92412 29.2937C5.92753 34.2072 3.94654 39.0582 1.94995 43.9717C3.58778 44.6424 5.19441 45.2976 6.83224 45.9683C8.84442 41.0392 10.8254 36.1881 12.8064 31.2903C11.1374 30.6039 9.54635 29.9644 7.92412 29.2937ZM30.6665 10.1077C34.0825 10.1077 37.3894 10.1077 40.7742 10.1077C40.3999 8.51668 40.0255 6.98804 39.6979 5.45941C39.62 5.06945 39.464 4.96026 39.074 4.97586C37.3738 4.99146 35.658 4.99146 33.9578 4.99146C33.2558 4.99146 32.5539 4.99146 31.8364 4.99146C31.4464 6.70727 31.0565 8.3763 30.6665 10.1077Z" fill="#4C70B5"/>
</g>
<defs>
<clipPath id="clip0_749_211">
<rect width="64" height="64" fill="white"/>
</clipPath>
</defs>
</svg>
