<svg width="64" height="64" viewBox="0 0 64 64" fill="none" xmlns="http://www.w3.org/2000/svg">
<path d="M64 45.0745C63.675 46.1599 63.1125 47.0831 62 47.607C62.45 48.5178 62.675 49.441 62.3625 50.4265C62.0625 51.4121 61.4 52.1107 60.4625 52.5723C61.35 54.5061 60.9625 56.0905 59.2375 57.3755C59.825 58.361 60.05 59.3965 59.625 60.5068C59.1125 61.8542 58.1125 62.6526 56.675 62.7275C55.1 62.8148 53.5125 62.7649 51.9375 62.7649C51.3 62.7649 50.9 62.3782 50.9 61.8542C50.9 61.3178 51.2875 60.931 51.9375 60.9185C53.3125 60.8936 54.6875 60.931 56.05 60.8936C56.45 60.8811 56.8875 60.7938 57.2375 60.6191C57.8 60.3322 58.05 59.7957 57.9625 59.1595C57.875 58.5482 57.3625 58.0117 56.75 57.887C56.4875 57.8371 56.2125 57.8246 55.95 57.8246C54.3875 57.8246 52.825 57.8246 51.275 57.8121C50.5125 57.8121 50.125 57.4753 50.125 56.8889C50.125 56.3026 50.525 55.9532 51.275 55.9532C53.1875 55.9408 55.1 55.9532 57.0125 55.9408C57.3625 55.9408 57.725 55.9283 58.0625 55.816C58.75 55.5914 59.15 54.9053 59.0625 54.2066C58.975 53.4831 58.3875 52.9466 57.6375 52.8842C57.4125 52.8717 57.175 52.8717 56.95 52.8717C55.0625 52.8717 53.1625 52.8842 51.275 52.8717C50.525 52.8717 50.125 52.51 50.125 51.9361C50.125 51.3497 50.5125 51.0129 51.2875 51.0129C53.7 51.0004 56.1125 51.0129 58.525 51.0004C58.9125 51.0004 59.325 50.963 59.6875 50.8382C60.3625 50.6012 60.7625 49.8526 60.6375 49.1914C60.5 48.4678 59.8625 47.9314 59.075 47.9189C56.6375 47.9064 54.2125 47.9189 51.775 47.9064C51.5875 47.9064 51.4 47.9189 51.2125 47.9064C50.525 47.869 50.125 47.5197 50.125 46.9583C50.125 46.3969 50.525 46.0351 51.225 46.0351C54.2625 46.0226 57.3 46.0601 60.3375 46.0102C60.8125 45.9977 61.3875 45.7981 61.725 45.4862C62.55 44.7127 62.15 43.3903 61.0625 43.0534C60.75 42.9536 60.4125 42.9411 60.075 42.9411C57 42.9287 53.925 42.9411 50.8375 42.9287C48.85 42.9162 47.45 41.5439 47.55 39.6725C47.575 39.2484 47.7 38.8117 47.8375 38.4125C48.4625 36.5661 49.125 34.7322 49.7625 32.8983C50.1625 31.738 49.9625 30.8024 49.1875 30.1661C48.3375 29.455 47.4625 29.5922 46.8875 30.5279C45.4875 32.8359 44.125 35.1564 42.6875 37.4394C41.9375 38.6246 41.05 39.7349 40.2375 40.8827C39.1125 42.4671 37.4625 42.8912 35.65 42.9411C35.375 42.9536 35.1125 42.9536 34.8375 42.9536C34.8 42.9536 34.7625 42.991 34.7125 43.016C34.7125 47.7692 34.7125 52.5224 34.7125 57.363C35.2875 57.363 35.825 57.363 36.35 57.363C37.625 57.3505 38.7625 57.7622 39.6 58.6979C41.175 60.4445 43.075 61.1556 45.4 60.9061C46.0375 60.8437 46.6875 60.8811 47.3375 60.9061C48 60.931 48.425 61.3302 48.4 61.8792C48.375 62.4031 47.975 62.7525 47.325 62.7649C45.975 62.7649 44.625 62.7774 43.275 62.74C42.0375 62.7025 40.925 62.2534 39.9625 61.4799C39.5875 61.1805 39.2125 60.8811 38.9 60.5318C37.75 59.2842 36.3125 59.0721 34.725 59.3092C34.7 59.4464 34.675 59.5961 34.65 59.7333C34.425 60.8562 33.675 61.5298 32.525 61.5423C29.4125 61.5673 26.2875 61.5673 23.1625 61.5423C21.7 61.5298 20.825 60.5942 20.825 59.0597C20.8125 55.0799 20.825 51.0877 20.825 47.108C20.825 46.8585 20.825 46.6215 20.825 46.322C20.2375 46.322 19.7125 46.2846 19.2125 46.347C19.025 46.3719 18.8 46.5965 18.7 46.7836C17.625 48.6799 16.5875 50.5887 15.525 52.485C14.975 53.4581 14.025 53.8199 13.175 53.3084C12.825 53.0963 12.525 52.7345 12.3125 52.3727C11.2875 50.5762 10.275 48.7548 9.3 46.9333C9.0625 46.4967 8.775 46.3096 8.275 46.322C7.1125 46.347 5.95 46.347 4.7875 46.2846C2.1375 46.1474 0.15 43.9392 0.1625 41.0823C0.15 35.8051 0.125 30.5528 0.125 25.3006C0.125 24.2277 0.125 23.1423 0.125 22.0694C0.125 18.8133 2.1875 16.7423 5.4625 16.7298C10.2875 16.7174 15.1125 16.7298 19.9375 16.7298C20.1875 16.7298 20.425 16.7298 20.7125 16.7298C20.6125 15.5946 20.5 14.5341 20.4125 13.4737C20.0625 8.98247 22.525 4.60353 26.5 2.6199C30.7125 0.523994 35.6125 1.11035 39.05 4.20431C39.8625 4.92789 40.5125 5.82614 41.1875 6.69943C41.8 7.49787 42.2375 7.51035 42.7875 6.64953C45 3.19378 48.2125 1.40976 52.275 1.40976C57.3625 1.39729 61.825 4.5661 63.2 9.68111C63.3875 10.3922 63.175 10.9037 62.6375 11.0659C62.0875 11.2281 61.6125 10.9411 61.4125 10.23C60.7875 8.03433 59.5875 6.27526 57.7125 4.94037C53.6 1.98364 47.4875 3.05655 44.6625 7.23588C44.575 7.37312 44.4625 7.51035 44.3875 7.64758C43.275 9.65616 40.8125 9.69358 39.5625 7.63511C38.35 5.639 36.5625 4.35401 34.3375 3.63043C28.2375 1.65928 21.725 6.78676 22.25 13.1743C22.325 14.1224 22.5 15.0706 22.55 16.0187C22.5875 16.6425 22.8625 16.7298 23.4125 16.7298C28.1375 16.7049 32.85 16.7174 37.575 16.7174C39.725 16.7174 41.45 17.5283 42.375 19.5244C42.725 20.2604 42.875 21.1587 42.8875 21.9821C42.9375 25.5252 42.9125 29.0807 42.9125 32.6238C42.9125 32.8234 42.9125 33.023 42.9125 33.2102C42.95 33.2226 42.9875 33.2351 43.0375 33.2476C43.7875 32.0125 44.5375 30.7899 45.275 29.5548C45.7125 28.8187 46.2875 28.2573 47.125 27.9829C48.7 27.4838 50.55 28.3571 51.3875 29.979C51.525 30.2534 51.6375 30.5404 51.8 30.9396C52.85 29.9291 53.8875 29.0183 54.8375 28.0078C57.7875 24.8889 60.1125 21.3957 61.15 17.1665C61.35 16.3181 61.475 15.4573 61.6125 14.5965C61.7375 13.8854 62.15 13.5236 62.725 13.6234C63.275 13.7232 63.55 14.1848 63.475 14.8585C62.8625 20.0733 60.5625 24.5146 57.05 28.3322C55.4375 30.0788 53.5875 31.6008 51.85 33.2476C51.65 33.4347 51.4625 33.6842 51.375 33.9462C50.75 35.6803 50.1375 37.4269 49.5375 39.161C49.125 40.3462 49.65 41.0573 50.9125 41.0698C53.8625 41.0698 56.8125 41.0698 59.775 41.0698C62.2125 41.0698 63.1375 41.6936 64 43.9392C64 44.3259 64 44.7002 64 45.0745ZM34.7 41.0698C35.25 41.0698 35.75 41.1072 36.2375 41.0573C37.2 40.9825 38.0625 40.6831 38.6625 39.8472C39.4 38.8242 40.1625 37.8137 40.9 36.7782C41 36.6409 41.0375 36.4289 41.0375 36.2542C41.05 31.3762 41.05 26.4983 41.0375 21.6203C41.025 20.2105 40.125 19.0628 38.8125 18.7259C38.375 18.6137 37.9125 18.5887 37.45 18.5887C26.825 18.5762 16.2 18.5887 5.575 18.5887C5.4875 18.5887 5.4125 18.5887 5.325 18.5887C3.225 18.6386 2 19.8737 2 21.9571C2 28.3447 2 34.7447 2 41.1322C2 43.1283 3.2625 44.4008 5.2625 44.4257C6.3 44.4382 7.3375 44.4382 8.3875 44.4257C9.5 44.4008 10.2875 44.8998 10.8125 45.8604C11.725 47.5072 12.6375 49.1665 13.55 50.8133C13.6625 51.0004 13.775 51.1875 13.9125 51.4246C14.05 51.2 14.15 51.0129 14.25 50.8382C15.0875 49.3287 15.9875 47.8565 16.7375 46.3096C17.4125 44.9248 18.375 44.2261 19.9375 44.4257C20.2 44.4632 20.4625 44.4257 20.8 44.4257C20.8 43.3404 20.8 42.3298 20.8 41.3193C20.8 39.4854 21.675 38.6246 23.525 38.6246C26.3375 38.6246 29.1375 38.6246 31.95 38.6246C33.7875 38.6246 34.4625 39.2234 34.7 41.0698ZM26.775 59.671C26.775 53.2585 26.775 46.9084 26.775 40.4959C25.725 40.4959 24.7125 40.4959 23.7 40.4959C22.6875 40.4959 22.675 40.5084 22.675 41.494C22.675 47.2328 22.675 52.984 22.675 58.7228C22.675 58.8725 22.625 59.0472 22.6875 59.147C22.8125 59.3466 22.9875 59.646 23.1625 59.646C24.35 59.6959 25.55 59.671 26.775 59.671ZM28.725 40.4959C28.725 46.9084 28.725 53.2585 28.725 59.671C29.7875 59.671 30.825 59.671 31.85 59.671C32.7875 59.671 32.7875 59.671 32.7875 58.7603C32.7875 52.9716 32.7875 47.1953 32.7875 41.4066C32.7875 41.2445 32.8375 41.0448 32.775 40.9201C32.6875 40.7454 32.5 40.5084 32.3625 40.5084C31.1625 40.4834 29.9625 40.4959 28.725 40.4959Z" fill="#4C70B5"/>
<path d="M12.4623 34.3953C10.8123 34.3828 9.4873 33.0479 9.4873 31.4261C9.4998 29.7918 10.8623 28.4319 12.4623 28.4569C14.1623 28.4694 15.4873 29.8042 15.4623 31.4635C15.4373 33.0978 14.0998 34.4078 12.4623 34.3953ZM12.5123 30.3532C11.8873 30.3407 11.3873 30.8023 11.3623 31.4011C11.3373 31.9875 11.8248 32.5115 12.4373 32.5239C13.0498 32.5364 13.5498 32.0748 13.5873 31.4635C13.6123 30.8647 13.1248 30.3657 12.5123 30.3532Z" fill="#4C70B5"/>
<path d="M21.0998 34.3953C19.4623 34.3828 18.1123 33.0354 18.1123 31.4261C18.1248 29.8042 19.4873 28.4319 21.0998 28.4569C22.7998 28.4818 24.1123 29.7793 24.0998 31.4635C24.0748 33.0978 22.7373 34.4078 21.0998 34.3953ZM22.2123 31.4386C22.2123 30.8397 21.7248 30.3407 21.1123 30.3407C20.5123 30.3407 19.9873 30.8397 19.9873 31.4261C19.9873 32.0249 20.4873 32.5239 21.0998 32.5239C21.7123 32.5239 22.2123 32.0499 22.2123 31.4386Z" fill="#4C70B5"/>
<path d="M32.7252 31.4386C32.7127 33.0854 31.4002 34.3953 29.7502 34.3953C28.1127 34.3953 26.7627 33.0729 26.7627 31.4511C26.7627 29.8168 28.1002 28.4569 29.7127 28.4569C31.4127 28.4569 32.7377 29.7668 32.7252 31.4386ZM29.7502 30.3283C29.1377 30.3283 28.6502 30.8148 28.6377 31.4261C28.6377 32.0374 29.1127 32.524 29.7252 32.524C30.3377 32.524 30.8252 32.0499 30.8377 31.4386C30.8502 30.8273 30.3627 30.3407 29.7502 30.3283Z" fill="#4C70B5"/>
</svg>
