<svg xmlns="http://www.w3.org/2000/svg"
 xmlns:xlink="http://www.w3.org/1999/xlink"
 width="19px" height="20px"  viewBox="0 0 19 20">
<path fill-rule="evenodd"  fill="#243f4d"
 d="M4.7020264,8.075829 C5.057617,8.010796 5.381958,8.206558 5.44751,8.560493 C5.5440674,9.1418915 5.8031006,9.626884 6.227173,10.049454 C6.6483154,10.437706 7.1693115,10.726929 7.7211914,10.826286 C8.045654,10.891647 8.2734375,11.215515 8.207886,11.569458 C8.142334,11.89267 7.849121,12.125038 7.4936523,12.084511 C6.682617,11.923065 5.937256,11.535141 5.35083,10.954063 C4.767578,10.372993 4.3776855,9.626884 4.215454,8.818352 C4.1499023,8.464409 4.3432617,8.141846 4.7020264,8.075829 ZM7.9802246,1.9964676 C11.445557,1.9964676 14.258911,4.7966003 14.258911,8.25296 C14.258911,9.182091 14.056152,10.064812 13.691162,10.85733 C13.691162,10.85733 16.027344,12.893372 16.027344,12.893372 C17.730347,14.639526 16.772827,16.159203 16.320557,16.610207 C15.899414,17.06382 14.327515,18.02465 12.590088,16.318367 C12.590088,16.318367 10.531616,13.968254 10.531616,13.968254 C9.751709,14.31337 8.890991,14.5065155 7.9831543,14.5065155 C4.5148926,14.5065155 1.7045898,11.705406 1.7045898,8.249695 C1.7045898,4.7939835 4.5117188,1.9964676 7.9802246,1.9964676 ZM13.525879,15.5131 C13.81897,15.836967 14.651855,16.380455 15.406616,15.73925 C15.615723,15.563103 16.039795,14.670578 15.178955,13.865639 C15.178955,13.865639 13.017456,11.985809 13.017456,11.985809 C12.633789,12.498253 12.175293,12.952522 11.654419,13.325745 C11.654419,13.325745 13.525879,15.5131 13.525879,15.5131 ZM7.9802246,13.200897 C10.721924,13.200897 12.945679,10.984787 12.945679,8.25296 C12.945679,5.521141 10.721924,3.3053513 7.9802246,3.3053513 C5.2384033,3.3053513 3.0146484,5.521141 3.0146484,8.25296 C3.0146484,10.984787 5.2353516,13.200897 7.9802246,13.200897 Z"/>
</svg>