<svg width="12" height="12" viewBox="0 0 12 12" fill="none" xmlns="http://www.w3.org/2000/svg">
<path d="M6.0002 6.00876e-09C4.73543 -6.32337e-05 3.52175 0.499054 2.62294 1.38887C1.72413 2.27869 1.21284 3.48729 1.2002 4.75198C1.2002 8.03997 5.4302 11.7 5.6102 11.856C5.71888 11.9489 5.85718 12 6.0002 12C6.14321 12 6.28152 11.9489 6.3902 11.856C6.6002 11.7 10.8002 8.03997 10.8002 4.75198C10.7875 3.48729 10.2763 2.27869 9.37745 1.38887C8.47864 0.499054 7.26496 -6.32337e-05 6.0002 6.00876e-09ZM6.0002 6.59998C5.72442 6.59998 5.45134 6.54566 5.19656 6.44013C4.94178 6.33459 4.71027 6.17991 4.51527 5.9849C4.32027 5.7899 4.16558 5.5584 4.06005 5.30362C3.95451 5.04883 3.9002 4.77576 3.9002 4.49999C3.9002 4.22421 3.95451 3.95114 4.06005 3.69635C4.16558 3.44157 4.32027 3.21007 4.51527 3.01507C4.71027 2.82006 4.94178 2.66538 5.19656 2.55984C5.45134 2.45431 5.72442 2.39999 6.0002 2.39999C6.55715 2.39999 7.09129 2.62124 7.48512 3.01507C7.87895 3.40889 8.1002 3.94303 8.1002 4.49999C8.1002 5.05694 7.87895 5.59108 7.48512 5.9849C7.09129 6.37873 6.55715 6.59998 6.0002 6.59998Z" fill="#D44D60"/>
</svg>
